<?xml version="1.0" encoding="UTF-8" standalone="no"?>
<svg
   xmlns:dc="http://purl.org/dc/elements/1.1/"
   xmlns:cc="http://creativecommons.org/ns#"
   xmlns:rdf="http://www.w3.org/1999/02/22-rdf-syntax-ns#"
   xmlns:svg="http://www.w3.org/2000/svg"
   xmlns="http://www.w3.org/2000/svg"
   xmlns:sodipodi="http://sodipodi.sourceforge.net/DTD/sodipodi-0.dtd"
   xmlns:inkscape="http://www.inkscape.org/namespaces/inkscape"
   data-name="Layer 1"
   viewBox="0 0 64 80"
   x="0px"
   y="0px"
   id="svg4000"
   version="1.1"
   inkscape:version="0.91 r13725"
   sodipodi:docname="myqonly.svg">
  <metadata
     id="metadata4020">
    <rdf:RDF>
      <cc:Work
         rdf:about="">
        <dc:format>image/svg+xml</dc:format>
        <dc:type
           rdf:resource="http://purl.org/dc/dcmitype/StillImage" />
        <dc:title>analyze-research-investigate-analyse-examine-zoom</dc:title>
      </cc:Work>
    </rdf:RDF>
  </metadata>
  <defs
     id="defs4018" />
  <sodipodi:namedview
     pagecolor="#ffffff"
     bordercolor="#666666"
     borderopacity="1"
     objecttolerance="10"
     gridtolerance="10"
     guidetolerance="10"
     inkscape:pageopacity="0"
     inkscape:pageshadow="2"
     inkscape:window-width="1257"
     inkscape:window-height="809"
     id="namedview4016"
     showgrid="false"
     inkscape:zoom="8.1625"
     inkscape:cx="48.2689"
     inkscape:cy="40"
     inkscape:window-x="0"
     inkscape:window-y="0"
     inkscape:window-maximized="0"
     inkscape:current-layer="svg4000" />
  <title
     id="title4002">analyze-research-investigate-analyse-examine-zoom</title>
  <path
     fill="#FFFFFF"
     d="M61.339,48.953l-1.381-.609c-.054-.194-.112-.379-.175-.56l.77-1.326a1.007,1.007,0,0,0,.008-.99,11.309,11.309,0,0,0-1.44-2.011.993.993,0,0,0-.969-.308l-1.451.333c-.142-.112-.29-.22-.44-.325l-.141-1.541a1,1,0,0,0-.576-.816,10.859,10.859,0,0,0-2.319-.779.993.993,0,0,0-.963.327L51.271,41.5c-.18-.008-.362-.008-.542,0l-.991-1.151a.988.988,0,0,0-.963-.327,10.859,10.859,0,0,0-2.319.779,1,1,0,0,0-.576.816l-.141,1.541c-.15.105-.3.213-.439.324l-1.453-.332a1,1,0,0,0-.968.308,11.231,11.231,0,0,0-1.439,2.012,1,1,0,0,0,.008.989l.769,1.325c-.063.181-.121.367-.175.561l-1.381.609a1,1,0,0,0-.591.808,11,11,0,0,0,0,2.478,1,1,0,0,0,.591.808l1.381.609c.054.194.112.379.175.56l-.77,1.326a1.007,1.007,0,0,0-.008.99,11.309,11.309,0,0,0,1.44,2.011,1,1,0,0,0,.969.308l1.451-.333c.142.112.29.22.44.325l.141,1.541a1,1,0,0,0,.576.816,10.859,10.859,0,0,0,2.319.779,1,1,0,0,0,.963-.327l.991-1.151c.18.008.362.008.542,0l.991,1.151A1,1,0,0,0,53.02,62a1.026,1.026,0,0,0,.2-.021,10.859,10.859,0,0,0,2.319-.779,1,1,0,0,0,.576-.816l.141-1.541c.15-.105.3-.213.439-.324l1.453.332a.994.994,0,0,0,.968-.308,11.231,11.231,0,0,0,1.439-2.012,1,1,0,0,0-.008-.989l-.769-1.325c.063-.181.121-.367.175-.561l1.381-.609a1,1,0,0,0,.591-.808,11,11,0,0,0,0-2.478A1,1,0,0,0,61.339,48.953Zm-1.352,2.5-1.283.566a1,1,0,0,0-.571.694,7.6,7.6,0,0,1-.377,1.208,1,1,0,0,0,.058.885l.711,1.226q-.24.373-.52.73l-1.34-.307a.991.991,0,0,0-.884.225,7.4,7.4,0,0,1-1,.737,1,1,0,0,0-.47.76l-.13,1.427c-.269.106-.538.2-.807.274l-.916-1.064a1,1,0,0,0-.758-.347.877.877,0,0,0-.088,0,7.194,7.194,0,0,1-1.228,0,.992.992,0,0,0-.846.343l-.916,1.064c-.269-.076-.538-.168-.807-.274l-.129-1.427a1,1,0,0,0-.471-.76,7.325,7.325,0,0,1-1-.737,1,1,0,0,0-.886-.226L44,56.765q-.279-.354-.521-.73l.712-1.226a1,1,0,0,0,.058-.886,7.543,7.543,0,0,1-.377-1.206,1,1,0,0,0-.571-.694l-1.283-.566c-.008-.151-.013-.3-.013-.457s.005-.306.013-.457l1.283-.566a1,1,0,0,0,.571-.694,7.6,7.6,0,0,1,.377-1.208,1,1,0,0,0-.058-.885l-.711-1.226q.24-.373.52-.73l1.34.307a1,1,0,0,0,.884-.225,7.4,7.4,0,0,1,1-.737,1,1,0,0,0,.471-.76l.129-1.427c.269-.106.538-.2.807-.274l.916,1.064a.99.99,0,0,0,.846.343,7.194,7.194,0,0,1,1.228,0,.988.988,0,0,0,.846-.343l.916-1.064c.269.076.538.168.807.274l.13,1.427a1,1,0,0,0,.47.76,7.325,7.325,0,0,1,1,.737,1.007,1.007,0,0,0,.886.226l1.339-.307q.279.354.521.73l-.712,1.226a1,1,0,0,0-.058.886,7.543,7.543,0,0,1,.377,1.206,1,1,0,0,0,.571.694l1.283.566c.008.151.013.3.013.457S60,51.306,59.987,51.457Z"
     id="path4004" />
  <path
     fill="#FFFFFF"
     d="M51,46a5,5,0,1,0,5,5A5.006,5.006,0,0,0,51,46Zm0,8a3,3,0,1,1,3-3A3,3,0,0,1,51,54Z"
     id="path4006" />
  <path
     fill="#FFFFFF"
     d="M30,36a14.885,14.885,0,0,0,6.419-1.463c.008,0,.017,0,.024-.006.032-.015.059-.034.09-.049a14.775,14.775,0,0,0,1.341-.739c.04-.024.087-.044.126-.069.011-.007.019-.018.03-.026.237-.151.468-.307.7-.471.009-.006.02-.006.029-.012.047-.034.088-.076.135-.11q.582-.431,1.119-.913c.079-.072.159-.143.237-.216a15.155,15.155,0,0,0,1.078-1.117c.024-.028.05-.054.074-.082q.462-.542.873-1.126a.666.666,0,0,0,.05-.056c.017-.024.031-.05.048-.075.087-.126.165-.257.248-.386.156-.243.307-.489.449-.739.084-.148.163-.3.242-.45.135-.259.26-.521.379-.786.062-.137.126-.272.183-.411.167-.4.32-.812.45-1.228.011-.034.018-.07.029-.1.12-.394.221-.793.308-1.2.029-.134.052-.269.078-.405.053-.284.1-.57.136-.858.009-.071.019-.141.027-.212.012-.106.024-.212.033-.319.042-.456.07-.914.07-1.376s-.028-.92-.07-1.376c-.009-.107-.021-.213-.033-.319-.008-.071-.018-.141-.027-.212-.037-.288-.083-.574-.136-.858-.026-.136-.049-.271-.078-.405-.087-.4-.188-.8-.308-1.2-.011-.034-.018-.07-.029-.1-.13-.415-.283-.824-.45-1.228-.057-.139-.121-.274-.183-.412-.119-.265-.244-.527-.379-.785-.079-.152-.158-.3-.242-.45-.142-.25-.293-.5-.449-.739-.083-.129-.161-.26-.248-.386-.017-.025-.031-.051-.048-.075s-.031-.032-.045-.05q-.413-.588-.878-1.132c-.024-.029-.051-.055-.075-.083a15.128,15.128,0,0,0-1.077-1.116c-.078-.073-.157-.144-.237-.216q-.537-.483-1.119-.913c-.047-.034-.088-.076-.135-.11-.008-.005-.019-.006-.027-.011-.226-.163-.457-.319-.693-.47-.012-.008-.021-.021-.034-.029-.044-.028-.1-.05-.142-.078a15.031,15.031,0,0,0-1.324-.729c-.032-.015-.059-.034-.091-.049-.007,0-.016,0-.023-.006A14.992,14.992,0,1,0,30,36ZM40.984,14.084c.23.364.444.738.636,1.122.023.046.045.092.067.138.185.38.349.768.5,1.164.026.07.052.139.077.209.132.375.243.758.341,1.145.022.088.048.175.068.264.086.377.15.759.2,1.144.011.078.027.154.036.232l.012.118A12.667,12.667,0,0,1,43,21a12.848,12.848,0,0,1-.08,1.376c-.005.04-.009.081-.013.122-.009.077-.025.151-.035.228-.052.384-.115.766-.2,1.142-.021.09-.047.177-.069.266-.1.385-.207.765-.338,1.138-.025.072-.052.143-.079.214-.145.392-.307.776-.489,1.151l-.072.15c-.194.387-.408.763-.639,1.129a6.988,6.988,0,0,1,0-13.832ZM35.2,11.537l-.432-1.316a13.817,13.817,0,0,1,1.249-.733c.22.115.43.238.637.363.06.035.119.071.178.108l.38.423a1.02,1.02,0,0,0,.685.312l.067.051a12.969,12.969,0,0,1,1.677,1.583,8.984,8.984,0,0,0,0,17.344,12.933,12.933,0,0,1-1.655,1.567l-.066.049a1,1,0,0,0-.709.33l-.379.423c-.061.039-.123.076-.186.113-.205.123-.412.244-.629.358a13.684,13.684,0,0,1-1.249-.734l.432-1.316a1,1,0,0,0-.3-1.076,10.982,10.982,0,0,1-1.281-1.28,1,1,0,0,0-1.075-.3l-1.32.434a13.052,13.052,0,0,1-.884-1.506l1.049-.94a1,1,0,0,0,.274-1.084,10.719,10.719,0,0,1-.469-1.741,1,1,0,0,0-.779-.8l-1.372-.289c-.024-.31-.036-.6-.036-.877s.012-.567.036-.877l1.372-.289a1,1,0,0,0,.779-.8,10.824,10.824,0,0,1,.469-1.743,1,1,0,0,0-.274-1.083l-1.049-.939a13.112,13.112,0,0,1,.884-1.506l1.321.434a1,1,0,0,0,1.076-.3,10.982,10.982,0,0,1,1.28-1.281A1,1,0,0,0,35.2,11.537ZM30,8a12.966,12.966,0,0,1,3.706.545c-.245.161-.5.317-.725.487a1,1,0,0,0-.348,1.112l.459,1.4q-.284.267-.551.551l-1.4-.459a1.008,1.008,0,0,0-1.111.347A14.968,14.968,0,0,0,28.2,15.128a1,1,0,0,0,.253,1.137l1.113,1c-.077.249-.144.5-.2.751l-1.449.3a1,1,0,0,0-.786.858,13.726,13.726,0,0,0,0,3.652,1,1,0,0,0,.786.858l1.449.3c.06.251.127.5.2.751l-1.112,1a1,1,0,0,0-.253,1.137,15.027,15.027,0,0,0,1.837,3.147,1,1,0,0,0,1.112.348l1.4-.459q.267.284.551.551l-.459,1.4a1,1,0,0,0,.347,1.111c.226.171.481.327.726.489A13,13,0,1,1,30,8Z"
     id="path4008" />
  <path
     fill="#FFFFFF"
     d="M8,57a1,1,0,0,0,.777-.369L20.39,42.338l2.022,1.471a1,1,0,0,0,1.369-.184l3.121-3.9A18.783,18.783,0,0,0,46.9,29.652c.1,0,.2,0,.3,0l.862,1a1,1,0,0,0,.757.348,1.012,1.012,0,0,0,.2-.021,9.812,9.812,0,0,0,2.11-.708,1,1,0,0,0,.575-.816l.123-1.341c.11-.078.219-.158.324-.239l1.261.288a.993.993,0,0,0,.97-.309,10.217,10.217,0,0,0,1.3-1.826,1,1,0,0,0-.006-.99l-.669-1.153c.047-.138.089-.279.131-.422l1.2-.529a1,1,0,0,0,.591-.808,9.937,9.937,0,0,0,0-2.252,1,1,0,0,0-.591-.808l-1.2-.529c-.042-.143-.084-.284-.131-.422l.669-1.153a1,1,0,0,0,.007-.989,10.194,10.194,0,0,0-1.306-1.827,1,1,0,0,0-.97-.309l-1.26.288c-.106-.082-.215-.162-.325-.239l-.123-1.341a1,1,0,0,0-.575-.816,9.8,9.8,0,0,0-2.109-.708,1,1,0,0,0-.961.326l-.864,1c-.1,0-.2,0-.3,0a18.98,18.98,0,1,0-33,18.683l-2.675,3.344a1,1,0,0,0,.193,1.434l2.172,1.579L2.224,51.369a1,1,0,0,0,.151,1.412l5,4A.994.994,0,0,0,8,57ZM48.908,19.182c-.023-.245-.066-.484-.1-.726-.046-.34-.09-.681-.155-1.018s-.145-.654-.226-.979c-.056-.226-.109-.452-.173-.675-.114-.4-.245-.787-.384-1.173-.03-.082-.05-.166-.081-.248a1,1,0,0,0,.6-.334l.784-.909c.2.059.4.126.6.2l.112,1.224a1,1,0,0,0,.47.759,6.474,6.474,0,0,1,.885.655,1,1,0,0,0,.885.224l1.143-.262c.138.179.269.361.391.548l-.609,1.05a1,1,0,0,0-.059.884,6.742,6.742,0,0,1,.334,1.073,1,1,0,0,0,.572.693l1.1.484c.005.115.008.23.008.345s0,.23-.008.345l-1.1.484a1,1,0,0,0-.572.693,6.742,6.742,0,0,1-.334,1.073,1,1,0,0,0,.059.884l.609,1.05c-.122.187-.253.369-.391.548l-1.143-.262a.994.994,0,0,0-.885.224,6.577,6.577,0,0,1-.886.656,1,1,0,0,0-.469.758l-.112,1.224c-.2.077-.4.144-.6.2l-.782-.908a1,1,0,0,0-.6-.335c.031-.082.051-.166.081-.248.139-.386.27-.775.384-1.173.064-.223.117-.449.173-.674.081-.325.162-.649.226-.98s.109-.678.155-1.018c.033-.242.075-.481.1-.726.058-.6.092-1.208.092-1.818S48.966,19.784,48.908,19.182ZM13,21a16.986,16.986,0,0,1,32.321-7.318c.247.515.464,1.038.656,1.567.028.077.058.154.085.232.17.487.309.981.432,1.478.03.121.067.24.094.362.1.468.179.941.243,1.416.019.142.05.28.065.423a16.329,16.329,0,0,1,0,3.68c-.015.143-.046.281-.065.423-.064.475-.138.948-.243,1.416-.027.122-.064.241-.094.362-.123.5-.262.991-.432,1.478-.027.078-.057.155-.085.232-.192.529-.409,1.052-.656,1.567A16.957,16.957,0,0,1,26.66,37.667c-.354-.071-.7-.169-1.045-.261-.2-.054-.408-.1-.606-.157s-.388-.139-.583-.207c-.344-.12-.691-.234-1.024-.375-.04-.017-.076-.038-.116-.055A17.02,17.02,0,0,1,13,21Zm.435,13.807,1.64-2.05c.074.094.156.179.231.271.039.048.08.094.12.141q.525.63,1.1,1.209l.092.093A18.827,18.827,0,0,0,20.95,37.7l0,0c.488.264.988.5,1.5.724.114.05.229.1.345.145q.609.248,1.237.453c.16.053.319.11.481.159.068.02.132.047.2.066l-1.9,2.378L20.8,40.163l-.114-.083ZM15.2,38.566,18.77,41.16,7.85,54.6,4.411,51.849Z"
     id="path4010" />
</svg>
