<?xml version="1.0" encoding="UTF-8" standalone="no"?>
<svg
   xmlns:dc="http://purl.org/dc/elements/1.1/"
   xmlns:cc="http://creativecommons.org/ns#"
   xmlns:rdf="http://www.w3.org/1999/02/22-rdf-syntax-ns#"
   xmlns:svg="http://www.w3.org/2000/svg"
   xmlns="http://www.w3.org/2000/svg"
   xmlns:sodipodi="http://sodipodi.sourceforge.net/DTD/sodipodi-0.dtd"
   xmlns:inkscape="http://www.inkscape.org/namespaces/inkscape"
   version="1.1"
   x="0px"
   y="0px"
   viewBox="0 0 90 112.5"
   style="enable-background:new 0 0 90 90;"
   xml:space="preserve"
   id="svg4830"
   inkscape:version="0.91 r13725"
   sodipodi:docname="gear.svg"><metadata
     id="metadata4842"><rdf:RDF><cc:Work
         rdf:about=""><dc:format>image/svg+xml</dc:format><dc:type
           rdf:resource="http://purl.org/dc/dcmitype/StillImage" /></cc:Work></rdf:RDF></metadata><defs
     id="defs4840" /><sodipodi:namedview
     pagecolor="#ffffff"
     bordercolor="#666666"
     borderopacity="1"
     objecttolerance="10"
     gridtolerance="10"
     guidetolerance="10"
     inkscape:pageopacity="0"
     inkscape:pageshadow="2"
     inkscape:window-width="953"
     inkscape:window-height="697"
     id="namedview4838"
     showgrid="false"
     inkscape:zoom="2.0977778"
     inkscape:cx="-24.120763"
     inkscape:cy="56.25"
     inkscape:window-x="0"
     inkscape:window-y="0"
     inkscape:window-maximized="0"
     inkscape:current-layer="svg4830" /><g
     id="g4832"
     style="fill:#ffffff;fill-opacity:1"><path
       d="M79.0769,50.73999V39.26001h-7.62402c-0.68555-3.18213-1.92334-6.1709-3.68848-8.90674l5.39014-5.39014l-8.11768-8.11768   l-5.39014,5.39014c-2.73584-1.76514-5.72461-3.00293-8.90674-3.68848V10.9231H39.26001v7.62402   c-3.18213,0.68555-6.17139,1.92383-8.90625,3.68896l-5.39063-5.39063l-8.11768,8.11768l5.39063,5.39063   c-1.76465,2.73438-3.00293,5.72363-3.68848,8.90625H10.9231v11.47998h7.625c0.68506,3.18164,1.92285,6.17041,3.68799,8.90625   l-5.39063,5.39063l8.11768,8.11768l5.39063-5.39063c2.73584,1.76514,5.72461,3.00293,8.90625,3.68799v7.625h11.47998v-7.62451   c3.18262-0.68555,6.17188-1.92383,8.90625-3.68848l5.39063,5.39063l8.11768-8.11768l-5.39063-5.39063   c1.76514-2.73486,3.00342-5.72412,3.68896-8.90625H79.0769z M69.64917,49.55933c-0.64063,3.48438-1.98486,6.72998-3.99561,9.64697   l-0.47266,0.68555l5.14551,5.14502l-5.28955,5.28955l-5.14502-5.14551l-0.68555,0.47266   c-2.9165,2.01025-6.16211,3.35449-9.64697,3.99512l-0.81934,0.15039v7.27783h-7.47998v-7.27783l-0.81934-0.15039   c-3.4834-0.64014-6.729-1.98438-9.64697-3.99512l-0.68555-0.47266l-5.14502,5.14551l-5.28955-5.28955l5.14551-5.14502   l-0.47266-0.68555c-2.01074-2.91797-3.35498-6.16357-3.99512-9.64697l-0.15039-0.81934H12.9231v-7.47998h7.27783l0.15039-0.81934   c0.64063-3.48486,1.98486-6.73047,3.99512-9.64697l0.47266-0.68555l-5.14551-5.14502l5.28955-5.28955l5.14502,5.14551   l0.68555-0.47266c2.91699-2.01074,6.1626-3.35498,9.64697-3.99561l0.81934-0.15039V12.9231h7.47998v7.27734l0.81934,0.15039   c3.48389,0.64063,6.72949,1.98486,9.64746,3.99512l0.68555,0.47266l5.14453-5.14502l5.28955,5.28955l-5.14502,5.14453   l0.47266,0.68555c2.01025,2.91797,3.35449,6.16357,3.99512,9.64746l0.15039,0.81934h7.27734v7.47998h-7.27734L69.64917,49.55933z"
       id="path4834"
       style="fill:#ffffff;fill-opacity:1" /><path
       d="M45.00024,31.73804c-7.31299,0-13.26221,5.94922-13.26221,13.26221s5.94922,13.26221,13.26221,13.26221   s13.26221-5.94922,13.26221-13.26221S52.31323,31.73804,45.00024,31.73804z M45.00024,56.26245   c-6.20996,0-11.26221-5.05225-11.26221-11.26221s5.05225-11.26221,11.26221-11.26221s11.26221,5.05225,11.26221,11.26221   S51.21021,56.26245,45.00024,56.26245z"
       id="path4836"
       style="fill:#ffffff;fill-opacity:1" /></g></svg>