<svg xmlns="http://www.w3.org/2000/svg" xmlns:xlink="http://www.w3.org/1999/xlink" width="640" height="640"><defs><path d="M161.67 146.27l-.03.02-.02.02-.03.02-.03.02-.02.02-.03.02-.03.02-.02.03-.03.02-.03.02-.03.02-.02.02-.03.02-.03.02-.03.02-.02.02-.03.02-.03.02-.03.02-.02.02-.03.02-.03.02-.03.02-.02.02-.03.02-.03.02-.03.02-.03.02-.02.02-.03.02-.03.02-.03.02-.03.02-.02.02-.03.02-.03.02-.03.02-.35 3.85-.01.06-.01.07-.01.07-.01.06-.01.06-.02.07-.02.06-.02.06-.02.07-.02.06-.02.06-.03.06-.02.06-.03.06-.03.05-.03.06-.03.06-.04.05-.03.06-.04.05-.04.05-.04.05-.04.05-.04.05-.04.05-.05.05-.04.04-.05.05-.05.04-.05.04-.05.05-.05.04-.05.03-.06.04-.05.04-.06.03-.05.04-.06.03-.06.03-.06.03-.14.06-.14.06-.14.07-.14.06-.14.06-.14.06-.14.06-.14.06-.15.06-.14.06-.14.05-.14.06-.15.05-.14.06-.14.05-.15.05-.14.05-.15.05-.14.05-.15.05-.14.05-.15.05-.14.05-.15.04-.15.05-.14.04-.15.04-.15.05-.14.04-.15.04-.15.04-.15.04-.15.04-.14.03-.15.04-.15.04-.15.03-.15.04-.15.03-.15.03-.02.01H153l-.01.01h-.05l-.02.01h-.05l-.02.01h-.08l-.01.01H152.57l-.01.01-.05-.01H152.34l-.05-.01-.05-.01h-.06l-.05-.01-.05-.01-.06-.01-.05-.01-.05-.02-.05-.01-.05-.02-.05-.01-.05-.02-.05-.02-.05-.02-.05-.02-.05-.02-.05-.02-.05-.03-.05-.02-.04-.03-.05-.03-.04-.02-.05-.03-.04-.03-.05-.03-.04-.03-.04-.04-.05-.03-.04-.03-.04-.04-.04-.04-.04-.03-.03-.04-.04-.04-.04-.04-.04-.04-2.47-2.88h-.04l-.03.01h-.31l-.03.01h-.54l-.04-.01H146.9l-.03-.01h-.04l-2.48 2.88-.04.05-.05.05-.04.05-.05.04-.05.05-.05.04-.06.05-.05.04-.05.04-.06.03-.05.04-.06.03-.06.04-.05.03-.06.03-.06.03-.06.02-.06.03-.07.02-.06.03-.06.02-.06.01-.07.02-.06.02-.07.01-.06.01-.07.01-.06.01-.07.01h-.06l-.07.01h-.2l-.07-.01h-.07l-.06-.01-.07-.01-.07-.01-.06-.01-.15-.04-.15-.03-.15-.04-.15-.03-.15-.04-.15-.03-.15-.04-.15-.04-.14-.04-.15-.04-.15-.04-.15-.04-.14-.04-.15-.05-.15-.04-.14-.05-.15-.04-.15-.05-.14-.05-.15-.04-.14-.05-.15-.05-.14-.05-.15-.06-.14-.05-.14-.05-.15-.06-.14-.05-.14-.06-.14-.05-.15-.06-.14-.06-.14-.06-.14-.06-.14-.06-.14-.06-.14-.06-.14-.06-.14-.07-.14-.06-.06-.03-.06-.03-.06-.03-.06-.04-.05-.03-.06-.04-.05-.03-.05-.04-.06-.04-.05-.04-.05-.05-.04-.04-.05-.04-.05-.05-.04-.05-.04-.04-.05-.05-.04-.05-.04-.06-.03-.05-.04-.05-.04-.06-.03-.05-.03-.06-.03-.05-.03-.06-.03-.06-.03-.06-.02-.06-.03-.06-.02-.06-.02-.06-.02-.07-.01-.06-.02-.06-.01-.07-.02-.06-.01-.07v-.06l-.01-.07-.35-3.85-.03-.02-.03-.02-.03-.02-.03-.02-.02-.02-.03-.02-.03-.02-.03-.02-.03-.02-.02-.02-.03-.02-.03-.02-.03-.02-.03-.02-.02-.02-.03-.02-.03-.02-.03-.02-.02-.02-.03-.02-.03-.02-.03-.02-.02-.02-.03-.02-.03-.02-.03-.02-.02-.02-.03-.02-.03-.02-.03-.02-.02-.02-.03-.03-.03-.02-.02-.02-.03-.02-.03-.02-.02-.02-.03-.02-.03-.02-.02-.02-3.63.83-.07.01-.07.02-.06.01-.07.01h-.07l-.06.01h-.34l-.06-.01-.07-.01h-.06l-.07-.02-.06-.01-.07-.01-.06-.02-.07-.01-.06-.02-.06-.02-.06-.03-.06-.02-.07-.03-.06-.02-.05-.03-.06-.03-.06-.04-.06-.03-.05-.03-.06-.04-.05-.04-.06-.04-.05-.04-.05-.04-.05-.05-.05-.04-.05-.05-.05-.05-.04-.05-.11-.12-.1-.11-.1-.12-.1-.12-.1-.11-.1-.12-.1-.12-.1-.12-.1-.12-.1-.12-.09-.12-.1-.12-.09-.12-.1-.13-.09-.12-.1-.12-.09-.13-.09-.12-.09-.13-.09-.12-.09-.13-.09-.13-.09-.12-.09-.13-.08-.13-.09-.13-.09-.13-.08-.12-.09-.13-.08-.14-.08-.13-.08-.13-.09-.13-.08-.13-.08-.13-.08-.14-.07-.13-.08-.13-.08-.14-.07-.13-.04-.06-.03-.06-.02-.06-.03-.06-.02-.06-.03-.06-.02-.06-.02-.06-.02-.07-.01-.06-.02-.06-.01-.06-.01-.07-.01-.06-.01-.06-.01-.07v-.06l-.01-.07v-.25l.01-.06.01-.07v-.06l.01-.07.01-.06.02-.06.01-.06.02-.07.01-.06.02-.06.02-.06.03-.06.02-.06.03-.06.02-.06.03-.06.03-.06.04-.06 1.92-3.31-.01-.03-.01-.04-.01-.03-.02-.04-.01-.03-.01-.03-.01-.04-.01-.03-.01-.04-.02-.03-.01-.04-.01-.03-.01-.03-.01-.04-.01-.03-.01-.04-.01-.03-.01-.04-.02-.03-.01-.04-.01-.03-.01-.04-.01-.03-.01-.04-.01-.03-.01-.04-.01-.03-.01-.04-.01-.03-.01-.04-.01-.04-.01-.03-.02-.04-.01-.03-.01-.04-.01-.03-.01-.04-.01-.04-.01-.03-.01-.04-3.45-1.52-.06-.03-.06-.03-.06-.03-.06-.03-.05-.03-.06-.04-.05-.04-.06-.03-.05-.04-.05-.04-.05-.04-.05-.05-.05-.04-.05-.05-.04-.04-.05-.05-.04-.05-.04-.05-.04-.05-.04-.05-.04-.05-.03-.06-.04-.05-.03-.06-.03-.06-.03-.05-.03-.06-.03-.06-.03-.06-.02-.06-.02-.06-.03-.06-.02-.07-.01-.06-.02-.06-.01-.07-.02-.06-.01-.07-.01-.06-.01-.07-.01-.15-.02-.16-.02-.15-.01-.16-.01-.15-.02-.16-.01-.15-.01-.16-.01-.15-.01-.16-.01-.15v-.16l-.01-.15-.01-.16v-.15l-.01-.15v-1.25l.01-.15v-.16l.01-.15.01-.15v-.16l.01-.15.01-.16.01-.15.01-.16.01-.15.02-.16.01-.15.01-.16.02-.15.02-.16.01-.15.01-.07.01-.06.01-.07.02-.06.01-.07.02-.06.01-.06.02-.07.03-.06.02-.06.02-.06.03-.06.03-.06.03-.06.03-.05.03-.06.03-.06.04-.05.03-.06.04-.05.04-.05.04-.05.04-.05.04-.05.05-.05.04-.04.05-.05.05-.04.05-.05.05-.04.05-.04.05-.04.06-.03.05-.04.06-.04.05-.03.06-.03.06-.03.06-.03.06-.03 3.45-1.52.01-.04.01-.03.01-.04.01-.04.01-.03.01-.04.01-.03.02-.04.01-.04.01-.03.01-.04.01-.03.01-.04.01-.03.01-.04.01-.03.01-.04.01-.03.01-.04.01-.03.01-.04.02-.03.01-.04.01-.03.01-.04.01-.03.01-.04.01-.03.01-.04.01-.03.02-.04.01-.03.01-.03.01-.04.01-.03.01-.04.02-.03.01-.03.01-.04.01-.03-1.92-3.31-.03-.06-.04-.06-.02-.06-.03-.06-.03-.06-.02-.06-.02-.06-.03-.06-.01-.06-.02-.06-.02-.06-.01-.07-.02-.06-.01-.06-.01-.07v-.06l-.01-.06-.01-.07v-.25l.01-.07v-.06l.01-.06.01-.07.01-.06.01-.06.01-.07.02-.06.01-.06.02-.06.02-.07.02-.06.03-.06.02-.06.03-.06.03-.06.03-.06.03-.05.07-.14.08-.13.08-.14.08-.13.08-.13.08-.14.08-.13.08-.13.08-.13.08-.13.09-.13.08-.13.08-.13.09-.13.09-.13.08-.13.09-.13.09-.12.09-.13.09-.13.09-.12.09-.13.09-.12.09-.13.1-.12.09-.12.1-.13.09-.12.1-.12.09-.12.1-.12.1-.12.1-.12.1-.12.1-.12.1-.11.1-.12.1-.12.1-.11.11-.12.04-.05.05-.05.05-.05.05-.04.05-.05.05-.04.05-.04.06-.04.05-.04.05-.04.06-.03.06-.03.06-.04.05-.03.06-.03.06-.02.06-.03.07-.02.06-.02.06-.03.06-.01.07-.02.06-.02.07-.01.06-.01.07-.01.06-.01.07-.01.06-.01h.34l.06.01h.07l.07.01.06.01.07.02.07.01 3.63.83.02-.02.03-.02.03-.02.02-.02.03-.02.03-.02.02-.03.03-.02.03-.02.02-.02.03-.02.03-.02.03-.02.02-.02.03-.02.03-.02.02-.02.03-.02.03-.02.03-.02.02-.02.03-.02.03-.02.03-.02.03-.02.02-.02.03-.02.03-.02.03-.02.03-.02.02-.02.03-.02.03-.02.03-.02.03-.02.02-.02.03-.02.03-.02.03-.02.03-.02.35-3.85.01-.07v-.06l.01-.07.02-.06.01-.07.02-.06.01-.06.02-.07.02-.06.02-.06.03-.06.02-.06.03-.06.03-.06.03-.06.03-.05.03-.06.03-.05.04-.06.04-.05.03-.05.04-.06.04-.05.05-.05.04-.04.04-.05.05-.05.05-.04.04-.04.05-.05.05-.04.06-.04.05-.04.05-.03.06-.04.05-.03.06-.04.06-.03.06-.03.06-.03.14-.06.14-.07.14-.06.14-.06.14-.06.14-.06.14-.06.14-.06.14-.06.15-.06.14-.05.14-.06.14-.05.15-.06.14-.05.14-.05.15-.06.14-.05.15-.05.14-.05.15-.04.14-.05.15-.05.15-.04.14-.05.15-.04.15-.05.14-.04.15-.04.15-.04.15-.04.14-.04.15-.04.15-.04.15-.03.15-.04.15-.03.15-.04.15-.03.15-.04.06-.01.07-.01.07-.01.06-.01h.07l.07-.01h.27l.06.01h.07l.06.01.07.01.06.02.07.01.06.01.07.02.06.02.06.02.07.02.06.03.06.02.06.03.06.03.06.03.06.03.05.03.06.04.05.03.06.04.05.04.06.04.05.04.05.05.05.04.05.05.04.05.05.05.04.05 2.48 2.88h.04l.03-.01H147.2l.04-.01h.54l.03.01H148.12l.03.01h.04l2.47-2.88.05-.05.05-.05.04-.05.05-.05.05-.04.05-.05.05-.04.06-.04.05-.04.06-.04.05-.03.06-.04.05-.03.06-.03.06-.03.06-.03.06-.03.06-.02.06-.03.07-.02.06-.02.06-.02.07-.02.06-.01.06-.02.07-.01.07-.01.06-.01h.07l.06-.01h.34l.06.01.07.01.07.01.07.01.06.01.15.03.15.04.15.03.15.04.15.03.15.04.15.04.15.04.14.04.15.04.15.04.15.04.14.04.15.04.15.05.14.04.15.05.15.05.14.04.15.05.14.05.15.05.14.05.15.05.14.06.14.05.15.05.14.06.14.05.14.06.15.06.14.06.14.05.14.06.14.06.14.07.14.06.14.06.14.06.14.07.06.03.06.03.06.03.06.03.05.04.06.03.05.04.05.04.06.04.05.04.05.04.04.05.05.04.05.05.04.04.04.05.05.05.04.05.04.05.03.06.04.05.04.05.03.06.03.05.03.06.03.06.03.06.03.06.02.06.03.06.02.06.02.06.02.06.01.07.02.06.01.06.01.07.01.07.01.06.01.07.35 3.85.03.02.03.02.03.02.03.02.02.02.03.02.03.02.03.02.03.02.02.02.03.02.03.02.03.02.02.02.03.02.03.02.03.02.03.02.02.02.03.02.03.02.03.02.02.02.03.02.03.02.03.02.02.02.03.02.03.02.02.02.03.02.03.02.03.02.02.02.03.02.03.03.02.02.03.02.03.02.02.02 3.63-.83.07-.02.06-.01.07-.01.07-.01.07-.01h.06l.07-.01h.2l.07.01h.06l.07.01.06.01.07.01.06.01.07.02.06.01.07.02.06.02.06.02.06.02.06.03.07.02.06.03.05.03.06.03.06.03.06.03.05.04.06.04.05.04.06.04.05.04.05.04.05.04.05.05.05.05.05.05.04.05.11.11.1.12.1.12.1.11.1.12.1.12.1.12.1.12.1.12.1.12.09.12.1.12.09.12.1.12.09.13.1.12.09.13.09.12.09.12.09.13.09.13.09.12.09.13.09.13.08.13.09.12.09.13.08.13.08.13.09.13.08.13.08.13.08.14.09.13.08.13.07.13.08.14.08.13.08.14.07.13.04.06.02.06.03.06.03.06.02.06.03.06.02.06.02.06.02.06.01.07.02.06.01.06.01.06.01.07.01.06.01.06v.07l.01.06v.19l-.01.07v.06l-.01.07v.06l-.01.06-.01.07-.02.06-.01.06-.02.06-.01.07-.02.06-.02.06-.03.06-.02.06-.03.06-.02.06-.03.06-.03.06-.04.05-1.92 3.32.01.03.01.04.01.03.02.03.01.04.01.03.01.04.01.03.01.03.01.04.02.03.01.04.01.03.01.04.01.03.01.04.01.03.01.04.02.03.01.03.01.04.01.03.01.04.01.04.01.03.01.04.01.03.01.04.01.03.01.04.01.03.01.04.01.03.01.04.02.04.01.03.01.04.01.03.01.04.01.04 3.45 1.52.06.03.06.03.06.03.06.03.05.03.06.04.05.03.05.04.06.04.05.04.05.04.05.05.04.04.05.05.05.04.04.05.04.05.04.05.04.05.04.05.04.05.03.06.04.05.03.06.03.05.03.06.03.06.03.06.03.06.02.06.02.06.02.06.02.06.02.07.02.06.01.06.02.07.01.06.01.07v.07l.02.15.02.16.01.15.02.15.01.16.01.15.02.16.01.15.01.16.01.15v.16l.01.15.01.16v.15l.01.16v.15l.01.16v.93l-.01.15v.16l-.01.15v.16l-.01.15-.01.16v.15l-.01.16-.01.15-.01.16-.02.15-.01.16-.01.15-.02.15-.01.16-.02.15-.02.16v.06l-.01.07-.02.07-.01.06-.01.07-.02.06-.02.06-.02.06-.02.07-.02.06-.03.06-.02.06-.03.06-.03.05-.03.06-.03.06-.03.05-.04.06-.04.05-.03.06-.04.05-.04.05-.04.05-.05.05-.04.04-.05.05-.04.05-.05.04-.05.04-.05.04-.05.04-.05.04-.06.04-.05.04-.06.03-.06.04-.05.03-.06.03-.06.03-.06.03-3.46 1.52-.01.03-.01.04-.01.04-.01.03-.01.04-.01.04-.01.03-.01.04-.01.03-.01.04-.01.03-.01.04-.01.03-.01.04-.01.04-.01.03-.01.04-.01.03-.02.04-.01.03-.01.04-.01.03-.01.04-.01.03-.01.04-.01.03-.01.03-.02.04-.01.03-.01.04-.01.03-.01.04-.01.03-.01.04-.02.03-.01.03-.01.04-.01.03-.01.04-.01.03 1.92 3.31.03.06.03.06.03.05.03.06.02.06.03.06.02.06.02.07.02.06.02.06.02.06.01.06.01.07.01.06.01.06.01.07.01.06v.13l.01.06v.07l-.01.06v.13l-.01.06-.01.07-.01.06-.01.06-.02.07-.01.06-.02.06-.02.06-.02.06-.02.06-.02.07-.03.06-.02.06-.03.05-.03.06-.03.06-.08.14-.07.13-.08.13-.08.14-.08.13-.08.13-.08.14-.08.13-.08.13-.09.13-.08.13-.08.13-.09.13-.08.13-.09.13-.09.13-.08.12-.09.13-.09.13-.09.12-.09.13-.09.12-.09.13-.1.12-.09.13-.09.12-.1.12-.09.12-.1.13-.1.12-.09.12-.1.12-.1.12-.1.12-.1.11-.1.12-.1.12-.1.12-.11.11-.1.12-.04.05-.05.05-.05.04-.05.05-.05.04-.05.05-.05.04-.06.04-.05.04-.06.03-.05.04-.06.03-.06.04-.06.03-.06.02-.06.03-.06.03-.06.02-.06.02-.06.03-.07.01-.06.02-.06.02-.07.01-.06.01-.07.01-.06.01-.07.01-.07.01h-.33l-.07-.01-.06-.01h-.07l-.07-.02-.06-.01-.07-.01-3.63-.83-.03.02-.02.02-.03.02zm-10.54-38.33l-.05.06-.05.05-.05.04-.05.05-.05.05-.06.04-.05.04-.06.04-.06.04-.06.04-.05.04-.07.03-.06.03-.06.03-.06.03-.07.03-.06.02-.06.03-.07.02-.07.02-.06.01-.07.02-.07.01-.07.02-.07.01h-.07l-.07.01-.07.01H149.2l-.07-.01h-.07l-.09-.01-.09-.01h-.09l-.09-.01-.09-.01h-.09l-.09-.01h-.18l-.09-.01h-.18l-.09-.01H147.17l-.09.01h-.19l-.09.01h-.18l-.09.01h-.09l-.09.01-.09.01h-.09l-.09.01-.09.01h-.07l-.07.01h-.14l-.07-.01h-.07l-.07-.01h-.07l-.07-.01-.07-.02-.06-.01-.07-.02-.07-.01-.07-.02-.06-.03-.07-.02-.06-.02-.06-.03-.07-.03-.06-.03-.06-.03-.06-.04-.06-.03-.06-.04-.06-.04-.05-.04-.06-.04-.05-.04-.06-.05-.05-.05-.05-.04-.05-.06-.05-.05-.04-.05-2.29-2.66-.06.02-.06.01-.06.02-.06.02-.06.02-.06.01-.06.02-.06.02-.06.02-.06.02-.06.02-.06.02-.05.01-.06.02-.06.02-.06.02-.06.02-.06.02-.06.02-.06.03-.06.02-.06.02-.06.02-.06.02-.06.02-.06.02-.06.03-.05.02-.06.02-.06.02-.06.03-.06.02-.06.02-.06.03-.32 3.56-.01.07-.01.07-.01.07-.01.06-.02.07-.01.07-.02.06-.02.07-.02.06-.03.07-.02.06-.03.06-.03.06-.03.06-.03.06-.03.06-.04.06-.03.06-.04.05-.04.06-.04.05-.05.05-.04.06-.04.05-.05.05-.05.04-.05.05-.05.05-.05.04-.05.04-.06.04-.06.04-.05.04-.06.04-.08.05-.08.05-.07.05-.08.04-.08.05-.07.05-.08.05-.08.06-.07.05-.08.05-.07.05-.08.05-.07.05-.08.06-.07.05-.08.05-.07.06-.07.05-.08.06-.07.05-.07.06-.07.05-.08.06-.07.06-.07.05-.07.06-.07.06-.07.06-.07.05-.07.06-.07.06-.07.06-.07.06-.07.06-.06.05-.05.04-.06.04-.05.05-.06.03-.06.04-.06.04-.06.03-.06.03-.06.04-.07.02-.06.03-.07.03-.06.02-.07.02-.06.02-.07.02-.07.02-.06.01-.07.01-.07.01-.07.01-.07.01h-.07l-.07.01h-.13l-.07-.01h-.07l-.07-.01-.07-.01-.07-.01-.07-.01-.07-.02-3.35-.76-.04.05-.04.05-.04.05-.05.06-.04.05-.04.05-.04.06-.04.05-.04.05-.03.05-.04.06-.04.05-.04.05-.04.06-.04.05-.04.05-.04.06-.03.05-.04.06-.04.05-.04.05-.04.06-.03.05-.04.06-.04.05-.03.05-.04.06-.04.05-.03.06-.04.05-.04.06-.03.05-.04.06-.03.05 1.78 3.06.03.06.03.06.03.07.03.06.03.06.02.06.02.07.03.06.01.06.02.07.02.06.01.07.02.07.01.06v.07l.01.07.01.06v.34l-.01.06-.01.07-.01.07-.01.06-.01.07-.01.07-.02.06-.02.07-.02.06-.02.07-.02.06-.03.06-.03.09-.04.09-.03.08-.04.09-.03.09-.03.09-.03.08-.04.09-.03.09-.03.09-.03.08-.03.09-.03.09-.03.09-.03.09-.03.09-.02.08-.03.09-.03.09-.02.09-.03.09-.03.09-.02.09-.03.09-.02.09-.03.09-.02.09-.02.09-.02.09-.03.09-.02.09-.02.09-.02.09-.02.09-.02.07-.02.07-.02.06-.02.07-.02.06-.03.07-.02.06-.03.06-.03.06-.03.06-.04.06-.03.06-.04.06-.04.06-.04.05-.04.06-.04.05-.04.05-.05.05-.05.05-.04.05-.05.05-.05.04-.06.05-.05.04-.05.04-.06.04-.06.04-.05.04-.06.03-.06.03-.06.04-.07.03-.06.03-3.21 1.41v.13l-.01.04v.2l-.01.03V126.98l-.01.03V127.83l.01.04v.3l.01.03v.2l.01.03v.13l3.21 1.42.06.03.07.03.06.03.06.03.06.04.05.04.06.04.06.04.05.04.05.04.06.04.05.05.05.05.04.04.05.05.05.05.04.06.04.05.04.05.04.06.04.05.04.06.03.06.04.06.03.06.03.06.03.06.02.07.03.06.02.07.02.06.02.07.02.06.02.07.02.09.02.09.02.09.02.09.02.09.03.09.02.1.02.08.03.09.02.09.03.09.02.09.03.09.03.09.02.09.03.09.03.09.02.09.03.09.03.08.03.09.03.09.03.09.03.09.03.08.03.09.04.09.03.09.03.08.03.09.04.09.03.08.04.09.03.09.03.06.02.06.02.07.02.06.02.07.02.06.01.07.01.07.02.06v.07l.01.07.01.06v.34l-.01.07v.06l-.01.07-.01.07-.02.06-.01.07-.02.06-.01.07-.02.06-.03.07-.02.06-.02.06-.03.07-.03.06-.03.06-.03.06-.03.06-1.78 3.06.03.06.04.05.03.06.04.05.04.06.03.05.04.06.04.05.03.06.04.05.04.05.03.06.04.05.04.06.04.05.04.05.03.06.04.05.04.05.04.06.04.05.04.05.04.06.04.05.04.05.04.06.03.05.04.05.05.05.04.06.04.05.04.05.04.05.04.06 3.32-.79.07-.02.07-.01.07-.01.07-.01.07-.01H134.1l.07.01.07.01.06.01.07.01.07.02.07.01.06.02.07.02.07.02.06.03.07.02.06.03.06.03.06.03.07.03.06.04.06.03.06.04.05.04.06.04.06.04.05.05.06.04.07.06.06.06.07.06.07.06.07.06.07.06.07.06.08.05.07.06.07.06.07.06.07.05.07.06.08.05.07.06.07.05.08.06.07.05.07.05.08.06.07.05.08.05.07.06.08.05.07.05.08.05.08.05.07.05.08.05.08.05.07.05.08.05.08.05.08.04.05.04.06.04.06.04.05.04.06.05.05.04.05.04.05.05.05.05.04.05.05.05.04.05.04.05.05.06.04.05.03.06.04.06.03.05.04.06.03.06.03.06.03.06.02.07.03.06.02.06.02.07.02.06.02.07.02.06.01.07.02.07.01.07.01.06v.07l.33 3.57.06.02.06.03.05.02.06.02.06.02.06.03.06.02.06.02.06.02.06.02.06.02.06.03.06.02.06.02.06.02.06.02.06.02.05.02.06.02.06.02.06.02.06.02.06.02.06.02.06.01.06.02.06.02.06.02.06.02.06.01.06.02.06.02.05.02.06.01 2.29-2.65.05-.06.05-.05.05-.05.05-.05.05-.05.06-.04.05-.04.05-.05.06-.04.06-.04.06-.03.06-.04.06-.03.06-.04.06-.03.06-.02.07-.03.06-.03.07-.02.06-.02.07-.02.07-.02.06-.01.07-.02.07-.01.07-.01.07-.01.07-.01H145.9l.07.01.09.01h.09l.09.01.09.01h.09l.09.01h.09l.09.01h.18l.09.01H148.05l.09-.01h.18l.09-.01h.09l.09-.01h.09l.09-.01.09-.01h.09l.09-.01H149.39l.06.01h.06l.07.01.06.01.06.01.07.01.06.01.06.02.06.01.06.02.06.02.06.02.06.03.05.02.06.02.06.03.05.03.06.03.05.03.06.03.05.04.05.03.06.04.05.04.05.04.04.04.05.04.05.04.04.04.05.05.04.05.04.05 2.3 2.65.05-.01.06-.02.06-.02.06-.01.06-.02.06-.02.06-.02.06-.02.06-.01.06-.02.06-.02.06-.02.06-.02.06-.02.06-.02.05-.02.06-.02.06-.02.06-.02.06-.02.06-.02.06-.02.06-.02.06-.03.06-.02.06-.02.06-.02.06-.02.06-.03.06-.02.05-.02.06-.02.06-.03.06-.02.33-3.57.01-.07v-.06l.02-.07.01-.07.01-.07.02-.06.02-.07.02-.06.02-.07.02-.06.03-.06.02-.07.03-.06.03-.06.03-.06.04-.06.03-.05.04-.06.04-.06.03-.05.05-.06.04-.05.04-.05.05-.05.04-.05.05-.05.05-.04.05-.05.05-.04.06-.05.05-.04.06-.04.05-.04.06-.04.08-.04.08-.05.08-.05.07-.05.08-.05.08-.05.07-.05.08-.05.07-.05.08-.05.08-.05.07-.06.08-.05.07-.05.07-.06.08-.05.07-.05.08-.06.07-.05.07-.06.07-.05.08-.06.07-.06.07-.05.07-.06.07-.06.07-.05.07-.06.08-.06.07-.06.07-.06.06-.06.07-.06.07-.06.06-.04.05-.05.06-.04.05-.04.06-.04.06-.04.06-.04.06-.03.06-.03.06-.03.07-.03.06-.03.07-.02.06-.03.07-.02.06-.02.07-.02.07-.01.06-.02.07-.01.07-.01.07-.01.07-.01H161.26l.07.01h.07l.06.01.07.01.07.02.07.01 3.35.77.04-.05.05-.06.04-.05.04-.05.04-.05.04-.06.04-.05.04-.05.04-.06.04-.05.04-.05.04-.06.03-.05.04-.05.04-.06.04-.05.04-.05.04-.06.03-.05.04-.05.04-.06.04-.05.03-.06.04-.05.04-.05.04-.06.03-.05.04-.06.03-.05.04-.06.04-.05.03-.06.04-.05.03-.06-1.77-3.06-.04-.06-.03-.06-.03-.06-.03-.06-.02-.06-.03-.07-.02-.06-.02-.07-.02-.06-.02-.06-.02-.07-.01-.07-.01-.06-.01-.07-.01-.06-.01-.07-.01-.07v-.26l.01-.07v-.07l.01-.07.01-.06.01-.07.01-.06.02-.07.01-.07.02-.06.02-.07.02-.06.03-.07.02-.06.04-.09.03-.08.03-.09.04-.09.03-.08.03-.09.04-.09.03-.09.03-.08.03-.09.03-.09.03-.09.03-.08.03-.09.03-.09.03-.09.03-.09.02-.09.03-.09.03-.09.02-.09.03-.08.02-.09.03-.09.02-.09.03-.09.02-.09.02-.09.03-.09.02-.09.02-.1.02-.09.02-.09.02-.09.02-.07.02-.06.02-.07.02-.06.02-.07.03-.06.03-.07.02-.06.03-.06.04-.06.03-.06.03-.06.04-.06.04-.05.04-.06.04-.05.04-.05.05-.06.04-.05.05-.05.05-.04.04-.05.06-.05.05-.04.05-.04.05-.04.06-.04.06-.04.06-.04.05-.04.06-.03.07-.03.06-.03.06-.03.04-.02.04-.02.06-.02.07-.03.08-.04.09-.04.1-.04.1-.05.11-.05.12-.05.12-.05.13-.06.13-.05.13-.06.14-.06.13-.06.14-.06.13-.06.13-.05.13-.06.13-.06.12-.05.12-.05.11-.05.1-.05.1-.04.09-.04.08-.03.07-.03.06-.03.05-.02.03-.01.02-.01.01-.01v-.06l.01-.04v-.06l.01-.04v-.09l.01-.04v-.13l.01-.03v-.17l.01-.03v-.28l.01-.03V127.22l-.01-.04v-.4l-.01-.03V126.51l-.01-.03v-.17l-.01-.03-3.2-1.41-.07-.03-.06-.03-.06-.04-.06-.03-.06-.03-.06-.04-.05-.04-.06-.04-.05-.04-.06-.04-.05-.05-.05-.04-.05-.05-.05-.05-.04-.05-.05-.05-.04-.05-.05-.05-.04-.06-.04-.05-.03-.06-.04-.06-.04-.06-.03-.06-.03-.06-.03-.06-.03-.06-.03-.06-.02-.07-.03-.06-.02-.07-.02-.06-.02-.07-.01-.07-.02-.09-.02-.09-.02-.09-.03-.09-.02-.09-.02-.09-.02-.09-.03-.09-.02-.09-.03-.09-.02-.09-.03-.09-.02-.09-.03-.09-.02-.09-.03-.08-.03-.09-.03-.09-.03-.09-.02-.09-.03-.09-.03-.09-.03-.08-.03-.09-.04-.09-.03-.09-.03-.08-.03-.09-.03-.09-.04-.08-.03-.09-.03-.09-.04-.08-.03-.09-.03-.06-.02-.07-.03-.06-.02-.07-.01-.06-.02-.07-.01-.07-.02-.06-.01-.07-.01-.07v-.06l-.01-.07v-.07l-.01-.06v-.07l.01-.07v-.13l.01-.07.01-.06.01-.07.01-.07.02-.06.01-.07.02-.06.02-.07.02-.06.03-.06.02-.07.03-.06.03-.06.03-.06.03-.06.03-.06 1.78-3.07-.03-.05-.04-.06-.04-.05-.03-.06-.04-.05-.04-.06-.03-.05-.04-.06-.04-.05-.03-.05-.04-.06-.04-.05-.04-.06-.03-.05-.04-.06-.04-.05-.04-.05-.04-.06-.03-.05-.04-.05-.04-.06-.04-.05-.04-.05-.04-.06-.04-.05-.04-.05-.04-.05-.04-.06-.04-.05-.04-.05-.04-.05-.04-.06-.04-.05-.04-.05-3.35.77-.07.01-.07.01-.07.01-.07.01-.07.01h-.07l-.07.01h-.14l-.07-.01h-.07l-.06-.01-.07-.01-.07-.01-.07-.01-.07-.01-.06-.02-.07-.02-.07-.02-.06-.02-.07-.02-.06-.03-.07-.03-.06-.02-.06-.04-.06-.03-.06-.03-.06-.04-.06-.04-.06-.03-.06-.05-.06-.04-.05-.04-.05-.05-.07-.06-.07-.06-.07-.06-.07-.06-.07-.06-.07-.05-.07-.06-.07-.06-.08-.06-.07-.05-.07-.06-.07-.06-.07-.05-.08-.06-.07-.05-.07-.06-.08-.05-.07-.06-.07-.05-.08-.05-.07-.06-.08-.05-.07-.05-.08-.05-.07-.05-.08-.06-.07-.05-.08-.05-.08-.05-.07-.05-.08-.04-.08-.05-.08-.05-.07-.05-.06-.04-.06-.04-.06-.04-.05-.04-.05-.04-.06-.04-.05-.05-.05-.05-.04-.05-.05-.04-.05-.05-.04-.06-.04-.05-.04-.05-.04-.06-.04-.05-.04-.06-.03-.06-.03-.06-.04-.06-.03-.06-.02-.06-.03-.06-.03-.06-.02-.07-.02-.06-.02-.07-.02-.06-.02-.07-.01-.07-.01-.06-.01-.07-.01-.07-.01-.07-.32-3.56-.06-.03-.06-.02-.06-.02-.06-.03-.06-.02-.06-.02-.06-.02-.06-.02-.06-.03-.06-.02-.06-.02-.06-.02-.06-.02-.06-.02-.05-.02-.06-.02-.06-.02-.06-.02-.06-.02-.06-.02-.06-.02-.06-.02-.06-.02-.06-.02-.06-.02-.06-.02-.06-.02-.06-.01-.06-.02-.06-.02-.05-.02-.06-.01-.06-.02-.06-.02-2.29 2.66-.05.05z" id="a"/><path d="M150.19 115.22l1.27.35 1.21.48 1.15.59 1.07.71.99.8.91.91.8.99.71 1.07.59 1.15.48 1.21.35 1.26.22 1.32.07 1.36-.07 1.36-.22 1.32-.35 1.27-.47 1.21-.6 1.15-.7 1.07-.81.99-.9.91-1 .8-1.07.71-1.15.59-1.21.48-1.27.35-1.32.21-1.36.07-1.36-.07-1.32-.21-1.27-.35-1.21-.48-1.15-.59-1.07-.71-1-.8-.9-.91-.81-.99-.7-1.07-.6-1.15-.47-1.21-.35-1.27-.22-1.32-.07-1.36.07-1.36.22-1.32.35-1.27.47-1.21.6-1.14.7-1.08.81-.99.9-.9 1-.81 1.07-.7 1.15-.6 1.21-.47 1.27-.35 1.32-.22 1.36-.07 1.36.08 1.32.21zm-5.3 5.18l-1.17.55-1.04.74-.91.9-.74 1.05-.55 1.17-.35 1.27-.12 1.34.12 1.35.35 1.27.55 1.17.74 1.04.91.9 1.04.74 1.17.56 1.27.35 1.35.12 1.35-.12 1.27-.35 1.17-.56 1.04-.74.91-.9.74-1.04.55-1.17.35-1.27.12-1.35-.12-1.34-.35-1.27-.55-1.17-.74-1.05-.91-.9-1.04-.74-1.17-.55-1.27-.35-1.35-.12-1.35.12-1.27.35z" id="b"/><path d="M98.09 15.15l1.46.15 1.46.21 1.45.26 1.46.33 1.45.39 1.44.45 1.43.5 1.42.58 1.41.63.01.01h.05v.01h.01l.02.01.01.01h.01l.02.01.01.01h.01l.03.02.02.01.01.01.02.01h.01l.01.01.02.01h.01v.01l.09.04.08.04.09.04.08.04.09.05.08.04.09.04.08.04.08.05.09.04.08.04.09.05.08.04.08.05.09.04.08.04.08.05.09.04.08.05.08.05.09.04.08.05.08.04.08.05.08.05.09.04.08.05.08.05.08.04.08.05.09.05.08.05.08.04.08.05.08.05.08.05.08.05.08.05.08.05.08.05h.01l.01.01h.01l.01.01h.01v.01l.02.01h.01l.01.01h.01l.01.01h.01v.01l.02.01.03.01.04.02.03.01.01.01.02.01.01.01h.01l.01.01h.01l.01.01h.01v.01l.02.01h.01l.01.01h.01v.01h.01v.01l.03.03h.01l.01.01.05.03.04.03.05.03.04.03.05.03.04.03.04.02.05.03.04.03.04.03.05.03.04.03.05.03.04.03.04.02.05.03.04.03.04.03.05.03.04.03.04.03.05.03.04.03.04.03.05.03.04.03.04.03.05.03.04.03.04.03.04.03.05.03.04.03.04.03.04.03.05.03.04.03.04.03.04.03.05.03.01.01h.01l.02.01h.02v.01h.01l.01.01.01.01h.01l.01.01.02.01v.01l.01.01h.01l.01.01.02.01.01.02.03.02.02.02.03.02.01.02.02.01.02.01v.01l.01.01.01.01h.01l.02.02h.01v.01l.01.01h.01l.02.02.03.02.03.02.03.03.04.03.04.02.04.04.04.03.05.04.05.03.05.04.06.05.05.04.06.05.07.05.06.05.07.05.07.05.07.06.07.06.08.05.08.07.07.06.09.06.08.07.08.07.09.07.09.07.09.07.09.08.09.08.09.07.09.08.1.08.1.09.09.08.1.09.1.08.1.09.1.09.07.07.06.05.05.04.01.02.05.04.04.04.05.04.01.01.02.02.01.01.02.01.01.02.02.01.01.01.02.02.01.01.03.03.03.02.03.03.03.03.01.01.07.07.07.06.07.07.07.07.07.07.07.06.07.07.07.07.07.07.07.06.07.07.07.07.07.07.07.07.07.07.06.06.07.07.07.07.07.07.06.07.07.07.07.07.07.07.06.07.07.07.07.07.06.07.07.08.06.07.07.07.06.07.07.07.06.07.07.07.06.08.07.07.06.07.07.07.06.08.07.07.01.02.01.01.01.01.01.01.01.01.02.02.03.03.01.01.01.01.01.01.01.01.01.02.01.01v.01l.01.01.01.01.02.02.02.03.02.02.03.04.03.03.03.04.03.04.04.04.03.04.04.05.04.05.05.06.04.05.05.06.05.06.05.06.06.07.05.07.06.06.06.08.06.07.06.08.06.08.06.08.07.08.06.08.07.09.07.09.07.09.07.09.07.1.07.09.08.1.07.1.08.1.07.11.08.1.07.11.08.11.08.11.01.01.01.01v.01h.01l.02.03h.01l.01.01.01.01v.01h.01v.01h.01v.01l.01.01.01.01.01.01v.01l.01.02.01.02.01.01.02.02.01.03.02.02v.01l.01.01.01.02.02.02.01.03.02.02.02.02.01.03.02.02.01.02.02.03.01.02.02.03.02.02.01.02.02.03.01.02.02.03.01.02.02.03.01.02.03.05.02.02.03.05.03.05.05.07.04.07.02.03.03.05.01.02.02.03.01.02.02.02.01.03.02.02.03.05.03.04.03.05.03.04.03.05.03.04.02.05.03.04.03.05.03.05.03.04.03.05.03.04.03.05.02.04.03.05.03.05.03.04.03.05.02.05.03.04.03.05.03.04.03.05.02.05.03.04.03.05.03.05.03.04.02.05.03.05.03.04.02.05.03.05.03.04.03.05.02.05.03.05.03.04.02.05.02.03.01.03.02.02.02.03.01.03.02.03.01.03.02.02.03.06.01.03.02.03.03.05.01.03.02.03.02.03.01.02.02.03.03.06.01.03.02.02.01.03.02.03.03.06.01.02.01.03.02.03.01.03.02.03.01.02.03.06.02.03.03.06.03.05.02.05.03.05.02.05.03.05.02.05.03.04.02.05.03.05.02.05.03.05.02.05.03.05.02.04.02.05.03.05.02.05.03.05.02.05.02.05.03.05.02.05.02.05.03.04.02.05.02.05.03.05.02.05.02.05.03.05.02.05.02.05.03.05.02.05.02.05.02.05.03.05.02.05.02.05.02.04.04.08.01.03.01.02.01.03.01.02.02.03.01.02.02.06.05.1.02.05.02.05.03.05.01.03.01.02.02.06.02.02.01.03.01.02.01.03.01.02.01.03.01.03.01.02.02.03.01.02.01.03.01.02.01.03.01.03.01.02.01.03.01.02.03.08.04.08.03.07.03.08.03.07.03.08.03.07.03.08.03.08.03.07.03.08.03.08.03.07.03.08.03.07.03.08.02.08.03.07.03.08.03.08.03.07.03.08.02.08.03.07.03.08.03.08.02.08.03.07.03.08.02.08.03.07.03.08.02.08.03.08.02.07.03.08.02.08.03.08.02.07.03.08v.02l.01.02v.01h.01v.02l.01.02v.02l.01.05.01.03.01.02v.02l.01.02.02.08.03.07.02.08.02.07.02.08.02.07.02.08.03.07.02.08.02.07.02.08.02.07.02.08.02.07.02.08.02.07.02.08.02.07.02.08.02.07.02.08.01.07.02.08.02.07.02.08.02.07.02.08.02.07.01.08.02.07.02.08.02.07.01.08.02.07.02.08.01.07.02.08.02.07.01.07.02.08.01.03v.02l.01.03v.02l.01.03v.02l.01.03v.02l.01.03v.02l.01.03v.02l.01.03.01.05.01.05.01.05.01.05.01.05v.05l.03.13.01.07.01.05.01.06.01.02.01.05.01.06.01.05.01.05.01.05v.06l.01.05.01.05.01.06.01.05.01.05.01.06.01.05.01.06.01.05.01.05.01.06v.05l.01.05.01.06.01.05.01.05.01.06.01.05v.05l.01.06.01.05.01.06.01.05v.05l.01.06.01.05.01.05.01.06v.05l.01.06.01.05v.05l.01.06.01.05.01.06v.04l.01.05v.04l.02.1.01.08v.03l.01.04v.04l.01.04v.05l.01.05v.06l.01.04.01.06v.06l.01.06v.04l.01.04v.06l.01.02v.06l.01.04v.06l.01.04v.08l.01.04v.09l.01.08.01.09.01.08v.09l.01.09.01.08v.09l.01.08.01.09v.08l.01.09.01.08v.09l.01.09v.08l.01.09v.08l.01.09v.09l.01.08v.09l.01.08v.18l.01.08V51.43l.01.09v.34l.01.09V52.99l-.01.09V53.42l-.01.09V53.68l-.01.08v.18l-.01.08v.09l-.01.08v.09l-.01.09v.08l-.01.09v.08l-.01.09v.09l-.01.08-.01.09v.08l-.01.09-.01.08v.09l-.01.08-.01.09v.09l-.01.08-.01.09-.01.08v.09l-.01.04v.08l-.01.02v.08l-.01.02v.06l-.01.04v.06l-.01.04v.04l-.01.06v.06l-.01.04-.01.06v.04l-.01.05v.07l-.01.04v.04l-.01.01v.07l-.01.05-.01.07-.01.09v.01l-.01.04v.04l-.01.06-.01.05v.06l-.01.05-.01.05-.01.06v.05l-.01.06-.01.05-.01.05v.06l-.01.05-.01.05-.01.06-.01.05v.06l-.01.05-.01.05-.01.06-.01.05-.01.05-.01.06v.05l-.01.05-.01.06-.01.05-.01.05-.01.06-.01.05-.01.05-.01.06-.01.05-.01.06-.01.05-.01.05v.06l-.01.05-.01.05-.01.05-.01.06-.01.05-.01.02-.01.06-.01.05-.01.07-.03.15v.03l-.01.05-.01.05-.01.05-.01.05-.01.05-.01.03v.02l-.01.03v.02l-.01.03v.02l-.01.03v.02l-.01.03v.02l-.01.03v.02l-.01.03-.02.08-.01.07-.02.08-.02.07-.01.08-.02.08-.02.07-.01.08-.02.07-.02.08-.02.07-.01.08-.02.08-.02.07-.02.08-.02.07-.02.08-.02.07-.01.08-.02.07-.02.08-.02.07-.02.08-.02.07-.02.07-.02.08-.02.07-.02.08-.02.07-.02.08-.02.07-.02.08-.03.07-.02.07-.02.08-.02.07-.02.08-.02.07-.03.07-.02.08-.01.02v.02l-.01.01v.02l-.01.02v.02l-.02.05v.02l-.01.02v.01l-.01.02v.02l-.03.08-.02.07-.03.08-.02.08-.03.08-.02.07-.03.08-.02.08-.03.08-.03.08-.02.07-.03.08-.03.08-.02.07-.03.08-.03.08-.03.08-.02.07-.03.08-.03.08-.03.07-.03.08-.03.08-.02.07-.03.08-.03.08-.03.07-.03.08-.03.08-.03.07-.03.08-.03.07-.03.08-.03.07-.03.08-.03.08-.03.07-.03.08-.04.07-.03.08-.01.02-.01.03-.01.02-.01.03-.01.03-.01.02-.01.03-.01.02-.02.03-.01.02-.01.03-.01.03-.01.02-.01.03-.01.02-.01.03-.03.05-.01.03-.01.02-.02.05-.03.05-.01.03-.01.02-.02.06-.04.07-.03.08-.03.05-.01.03-.01.02-.01.03-.01.02-.03.05-.02.05-.02.05-.02.05-.03.05-.02.05-.02.05-.02.05-.03.05-.02.05-.02.05-.03.05-.02.05-.02.05-.03.04-.02.05-.02.05-.03.05-.02.05-.02.05-.03.05-.02.05-.02.05-.03.05-.02.05-.03.04-.02.05-.02.05-.03.05-.02.05-.03.05-.02.05-.03.05-.02.04-.03.05-.02.05-.03.05-.02.05-.03.05-.02.05-.03.05-.02.03-.09.17-.03.06-.02.05-.03.06-.03.06-.03.05-.02.03-.01.03-.02.03-.01.03-.02.02-.02.03-.01.03-.02.03-.01.03-.02.02-.01.03-.02.03-.01.03-.02.03-.01.02-.02.03-.01.03-.02.03-.02.03-.01.02-.02.03-.02.05-.03.04-.03.05-.02.05-.03.04-.03.05-.03.05-.02.04-.03.05-.03.05-.02.04-.03.05-.03.05-.03.04-.03.05-.02.05-.03.04-.03.05-.03.04-.03.05-.02.05-.03.04-.03.05-.03.04-.03.05-.02.05-.03.04-.03.05-.03.04-.03.05-.03.05-.03.04-.03.05-.02.04-.03.05-.03.04-.03.05-.03.05-.03.04-.03.05-.02.02-.01.03-.02.02-.01.02-.02.03-.01.02-.03.05-.02.03-.03.04-.06.1-.03.05-.03.05-.02.02-.03.05-.01.02-.02.03-.01.02-.02.03-.01.02-.02.03-.01.02-.02.02-.02.03-.01.02-.02.03-.01.02-.02.02-.01.03-.02.02-.02.02-.01.03-.02.02-.01.01-.01.02v.01l-.02.02v.01l-.02.03-.01.02-.02.02-.01.02v.01l-.01.01-.01.01-.01.01-.01.01-.01.02-.01.01-.02.02-.01.01-.01.01-.01.01v.01h-.01v.01h-.01v.01h-.01v.01l-.02.02-.02.03-.02.03-.03.03-.02.03-.03.04-.03.05-.03.04-.08.1-.03.05-.04.05-.05.06-.04.06-.05.07-.04.06-.05.07-.06.07-.05.07-.05.07-.06.08-.06.08-.06.08-.06.08-.07.08-.06.09-.07.08-.07.09-.07.09-.07.09-.07.09-.08.1-.07.09-.08.1-.08.09-.08.1-.08.1-.09.1-.08.1-.09.1-.01.02-.01.01-.02.02-.01.01-.02.02-.04.05-.02.02-.01.01-.01.02-.02.01-.01.02-.07.07-.06.07-.06.08-.07.07-.06.07-.07.07-.06.08-.07.07-.06.07-.07.07-.06.07-.07.07-.07.07-.06.07-.07.08-.07.07-.06.07-.07.07-.07.07-.06.07-.07.07-.07.07-.07.07-.07.06-.06.07-.07.07-.07.07-.07.07-.07.07-.07.07-.07.06-.07.07-.07.07-.07.07-.07.06-.07.07-.07.07-.07.06-.07.07-.07.07-.01.01-.02.01-.01.02-.02.01-.01.02-.02.01-.01.01-.02.02-.01.01-.01.01-.02.02-.01.01-.03.03-.03.02-.05.04-.06.06-.12.11-.06.05-.04.04-.03.03-.02.02-.03.02-.03.02-.03.03-.03.03-.04.03-.04.03-.04.04-.09.08-.05.04-.05.05-.06.04-.05.05-.06.06-.07.05-.06.05-.07.06-.07.06-.07.06-.07.06-.08.06-.08.07-.07.07-.09.06-.08.07-.09.07-.08.07-.09.08-.1.07-.09.07-.09.08-.1.08-.1.07-.1.08-.1.08-.11.08-.1.08-.11.08-.11.08h-.01l-.01.01v.01h-.01l-.01.01-.02.01-.01.01-.01.01v.01h-.01l-.02.02-.02.01-.02.02-.02.02-.03.02-.02.02-.01.01-.02.02h-.01l-.01.01v.01h-.01l-.02.02h-.01l-.01.01-.01.01h-.01v.01h-.01l-.01.01h-.03l-.01.01h-.01l-.04.03-.04.03-.05.04-.04.03-.05.03-.04.03-.04.03-.05.03-.04.03-.04.03-.05.03-.04.03-.04.03-.05.03-.04.03-.04.03-.05.03-.04.02-.04.03-.05.03-.04.03-.05.03-.04.03-.04.03-.05.03-.04.03-.04.03-.05.03-.04.03-.05.02-.04.03-.04.03-.05.03-.04.03-.05.03-.04.03-.04.02-.05.03-.04.03-.05.03-.01.01-.01.01-.01.01-.02.02h-.01l-.01.01-.01.01h-.01l-.01.01-.01.01h-.01l-.01.01-.01.01h-.02l-.01.01-.01.01h-.01l-.01.01-.02.01-.06.03-.02.01-.03.01-.01.01-.02.01-.01.01h-.01l-.01.01-.08.05-.08.05-.08.05-.08.05-.09.05-.08.05-.08.05-.08.04-.09.05-.08.05-.08.05-.08.05-.09.05-.08.04-.08.05-.09.05-.08.04-.08.05-.09.05-.08.04-.08.05-.09.05-.08.04-.09.05-.08.04-.09.05-.08.04-.08.05-.09.04-.08.04-.09.05-.09.04-.08.05-.09.04-.08.04-.09.04-.08.05-.09.04-.08.04-.09.04-.01.01h-.01l-.01.01h-.01l-.01.01-.02.01-.01.01-.04.02-.01.01h-.02l-.01.01-.01.01h-.01l-.01.01-.02.01h-.01l-.01.01h-.01l-.01.01h-.04l-.37.18-.38.17-.38.17-.38.17-.39.16-.38.15-.39.15-.39.15-.38.15-.4.13-.39.14-.39.13-.4.12-.39.12-.4.12-.4.11-.4.11-.4.1-.4.1-.41.1-.4.09-.4.08-.41.08-.41.08-.41.07-.4.07-.41.06-.41.06-.42.05-.41.05-.41.04-.41.04-.42.04-.41.03-.42.03-.41.02-.42.01-.41.02h-.42l-.41.01-.42-.01h-.42l-.41-.01-.42-.02-.41-.02-.42-.03-.41-.03-.42-.03-.41-.04-.41-.04-.42-.05-.41-.05-.41-.06-.41-.06-.41-.07-.41-.07-.4-.08-.41-.08-.41-.08-.4-.09-.4-.09-.41-.1-.4-.1-.4-.11-.4-.11-.4-.11-.39-.12-.4-.13-.39-.13-.4-.13-.39-.14-.39-.14-.39-.14-.38-.16-.39-.15-.38-.16-.39-.16-.38-.17-.38-.17-.37-.18-1.39-.69-1.34-.74-1.3-.78-1.26-.84-1.21-.87-1.17-.92-1.13-.96-1.09-1-1.04-1.04-.99-1.07-.95-1.1-.9-1.14-.86-1.18-.8-1.2-.76-1.22-.71-1.26-.66-1.28-.61-1.3-.56-1.33-.51-1.34-.46-1.37-.41-1.38-.35-1.39-.3-1.41-.24-1.42-.19-1.43-.14-1.44-.08-1.45-.02-1.45.04-1.46.09-1.46.15-1.46.2-1.46.27-1.46.33-1.45.39-1.45.44-1.44.51-1.43.57-1.42.64-1.4.69-1.39.74-1.34.78-1.3.84-1.25.87-1.22.92-1.17.96-1.13 1-1.08 1.04-1.04 1.07-1 1.11-.94 1.14-.9 1.17-.86 1.2-.81 1.23-.75 1.26-.71 1.28-.66 1.31-.61 1.32-.56 1.35-.51 1.36-.46 1.38-.4 1.4-.36 1.41-.29 1.42-.25 1.43-.19 1.44-.13 1.45-.08 1.46-.02 1.45.03 1.47.09zm-3.56 4.84l-.23.01h-.24l-.23.01-.24.01-.23.01-.24.02-.23.01-.23.02-.24.01-.23.02-.24.02-.23.03-.23.02-.24.03-.23.03-.23.03-.24.03-.23.03-.23.04-.23.03-.23.04-.24.04-.23.04-.23.04-.23.05-.23.05-.23.04-.23.05-.23.05-.23.06-.22.05-.23.06-.23.06-.23.06-.23.06-.22.06-.23.07-.22.06-1.28.41-1.25.46-1.22.5-1.19.54-1.15.59-1.13.63-1.09.68-1.07.71-1.03.75-.99.79-.96.82-.92.86-.89.89-.85.92-.82.95-.77.98-.74 1.01-.69 1.04-.66 1.06-.61 1.09-.58 1.1-.53 1.13-.48 1.15-.44 1.17-.4 1.18-.36 1.21-.3 1.21-.26 1.23-.21 1.24-.17 1.26-.11 1.26-.07 1.27-.02 1.28.04 1.28.09 1.29.14 1.29.19 1.29.25 1.3.3 1.29.35 1.29.41 1.28.46 1.24.5 1.22.55 1.19.59 1.16.63 1.12.67 1.1.72 1.06.75 1.03.78.99.83.96.86.92.89.89.92.85.95.81.99.78 1.01.73 1.03.7 1.06.65 1.09.62 1.11.57 1.13.53 1.15.49 1.17.44 1.18.4 1.21.35 1.21.3 1.23.26 1.25.22 1.25.16 1.26.12 1.27.06 1.28.02 1.29-.04 1.29-.09 1.29-.14 1.29-.19 1.3-.25 1.29-.3 1.29-.35-.04-.03-.05-.03-.04-.03-.05-.03-.05-.03-.04-.03-.05-.03-.05-.03-.04-.03-.05-.03-.09-.06-.05-.03-.04-.03-.05-.03-.05-.03-.04-.03-.05-.03-.05-.03-.04-.03-.05-.03-.04-.04-.05-.03-.04-.03-.05-.03-.05-.03-.04-.03-.05-.03-.04-.03-.05-.03-.04-.03-.04-.03-.05-.03-.04-.03-.05-.04-.04-.03-.04-.03-.05-.03-.04-.03-.04-.03-.06-.05-.07-.05-.05-.06-.06-.05-.06-.06-.05-.05-.05-.06-.05-.06-.05-.06-.04-.07-.05-.06-.04-.07-.04-.06-.03-.07-.04-.07-.03-.07-.03-.07-.03-.07-.03-.07-.02-.07-.02-.08-.02-.07-.02-.07-.01-.08-.02-.08-.01-.07-.01-.08V80.22l.01-.08.01-.08.01-.08.01-.07.02-.08.02-.08.02-.07.02-.08 1.15-3.5-.04-.03-.03-.03-.04-.04-.03-.03-.04-.03-.03-.04-.04-.03-.03-.04-.04-.03-.03-.03-.04-.04-.03-.03-.04-.04-.03-.03-.04-.03-.03-.04-.04-.03-.03-.04-.04-.03-.03-.04-.04-.03-.03-.03-.03-.04-.04-.03-.03-.04-.04-.03-.03-.04-.03-.03-.04-.04-.03-.03-.04-.04-.03-.03-.03-.04-.04-.03-.03-.04-.04-.03-.03-.04-.03-.03-.04-.04-.03-.03-3.5 1.14-.08.03-.07.02-.08.02-.08.01-.07.02-.08.01-.08.01h-.08l-.07.01h-.16l-.08-.01h-.07l-.08-.01-.08-.01-.07-.01-.08-.02-.07-.01-.08-.02-.07-.03-.07-.02-.07-.03-.08-.02-.07-.03-.06-.04-.07-.03-.07-.04-.07-.04-.06-.04-.07-.04-.06-.05-.06-.05-.06-.05-.06-.05-.06-.05-.05-.06-.06-.05-.05-.06-.05-.06-.05-.07-.14-.18-.13-.18-.14-.19-.13-.18-.14-.19-.13-.18-.13-.19-.13-.19-.13-.19-.13-.19-.12-.19-.13-.19-.12-.19-.12-.19-.13-.19-.12-.2-.11-.19-.12-.2-.12-.19-.12-.2-.11-.2-.11-.19-.11-.2-.12-.2-.11-.2-.1-.2-.11-.2-.11-.21-.1-.2-.11-.2-.1-.21-.1-.2-.1-.21-.1-.2-.09-.21-.1-.2-.1-.21-.09-.21-.09-.21-.09-.21-.03-.07-.03-.08-.03-.07-.02-.08-.02-.07-.02-.08-.01-.08-.01-.07-.01-.08-.01-.08-.01-.08V66l.01-.08.01-.08.01-.07.01-.08.02-.07.02-.08.02-.07.02-.07.02-.08.03-.07.03-.07.03-.07.03-.07.04-.07.04-.06.04-.07.04-.07.04-.06.05-.06.05-.06.05-.06.05-.06.05-.06.06-.06.06-.05 2.78-2.5-.01-.05-.02-.04-.01-.05-.01-.05-.02-.04-.01-.05-.01-.05-.02-.04-.01-.05-.01-.05-.02-.04-.01-.05-.01-.05-.02-.05-.01-.04-.01-.05-.01-.05-.02-.04-.01-.05-.01-.05-.01-.04-.02-.05-.01-.05-.01-.04-.01-.05-.02-.05-.01-.04-.01-.05-.01-.05-.01-.05-.02-.04-.01-.05-.01-.05-.01-.04-.01-.05-.01-.05-.02-.04-.01-.05-.01-.05-.01-.04-3.62-.75-.08-.02-.08-.02-.07-.02-.08-.03-.07-.03-.07-.03-.08-.03-.07-.03-.07-.04-.06-.03-.07-.04-.06-.04-.07-.05-.06-.04-.06-.05-.06-.05-.06-.05-.05-.05-.06-.06-.05-.05-.05-.06-.05-.06-.05-.06-.04-.06-.05-.06-.04-.07-.04-.06-.03-.07-.04-.07-.03-.07-.03-.07-.03-.07-.03-.07-.03-.08-.02-.07-.02-.08-.02-.07-.01-.08-.02-.08-.01-.08-.03-.23-.03-.22-.02-.23-.03-.23-.02-.23-.02-.22-.02-.23-.02-.23-.02-.23-.02-.23-.01-.22-.01-.23-.02-.23-.01-.23v-.23l-.01-.23-.01-.22V51.78l.01-.22.01-.23v-.23l.01-.23.02-.23.01-.23.01-.22.02-.23.02-.23.02-.23.02-.23.02-.23.02-.22.03-.23.02-.23.03-.23.03-.22.01-.08.02-.08.01-.08.02-.07.02-.08.02-.07.03-.08.03-.07.03-.07.03-.07.03-.07.04-.07.03-.07.04-.06.04-.07.05-.06.04-.06.05-.06.05-.06.05-.06.05-.05.06-.06.05-.05.06-.05.06-.05.06-.05.06-.04.07-.05.06-.04.07-.04.06-.03.07-.04.07-.03.08-.03.07-.03.07-.03.08-.03.07-.02.08-.02.08-.02 3.62-.75.01-.04.01-.05.01-.05.01-.04.01-.05.02-.05.01-.04.01-.05.01-.05.01-.05.01-.04.01-.05.02-.05.01-.04.01-.05.01-.05.01-.04.02-.05.01-.05.01-.05.01-.04.02-.05.01-.05.01-.04.01-.05.02-.05.01-.04.01-.05.02-.05.01-.04.01-.05.02-.05.01-.04.02-.05.01-.05.01-.04.02-.05.01-.05.02-.05.01-.04-2.78-2.5-.06-.05-.06-.06-.05-.06-.06-.06-.05-.06-.04-.06-.05-.06-.04-.07-.05-.06-.04-.07-.03-.06-.04-.07-.03-.07-.03-.07-.03-.07-.03-.07-.03-.08-.02-.07-.02-.07-.02-.08-.01-.07-.01-.08-.01-.08-.01-.07-.01-.08V38.56l.01-.08.01-.08.02-.07.01-.08.02-.08.02-.07.02-.08.03-.07.02-.08.04-.07.09-.21.09-.21.09-.21.1-.2.09-.21.1-.21.1-.2.1-.21.1-.2.1-.21.1-.2.1-.2.11-.2.11-.21.11-.2.1-.2.11-.2.12-.19.11-.2.11-.2.12-.2.11-.19.12-.2.12-.19.12-.19.12-.2.12-.19.13-.19.12-.19.13-.19.13-.19.12-.19.13-.19.13-.18.14-.19.13-.18.13-.19.14-.18.13-.19.14-.18.05-.06.05-.06.05-.06.06-.06.05-.05.06-.06.06-.05.06-.05.06-.04.07-.05.06-.04.06-.04.07-.04.07-.04.07-.03.07-.03.07-.03.07-.03.07-.03.07-.02.07-.02.08-.02.07-.02.08-.02.07-.01.08-.01.08-.01h.07l.08-.01H97.16l.08.01h.08l.08.01.07.01.08.02.08.01.08.02.07.02.08.02 3.5 1.15.03-.03.04-.04.03-.03.03-.04.04-.04.03-.03.03-.04.04-.03.03-.04.03-.03.04-.04.03-.03.04-.04.03-.03.04-.03.03-.04.03-.03.04-.04.03-.03.04-.04.03-.03.04-.04.03-.03.03-.03.04-.04.03-.03.04-.04.03-.03.04-.04.03-.03.04-.03.03-.04.04-.03.03-.03.04-.04.03-.03.04-.03.04-.04.03-.03.04-.04-1.15-3.49-.03-.08-.02-.08-.02-.07-.01-.08-.02-.08-.01-.08-.01-.07v-.08l-.01-.08V24.5l.01-.08v-.08l.01-.07.01-.08.01-.07.02-.08.02-.07.02-.08.02-.07.02-.07.03-.08.03-.07.03-.07.03-.07.03-.07.04-.06.04-.07.04-.06.04-.07.05-.06.05-.06.05-.06.05-.06.05-.06.06-.05.05-.06.06-.05.07-.05.06-.05.04-.03.04-.03.05-.04.04-.03.04-.03.05-.03.04-.03.04-.03.05-.03.04-.03.05-.03.04-.04.05-.03.04-.03.05-.03.04-.03.05-.03.04-.03.05-.03.05-.03.04-.03.05-.03.04-.03.05-.03.05-.03.04-.03.05-.03.05-.03.04-.03.1-.06.04-.03.05-.03.04-.03.05-.03.05-.03.04-.03.05-.03.05-.03.04-.03-.22-.06-.23-.07-.23-.06-.22-.06-.23-.06-.23-.06-.23-.06-.23-.05-.22-.06-.23-.05-.23-.05-.23-.05-.23-.04-.23-.05-.23-.04-.24-.04-.23-.04-.23-.04-.23-.04-.23-.03-.23-.04-.24-.03-.23-.03-.23-.03-.24-.02-.23-.03-.23-.02-.24-.02-.23-.02-.24-.02-.23-.02-.23-.01-.24-.02-.23-.01-.24-.01h-.23l-.24-.01-.23-.01h-.95zm15.33 3.82l-.09.05-.1.05-.09.05-.1.05-.09.05-.09.05-.1.05-.09.05-.09.05-.09.06-.1.05-.09.05-.09.06-.09.05-.1.05-.09.06-.09.05-.09.06-.09.05-.09.06-.09.05-.1.06-.09.05-.09.06-.09.06-.09.05-.09.06-.09.06-.09.05-.09.06-.08.06-.09.06 1.08 3.29.02.08.03.09.02.09.02.08.01.09.01.09.01.08.01.09v.18l-.01.08v.09l-.01.09-.02.08-.01.09-.02.08-.02.08-.03.09-.02.08-.03.08-.04.08-.03.08-.04.08-.04.07-.05.08-.04.07-.05.07-.05.07-.06.07-.06.07-.06.07-.06.06-.06.06-.07.06-.1.09-.1.08-.1.09-.1.09-.1.09-.1.09-.1.09-.1.09-.1.09-.1.09-.09.09-.1.09-.1.09-.09.09-.1.1-.09.09-.1.09-.09.1-.09.09-.1.1-.09.1-.09.09-.09.1-.1.1-.09.09-.09.1-.09.1-.09.1-.08.1-.09.1-.09.1-.09.1-.08.1-.09.1-.06.07-.06.06-.07.06-.06.06-.07.06-.07.06-.07.05-.07.05-.07.04-.08.05-.07.04-.08.04-.08.03-.08.03-.08.03-.08.03-.08.03-.09.02-.08.02-.08.01-.09.02-.08.01h-.09l-.09.01H102.06l-.09-.01-.08-.01-.09-.01-.09-.01-.08-.02-.09-.02-.09-.02-.08-.03-3.3-1.08-.08.1-.07.11-.07.11-.07.1-.07.11-.07.11-.07.11-.07.1-.07.11-.07.11-.06.11-.07.11-.07.11-.07.11-.06.11-.07.11-.06.11-.07.11-.06.11-.07.11-.06.12-.06.11-.06.11-.07.11-.06.11-.06.12-.06.11-.06.11-.06.12-.06.11-.06.12-.06.11-.06.11-.05.12 2.62 2.34.06.07.07.06.06.06.06.07.05.07.05.07.05.07.05.07.05.08.04.07.04.08.03.08.04.08.03.08.03.08.02.08.02.08.02.09.02.08.01.09.02.08v.09l.01.08v.26l-.01.09-.01.09-.01.08-.02.09-.02.09-.02.08-.03.09-.03.08-.04.13-.05.12-.04.13-.04.12-.04.13-.05.12-.04.13-.04.13-.04.12-.04.13-.04.13-.03.12-.04.13-.04.13-.03.13-.04.13-.03.12-.04.13-.03.13-.03.13-.04.13-.03.13-.03.13-.03.13-.03.12-.03.13-.03.13-.03.13-.02.13-.03.13-.03.13-.02.13-.03.13-.02.14-.02.08-.02.09-.02.09-.03.08-.03.08-.03.08-.03.08-.04.08-.04.08-.04.07-.05.08-.05.07-.05.07-.05.07-.05.06-.06.07-.06.06-.06.06-.06.06-.07.06-.06.05-.07.05-.07.05-.08.05-.07.04-.08.05-.07.03-.08.04-.08.04-.09.03-.08.03-.08.02-.09.02-.09.02-3.43.73v.06l-.01.07v.07l-.01.07v.06l-.01.07v.13l-.01.07v.07l-.01.06v.13l-.01.07v.19l-.01.07v.19l-.01.06v.38l-.01.06V52.78l.01.07v.37l.01.07v.19l.01.06v.2l.01.06v.13l.01.07v.06l.01.07v.13l.01.07v.07l.01.06v.07l.01.07v.07l3.43.72.09.02.09.02.08.03.08.03.09.03.08.03.08.04.07.04.08.04.07.05.08.04.07.05.07.05.06.06.07.05.06.06.06.06.06.07.06.06.05.07.05.06.05.08.05.07.05.07.04.08.04.07.04.08.03.08.03.08.03.09.03.08.02.09.02.08.02.09.02.13.03.13.02.13.03.13.03.13.02.13.03.13.03.13.03.13.03.13.03.13.03.13.03.13.03.12.04.13.03.13.04.13.03.13.04.12.03.13.04.13.04.13.03.12.04.13.04.13.04.12.04.13.04.13.05.12.04.13.04.12.04.13.05.12.04.13.03.08.03.09.02.08.02.09.02.09.01.08.01.09.01.09v.26l-.01.08v.09l-.01.08-.02.09-.02.08-.02.09-.02.08-.02.08-.03.08-.03.08-.04.08-.03.08-.04.08-.04.08-.05.07-.05.07-.05.07-.05.07-.05.07-.06.07-.06.06-.07.07-.06.06-2.62 2.35.05.11.06.12.06.11.06.11.06.12.06.11.06.11.06.12.06.11.06.11.07.12.06.11.06.11.06.11.07.11.06.11.07.11.06.11.07.12.06.11.07.1.07.11.07.11.06.11.07.11.07.11.07.11.07.11.07.1.07.11.07.11.07.11.07.1.08.11 3.3-1.09.08-.02.09-.03.08-.02.09-.01.09-.02.08-.01.09-.01h.35l.08.01.09.01.08.01.09.02.08.02.08.02.09.02.08.03.08.03.08.03.08.04.07.04.08.04.07.04.08.05.07.05.07.05.07.05.06.06.07.06.06.06.06.07.06.06.09.11.09.1.08.1.09.1.09.1.09.1.09.09.09.1.09.1.09.1.09.1.09.09.1.1.09.09.09.1.09.09.1.1.09.09.1.1.09.09.1.09.1.09.09.1.1.09.1.09.1.09.09.09.1.09.1.08.1.09.1.09.1.09.1.09.11.08.06.06.07.06.06.07.06.06.06.07.05.07.05.07.05.07.05.07.04.08.04.07.04.08.04.08.03.08.03.08.03.08.02.08.02.08.02.09.02.08.01.09.01.08.01.09v.35l-.01.08-.01.09-.02.09-.01.08-.02.09-.03.08-.02.09-1.08 3.29.09.06.08.05.09.06.09.06.09.06.09.06.09.05.09.06.09.06.09.05.1.06.09.05.09.06.09.05.09.06.09.05.09.06.1.05.09.05.09.06.09.05.09.05.1.05.09.06.09.05.1.05.09.05.09.05.1.05.09.05.1.05.09.05.09.05.1.05.05-.02.04-.03.05-.02.05-.03.05-.03.04-.02.05-.03.05-.02.05-.03.04-.02.05-.03.05-.03.04-.02.05-.03.04-.02.05-.03.05-.03.04-.02.05-.03.04-.03.05-.02.05-.03.04-.03.05-.02.04-.03.05-.03.04-.02.05-.03.05-.03.04-.02.05-.03.04-.03.05-.03.04-.02.02-.01.04-.03h.01l.01-.01.02-.01.03-.02.04-.02.03-.02.01-.01h.01l.02-.01.01-.01.04-.03.03-.01.03-.02.01-.01.03-.01.02-.02.02-.01.01-.01.03-.02.94-1.05.05-.05.04-.04.04-.04.04-.04.05-.04.04-.04.05-.04.04-.03.05-.04.05-.03.05-.03.05-.04.05-.03.05-.02.05-.03.05-.03.06-.02.05-.03.05-.02.06-.02.05-.02.06-.02.06-.02.05-.02.06-.01.06-.02.05-.01.06-.01.06-.01.06-.01h.06l.06-.01h.06l.06-.01.16-.12.13-.1.13-.11.13-.1.13-.11.13-.11.13-.11.13-.1.13-.11.12-.11.13-.11.13-.11.12-.12.13-.11.12-.11.12-.12.13-.11.12-.12.12-.11.12-.12.12-.11.12-.12.12-.12.12-.12.12-.12.11-.12.12-.12.12-.12.11-.12.12-.12.11-.13.11-.12.12-.12.11-.13.11-.12-.68-.2-.66-.21-.66-.24-.65-.25-.63-.27-.63-.29-.62-.31-.6-.33-.59-.34-.59-.37-.56-.38-.56-.39-.55-.41-.53-.43-.51-.45-.51-.45-.48-.48-.48-.49-.46-.5-.44-.52-.43-.53-.41-.54-.4-.56-.38-.57-.36-.58-.35-.59-.32-.6-.31-.62-.3-.62-.27-.64-.25-.65-.24-.65-.21-.67-.19-.68-.26-1.05-.21-1.06-.15-1.06-.11-1.05-.05-1.05-.01-1.04.05-1.04.09-1.03.14-1.02.19-1.01.23-.99.27-.99.32-.96.36-.95.41-.93.44-.91.49-.89.52-.87.57-.85.6-.81.63-.79.68-.77.71-.73.74-.7.78-.67.81-.63.84-.6.88-.56.9-.53.94-.48.96-.44.99-.4 1.02-.36 1.04-.31-.11-.12-.12-.13-.11-.12-.12-.13-.11-.12-.12-.13-.11-.12-.12-.12-.12-.13-.12-.12-.12-.12-.12-.12-.12-.12-.12-.11-.12-.12-.13-.12-.12-.12-.12-.11-.13-.12-.12-.11-.13-.12-.12-.11-.13-.11-.13-.12-.13-.11-.12-.11-.13-.11-.13-.11-.13-.11-.13-.11-.14-.1-.13-.11-.13-.11-.13-.1-.17-.13h-.06l-.05-.01h-.06l-.06-.01-.05-.01-.06-.01-.06-.01-.05-.01-.06-.02-.05-.01-.05-.02-.06-.01-.05-.02-.06-.02-.05-.02-.05-.02-.05-.02-.05-.03-.05-.02-.05-.03-.05-.03-.05-.03-.05-.03-.05-.03-.04-.03-.05-.03-.05-.03-.04-.04-.04-.03-.05-.04-.04-.04-.04-.04-.04-.04-.04-.04-.95-1.06h-.02l-.04-.03-.03-.02-.02-.01-.04-.02-.04-.03-.01-.01-.04-.02-.02-.02-.04-.02-.02-.01-.01-.01-.03-.01-.02-.02-.03-.01-.04-.02-.04-.03-.05-.03-.05-.03-.04-.02-.05-.03-.04-.03-.05-.03-.04-.02-.05-.03-.05-.03-.04-.03-.05-.02-.05-.03-.04-.03-.05-.02-.05-.03-.04-.03-.05-.02-.05-.03-.04-.03-.05-.02-.05-.03-.04-.03-.05-.02-.05-.03-.05-.03-.04-.02-.05-.03-.05-.02-.05-.03-.05-.03-.04-.02-.05-.03-.05-.02-.1.05-.09.05zm9.98 11.97l-1.25.44-1.21.53-1.16.61-1.1.69-1.05.78-.98.84-.92.92-.85.98-.77 1.05-.7 1.1-.61 1.16-.53 1.21-.44 1.25-.34 1.3-.25 1.33-.16 1.68v1.65l.15 1.62.3 1.58.44 1.54.58 1.48.7 1.41.83 1.35.94 1.26 1.06 1.18 1.16 1.07 1.26.97 1.34.86 1.44.74 1.51.6 1.59.47 1.65.32.1-.16.1-.16.1-.17.1-.16.1-.16.1-.17.09-.16.1-.17.09-.16.1-.17.09-.17.09-.17.09-.16.09-.17.09-.17.08-.17.09-.17.18-.38.08-.16.08-.17.08-.16.07-.17.08-.17.07-.17.08-.17.07-.16.07-.17.07-.17.07-.17.07-.17.07-.17.07-.18.06-.17.07-.17.06-.17.04-.1.01-.03.01-.03.01-.03.02-.03.01-.03.01-.03.01-.04.01-.03.01-.03.02-.03.01-.03.01-.03.01-.04.01-.03.06-.16.05-.17.06-.16.05-.17.05-.16.06-.17.05-.17.05-.16.05-.17.04-.17.05-.17.05-.16.05-.17.04-.17.05-.17.04-.17.05-.17.01-.04.01-.04.01-.04.01-.04.01-.04.01-.03.02-.08.01-.04.01-.04.01-.04.01-.04.01-.04.01-.04.01-.04.01-.04.01-.03.03-.17.04-.17.04-.16.03-.17.03-.17.03-.16.03-.17.03-.17.03-.17.03-.17.03-.16.03-.17.02-.17.03-.17.02-.17.02-.17.03-.17v-.03l.01-.04v-.03l.01-.03v-.04l.01-.03v-.03l.02-.07v-.03l.01-.04v-.03l.01-.03v-.04l.01-.03v-.03l.01-.04v-.09l.01-.03v-.04l.01-.04v-.07l.01-.01v-.02l.02-.2.02-.21.02-.2.02-.2.02-.2.01-.2.02-.21.01-.2.01-.2.01-.2.01-.2.01-.21v-.2l.01-.2v-.2l.01-.21v-.4l-.01-.21v-.4l-.01-.21-.01-.2-.01-.2-.01-.21-.01-.2-.01-.2-.02-.2-.01-.21-.02-.2-.02-.2-.02-.2-.02-.21-.02-.2-.03-.29v-.04l-.01-.03v-.04l-.01-.03v-.03l-.01-.04v-.03l-.01-.04-.01-.03-.01-.07v-.03l-.01-.04v-.03l-.01-.03v-.04l-.01-.03-.02-.17-.03-.17-.02-.17-.02-.17-.03-.17-.03-.17-.02-.17-.03-.16-.03-.17-.03-.17-.03-.17-.03-.17-.04-.16-.03-.17-.04-.17-.03-.16-.04-.17-.01-.04-.01-.04-.01-.04-.01-.04-.01-.04-.01-.03-.01-.04-.01-.04-.01-.04-.02-.08-.01-.04-.01-.04-.01-.03-.01-.04-.01-.04-.01-.04-.04-.17-.05-.17-.04-.17-.05-.17-.04-.17-.05-.17-.05-.17-.05-.17-.05-.17-.05-.16-.05-.17-.05-.17-.06-.17-.05-.16-.06-.17-.05-.17-.06-.16-.01-.03-.01-.03-.02-.03-.01-.03-.01-.03-.01-.04-.01-.03-.01-.03-.01-.03-.03-.06-.01-.03-.03-.09-.02-.06-.07-.18-.07-.17-.07-.17-.07-.18-.07-.17-.07-.17-.07-.17-.07-.18-.07-.17-.08-.17-.07-.17-.08-.17-.08-.17-.07-.17-.08-.17-.08-.16-.08-.17-.02-.04-.02-.04-.02-.04-.02-.04-.02-.04-.02-.04-.01-.02-.01-.03-.01-.02-.01-.02-.01-.02-.09-.16-.08-.17-.09-.17-.09-.17-.09-.17-.09-.16-.09-.17-.09-.16-.1-.17-.09-.16-.1-.17-.09-.16-.1-.16-.1-.17-.1-.16-.1-.16-.1-.16-1.33.25-1.3.34z" id="c"/><path d="M98.93 5.08l1.82.19 1.81.26 1.8.33 1.78.4 1.76.46 1.74.53 1.72.6 1.7.66 1.67.73 1.64.79 1.62.86 1.58.91 1.55.98 1.51 1.04 1.48 1.1 1.43 1.16 1.39 1.23 1.35 1.27 1.3 1.34 1.26 1.4 1.2 1.45 1.15 1.51 1.1 1.56 1.04 1.62.98 1.67.92 1.72h.75l2.16-2.5.05-.05.05-.05.04-.05.05-.04.05-.05.05-.04.05-.04.06-.04.05-.04.05-.04.06-.04.06-.03.05-.03.06-.04.06-.03.06-.02.06-.03.06-.03.06-.02.06-.02.07-.02.06-.02.06-.02.07-.01.06-.02.07-.01.06-.01.07-.01h.06l.07-.01h.33l.07.01h.07l.06.01.07.02.07.01.13.03.14.03.14.03.13.03.14.03.13.04.14.03.13.04.14.03.13.04.14.03.13.04.13.04.14.04.13.04.13.04.14.04.13.05.13.04.13.04.14.05.13.04.13.05.13.05.13.04.13.05.13.05.13.05.13.05.13.05.13.05.13.06.13.05.13.06.12.05.13.06.13.05.13.06.12.06.13.06.06.03.06.03.06.03.05.03.06.04.06.03.05.04.05.04.05.04.05.04.05.04.05.05.05.04.04.05.05.04.04.05.04.05.04.05.04.05.04.05.04.06.03.05.04.06.03.05.03.06.03.06.03.06.02.06.03.06.02.06.02.06.02.06.02.06.02.07.02.06.01.06.01.07.01.06.01.07.01.07.3 3.35.03.01.04.03.02.01.02.02.02.01.04.03.02.02.04.03.02.01.02.02.04.03.02.01.02.02.04.03.02.01.03.01.02.02.04.03.02.02.02.01.02.02.02.01.02.02.02.01.04.03.04.03.04.03.04.03.04.03 3.15-.72.06-.01.07-.01.07-.01.07-.01.06-.01h.07l.07-.01h.2l.06.01h.07l.06.01.07.01.07.01.06.01.06.02.07.01.06.02.07.02.06.02.06.02.06.03.06.02.06.03.06.03.06.03.06.03.06.03.05.04.06.04.05.03.06.04.05.05.05.04.05.04.05.05.05.05.05.05.04.05.1.1.09.11.09.1.09.11.1.11.09.1.09.11.09.11.08.11.09.11.09.11.09.11.08.11.09.11.08.11.09.11.08.12.09.11.08.11.08.12.08.11.08.12.08.11.08.12.08.11.08.12.08.12.08.12.07.11.08.12.07.12.08.12.07.12.07.12.08.12.07.12.07.12.07.13.07.12.07.12.03.06.03.06.03.06.02.06.03.06.02.06.02.06.02.06.02.06.02.06.01.07.02.06.01.06.01.07.01.06.01.06v.13l.01.06v.13l-.01.07v.06l-.01.06-.01.07-.01.06-.01.06-.01.07-.01.06-.02.06-.02.06-.02.07-.02.06-.02.06-.02.06-.03.06-.03.06-.03.06-.03.05-.03.06-1.67 2.88.01.03.01.02v.03l.01.03.01.02.01.03.01.02.01.03.01.03v.02l.01.03.01.02.01.03.01.03.01.02v.03l.01.03.01.02.01.03.01.02.01.06.01.02.02.06v.02l.01.03.02.05.01.03v.03l.01.02.01.03.02.05.01.06.03.08 3 1.32.06.03.06.03.06.03.05.03.06.03.06.04.05.03.05.04.06.04.05.04.05.04.05.04.05.05.04.04.05.05.04.05.04.05.05.05.04.05.04.05.03.05.04.06.03.05.04.06.03.05.03.06.03.06.03.06.02.06.03.06.02.06.02.06.02.06.02.07.02.06.01.06.01.07.02.06.01.07v.07l.02.14.01.14.02.14.01.14.01.14.01.14.02.14.01.14v.14l.01.14.01.14.01.14v.14l.01.14v.15l.01.14v1.12l-.01.14v.15l-.01.14v.14l-.01.14-.01.14-.01.14v.14l-.01.14-.02.14-.01.14-.01.14-.01.14-.02.14-.01.14-.02.14v.07l-.01.07-.02.06-.01.07-.01.06-.02.06-.02.07-.02.06-.02.06-.02.06-.03.06-.02.06-.03.06-.03.06-.03.06-.03.05-.04.06-.03.05-.04.06-.03.05-.04.05-.04.05-.05.05-.04.05-.04.05-.05.05-.04.04-.05.04-.05.05-.05.04-.05.04-.06.04-.05.04-.05.03-.06.04-.06.03-.05.03-.06.03-.06.03-.06.03-3 1.32-.01.03-.03.08-.01.05-.02.06-.01.02v.03l-.01.03-.01.02-.02.06v.02l-.02.06-.01.02-.01.06-.01.02-.01.03-.01.02-.01.03v.03l-.01.02-.01.03-.01.03-.01.02-.01.03v.02l-.01.03-.01.03-.01.02-.01.03-.01.02-.01.03v.03l-.01.02-.01.03 1.67 2.88.03.06.03.05.03.06.03.06.03.06.02.06.02.06.02.07.02.06.02.06.02.06.01.06.01.07.01.06.01.06.01.07.01.06v.13l.01.06v.07l-.01.06v.07l-.01.06v.06l-.01.07-.01.06-.01.06-.02.07-.01.06-.02.06-.02.06-.02.06-.02.07-.02.06-.03.06-.02.06-.03.06-.03.05-.03.06-.07.12-.07.13-.07.12-.07.12-.07.12-.08.12-.07.12-.07.12-.08.12-.07.12-.08.12-.07.11-.08.12-.08.12-.07.12-.08.11-.08.12-.08.11-.08.12-.08.11-.09.12-.08.11-.08.11-.08.12-.09.11-.08.11-.09.11-.08.11-.09.11-.09.11-.09.11-.09.11-.08.11-.09.11-.09.1-.1.11-.09.11-.09.1-.09.11-.09.1-.05.05-.05.05-.05.05-.05.05-.05.04-.05.05-.05.04-.05.04-.06.04-.05.03-.06.04-.06.03-.06.03-.05.03-.06.03-.06.03-.06.03-.07.02-.06.02-.06.02-.06.02-.07.02-.06.02-.07.01-.06.01-.07.01-.06.01-.07.01-.06.01h-.34l-.07-.01-.06-.01-.07-.01-.07-.01-.06-.01-.07-.01-3.15-.72-.02.01-.04.03-.02.02-.04.03-.02.01-.04.03-.02.02-.02.01-.02.02-.02.01-.04.03-.02.02-.02.01-.02.02-.02.01-.04.03-.04.03-.04.03-.05.03-.04.03-.02.02-.02.01-.02.02-.02.01-.04.03-.04.03-.02.01-.04.03-.31 3.35-.01.07-.01.07-.01.06-.01.07-.01.06-.02.06-.01.07-.02.06-.02.06-.03.06-.02.06-.02.06-.03.06-.03.06-.03.06-.03.06-.03.05-.03.06-.04.05-.04.06-.03.05-.04.05-.04.05-.05.05-.04.05-.04.04-.05.05-.05.04-.04.05-.05.04-.05.04-.06.04-.05.04-.05.04-.06.03-.05.04-.06.03-.06.03-.06.03-.06.03-.12.06-.13.06-.13.06-.13.05-.12.06-.13.05-.13.06-.13.05-.13.05-.13.06-.13.05-.13.05-.13.05-.13.05-.13.05-.13.04-.13.05-.13.05-.13.04-.14.05-.13.04-.13.04-.13.05-.14.04-.13.04-.13.04-.14.04-.13.04-.13.04-.14.03-.13.04-.14.03-.13.04-.14.03-.13.04-.14.03-.13.03-.14.03-.14.03-.13.03h-.02l-.01.01h-.04l-.01.01h-.05l-.01.01h-.05l-.02.01h-.08l-.01.01h-.37l-.05-.01h-.05l-.06-.01-.05-.01h-.05l-.06-.01-.05-.01-.05-.02-.05-.01-.05-.01-.06-.02-.05-.02-.05-.01-.05-.02-.05-.02-.05-.02-.04-.02-.05-.03-.05-.02-.05-.03-.04-.02-.05-.03-.05-.03-.04-.02-.05-.03-.04-.04-.04-.03-.04-.03-.05-.03-.04-.04-.04-.03-.04-.04-.04-.04-.04-.04-.03-.03-.04-.04-.04-.05-2.15-2.49h-.75l-.72 1.37-.76 1.34-.79 1.3-.84 1.28-.87 1.24-.91 1.21-.94 1.17-.98 1.14-1.01 1.11-1.05 1.06-1.07 1.04-1.1.99-1.14.96-1.16.92-1.19.89-1.21.84-1.24.8-1.26.77-1.29.72-1.31.69-1.33.64-1.34.6-1.37.56-1.39.52-1.4.47-1.42.43-1.43.38-1.44.34-1.46.3-1.47.24-1.48.2-1.49.16-1.5.11-1.5.06-1.52.01-1.51-.04-1.53-.09-1.52-.14-1.53-.19-1.53-.24-7.8 9.75-.07.07-.06.08-.07.07-.07.06-.08.07-.07.06-.08.06-.08.05-.08.05-.08.05-.08.04-.09.04-.08.04-.09.04-.09.03-.09.02-.09.03-.09.02-.09.02-.09.01-.1.01-.09.01h-.28l-.09-.01-.09-.01-.1-.01-.09-.02-.09-.02-.09-.02-.1-.03-.09-.03-.08-.04-.09-.04-.09-.04-.09-.04-.08-.05-.08-.06-.09-.05-5.05-3.68-29.04 35.71-.03.04-.04.05-.04.04-.04.04-.04.04-.04.04-.04.03-.04.04-.04.04-.04.03-.05.04-.04.03-.05.03-.04.03-.05.03-.05.03-.05.03-.04.02-.05.03-.05.02-.05.02-.05.03-.05.02-.06.02-.05.02-.05.01-.05.02-.06.01-.05.02-.05.01-.06.01-.05.01-.06.01-.05.01-.06.01h-.05l-.06.01H39.83l-.04-.01h-.09l-.04-.01-.04-.01h-.04l-.04-.01-.04-.01-.04-.01-.05-.01-.04-.01-.04-.01-.04-.01-.04-.01-.04-.01-.04-.02-.04-.01-.04-.02-.03-.01-.04-.02-.04-.01-.04-.02-.04-.02-.04-.02-.03-.02-.04-.02-.04-.02-.03-.02-.04-.02-.04-.03-.03-.02-.04-.02-.03-.03-.03-.02-.04-.03-.03-.02-12.5-10h-.01l-.01-.01-.08-.07-.07-.07-.07-.07-.07-.07-.07-.08-.06-.08-.06-.08-.05-.08-.05-.08-.05-.09-.04-.08-.04-.09-.04-.09-.03-.09-.03-.09-.03-.1-.02-.09-.02-.09-.02-.1-.01-.09-.01-.1V129.79l.01-.09.01-.1.01-.09.02-.1.02-.09.03-.1.03-.09.03-.09.04-.09.04-.09.04-.09.05-.09.05-.09.06-.08.06-.08.06-.09 28.39-34.93-5.4-3.92-.04-.03-.02-.02-.02-.01-.01-.01-.02-.01-.01-.01-.08-.07-.08-.07-.07-.07-.07-.07-.06-.08-.06-.08-.06-.08-.06-.08-.05-.08-.05-.09-.04-.08-.04-.09-.04-.09-.04-.09-.03-.09-.02-.09-.03-.1-.02-.09-.01-.09-.01-.1-.01-.1-.01-.09v-.19l.01-.1.01-.09.01-.1.02-.1.02-.09.02-.09.03-.1.03-.09.04-.09.04-.09.04-.09.05-.09.05-.09.06-.08.06-.08.06-.09 6.69-8.35-.06-.09-.06-.09-.05-.09-.06-.09-.05-.09-.06-.09-.05-.1-.06-.09-.05-.09-.06-.09-.05-.09-.06-.09-.05-.09-.06-.1-.05-.09-.05-.09-.06-.09-.05-.1-.05-.09-.05-.09-.06-.09-.05-.1-.05-.09-.05-.09-.05-.1-.06-.09-.05-.09-.05-.1-.05-.09-.05-.09-.05-.1-.05-.09-.05-.1-.05-.09-.05-.09-.05-.1-.05-.09-.05-.1-.04-.09-.05-.1-.85-1.76-.78-1.78-.69-1.79-.62-1.81-.54-1.81-.46-1.83-.39-1.84-.31-1.83-.24-1.85-.17-1.84-.09-1.84-.02-1.84.05-1.84.12-1.82.19-1.82.26-1.81.33-1.79.4-1.78.46-1.76.53-1.74.6-1.72.66-1.7.73-1.67.79-1.64.86-1.61.92-1.59.98-1.54 1.04-1.51 1.1-1.48 1.16-1.43 1.22-1.39 1.28-1.35 1.34-1.3 1.4-1.25 1.45-1.21 1.51-1.15 1.56-1.09 1.62-1.04 1.67-.99 1.73-.92 1.76-.85 1.78-.77 1.8-.69 1.8-.62 1.82-.54 1.83-.46 1.84-.39 1.84-.31 1.84-.24 1.85-.17 1.84-.09 1.84-.02 1.84.05 1.82.12zm-59.3 131.34l27.3-33.58L58 96.36l-26.97 33.18 8.6 6.88zm32.09-36.28l.28.21 5.04 3.65 4.75-5.94-.04-.01-.04-.01-.03-.01-.04-.02-.03-.01-.04-.01-.03-.01-.04-.02-.03-.01-.04-.01-.03-.01-.04-.01-.04-.02-.03-.01-.09-.02-.09-.03-.08-.03-.09-.03-.08-.02-.09-.03-.09-.03-.08-.03-.09-.03-.08-.03-.09-.03-.08-.03-.09-.03-.09-.02-.08-.03-.1-.04-.14-.05-.16-.05-.18-.06-.2-.07-.23-.08-.24-.09-.26-.09-.27-.1-.29-.11-.3-.11-.32-.13-.32-.13-.06-.02-.06-.02-.06-.03-.07-.02-.06-.03-.06-.03-.06-.02-.06-.03-.06-.02-.07-.03-.06-.03-.06-.02-.06-.03-.06-.03-.27-.12-.28-.12-.27-.12-.27-.13-.27-.12-.27-.13-.27-.12-.27-.13-.26-.13-.27-.14-.26-.13-.27-.14-.26-.14-.26-.14-.85-.47-.84-.48-.82-.51-.82-.52-.8-.54-.8-.55-.78-.57-.77-.59-.76-.6-.74-.61-.73-.64-.72-.64-.71-.67-.69-.67-.23-.24-.21-.2-.2-.21-.2-.21-.2-.21-.2-.22-.2-.21-.2-.21-.19-.22-.2-.22-.19-.22-.19-.22-.19-.22-.19-.22-.19-.23-.02-.02-.03-.03-.02-.02-.02-.03-.04-.05-.02-.02-.02-.03-.03-.02-.02-.03-.02-.02-.02-.03-.02-.02-.02-.03-.04-.05-.04-.05-.04-.04-.05-.05-.04-.05-.04-.05-.04-.05-.04-.04-.05-.05-.04-.05-.04-.05-.04-.05-.04-.05-.04-.05-4.1 5.13 18.13 13.17zm19.73-90l-1.71.18-1.69.24-1.67.31-1.65.37-1.62.44-1.59.49-1.57.56-1.54.62-1.51.67-1.48.73-1.44.79-1.41.83-1.37.9-1.34.94-1.29.99-1.26 1.04-1.22 1.08-1.17 1.13-1.13 1.18-1.09 1.21-1.03 1.26-.99 1.3-.94 1.34-.89 1.37-.84 1.41-.78 1.44-.73 1.48-.67 1.51-.62 1.54-.55 1.56-.5 1.6-.43 1.62-.37 1.65-.31 1.67-.24 1.69-.17 1.71-.1 1.73-.04 1.75.02 1.27.06 1.26.09 1.26.14 1.24.16 1.24.21 1.23.23 1.22.28 1.21.3 1.19.35 1.19.37 1.17.41 1.16.44 1.14.47 1.13.51 1.12.53 1.1.57 1.08.6 1.06.62 1.05.66 1.03.69 1.01.71.99.75.96.77.95.8.93.82.9.85.88.88.86.91.83.93.8.95.79.98.75 1 .73 1.03.7 1.05.67 1.07.64 1.1.61 1.11.58 1.14.56 1.16.52h.01l.02.01h.01l.03.02h.01l.02.01.02.01.05.02.02.02.03.01.01.01.02.01h.02l.01.01h.01l.06.03.06.02.07.03.06.03.06.02.07.03.06.02.06.03.07.02.06.03.06.02.07.02.06.03.06.02.07.02.06.03.07.02.06.02.06.03.07.02.06.02.07.03.06.02.07.02.06.02.07.03.06.02.06.02.07.02.06.03.07.02.06.02.13.05.07.02.06.02.07.02.06.02.06.03.07.02.04.01.03.02.04.01.04.01.03.01.04.02.03.01.04.01.04.02.03.01.04.02.04.01.03.01.11.04.04.02.03.01.04.01.04.02.03.01.04.02.03.01.04.01.04.02.03.01.04.01.04.01.03.02.04.01.04.01.03.01.04.02.04.01.03.01.04.01.04.01.03.01.04.02.04.01.03.01.04.01.04.01.04.01.03.01.04.01.04.01.04.01.03.01.04.01.04.01.04.01.04.01.03.01.04.01.04.01.04.01.04.01.03.01.04.01.04.01.15.03.08.02.04.01.04.01.03.01.04.01.04.01.04.01.04.01.03.01.04.01.04.01.04.01.03.01.04.01.07.02.06.01.07.02.06.02.07.02.13.03.12.04.07.01.06.02.07.02.06.01.07.02.06.02.07.02.06.01.07.02.06.02.07.01.07.02.06.02.07.01.06.02.07.02.06.01.07.02.06.02.07.01.06.02.07.01.07.02.06.01.07.02.06.01.07.02.07.01.06.01.07.02.06.01 1.44.26 1.43.22 1.42.16 1.43.11 1.42.07 1.42.02 1.41-.03 1.41-.08 1.4-.12 1.39-.17 1.38-.22 1.37-.25 1.35-.31 1.35-.34 1.33-.39 1.31-.44 1.3-.47 1.29-.52 1.26-.56 1.25-.59 1.22-.64 1.2-.68 1.19-.72 1.16-.75 1.13-.8 1.11-.83 1.08-.87 1.06-.9 1.02-.94 1-.98.97-1.01.93-1.05.91-1.08.87-1.11.83-1.14.8-1.18.76-1.21.73-1.24.68-1.27.65-1.31.05-.09.04-.1.05-.1.04-.09.05-.1.04-.1.05-.09.04-.1.05-.1.04-.1.04-.09.05-.1.04-.1.04-.09.04-.1.05-.1.04-.1.04-.1.04-.09.04-.1.04-.1.04-.1.04-.1.04-.09.04-.1.04-.1.04-.1.04-.1.04-.09.04-.1.04-.1.04-.1.03-.1.04-.1.04-.1.04-.1.03-.09.04-.1.04-.1.04-.12.01-.02.01-.03.01-.03.02-.06.05-.13v-.02l.01-.02.02-.05.02-.04.01-.03.01-.03v-.01l.01-.02.01-.03.01-.03.04-.1.03-.09.03-.1.03-.09.03-.09.03-.09.03-.09.03-.09.03-.09.03-.1.03-.09.03-.09.02-.09.03-.09.03-.1.03-.09.03-.09.02-.09.03-.09.03-.1.02-.09.03-.09.03-.09.02-.09.03-.1.02-.09.03-.09.03-.1.02-.09.03-.09.02-.09.02-.1.03-.09.02-.09.03-.1.02-.09.02-.09.03-.1.02-.09.02-.09.01-.03.01-.02v-.02l.01-.02v-.03l.01-.02v-.02l.01-.02.01-.05.01-.05.01-.02.01-.04.03-.09.01-.05.01-.04.01-.05.01-.02.01-.02v-.03l.01-.02v-.02l.01-.02.01-.03v-.02l.01-.02v-.02l.01-.03v-.02l.01-.02v-.03l.01-.02.02-.09.02-.08.02-.09.02-.09.01-.09.02-.09.02-.08.02-.09.01-.09.02-.09.02-.09.02-.08.01-.09.02-.09.01-.09.02-.09.02-.09.01-.08.02-.09.01-.09.02-.09.01-.09.01-.09.02-.08.01-.09.02-.09.01-.09.01-.09.02-.09.01-.09.01-.09.02-.08.01-.09.01-.09.02-.09.01-.09.01-.09.01-.09.01-.09.02-.09v-.05l.01-.03v-.02l.01-.03v-.05l.01-.03v-.02l.01-.03v-.03l.01-.02v-.06l.01-.05.02-.1.01-.03v-.05l.01-.03v-.03l.01-.02v-.03l.01-.02v-.06l.01-.02v-.03l.01-.03v-.05l.01-.03v-.05l.01-.03v-.02l.02-.23.03-.23.02-.23.02-.23.02-.23.02-.23.02-.23.02-.23.01-.23.01-.23.02-.23.01-.23.01-.23.01-.23v-.23l.01-.23v-.23l.01-.23v-.92l-.01-.23v-.23l-.01-.23v-.23l-.01-.23-.01-.23-.01-.23-.02-.23-.01-.23-.01-.23-.02-.23-.02-.23-.02-.23-.02-.23-.02-.23-.02-.23-.03-.23-.02-.23v-.02l-.01-.03v-.05l-.01-.03v-.05l-.01-.03v-.03l-.01-.02v-.06l-.01-.02v-.03l-.01-.03v-.02l-.01-.03v-.05l-.01-.03v-.02l-.01-.06-.02-.07v-.06l-.01-.02v-.03l-.01-.03v-.02l-.01-.03v-.05l-.01-.03v-.02l-.01-.03v-.05l-.02-.09-.01-.09-.01-.09-.01-.09-.02-.09-.01-.09-.01-.09-.01-.09-.02-.08-.01-.09-.01-.09-.02-.09-.01-.09-.02-.09-.01-.09-.01-.09-.02-.08-.01-.09-.02-.09-.01-.09-.02-.09-.01-.09-.02-.08-.02-.09-.01-.09-.02-.09-.01-.09-.02-.09-.02-.08-.01-.09-.02-.09-.02-.09-.01-.09-.02-.08-.02-.09-.02-.09-.02-.09-.01-.09-.02-.08-.02-.09-.01-.02v-.03l-.01-.02v-.02l-.01-.03v-.02l-.01-.02v-.02l-.01-.03-.01-.02v-.02l-.01-.02v-.03l-.01-.02-.01-.02-.01-.05-.01-.04-.01-.02-.01-.05-.02-.09-.02-.05-.01-.04-.01-.05-.01-.02v-.02l-.01-.02v-.03l-.01-.02v-.02l-.01-.02-.01-.03-.02-.09-.02-.09-.03-.1-.02-.09-.02-.09-.03-.09-.02-.1-.03-.09-.02-.09-.02-.1-.03-.09-.02-.09-.03-.09-.03-.1-.02-.09-.03-.09-.02-.09-.03-.1-.03-.09-.02-.09-.03-.09-.03-.1-.02-.09-.03-.09-.03-.09-.03-.1-.03-.09-.02-.09-.03-.09-.03-.09-.03-.1-.03-.09-.03-.09-.03-.09-.03-.09-.03-.09-.03-.09-.03-.1-.03-.09-.04-.1-.01-.03-.01-.02-.01-.03v-.01l-.01-.03-.01-.03-.02-.04-.01-.03-.02-.05v-.01l-.01-.01-.05-.13-.02-.06-.01-.05-.01-.02-.04-.12-.04-.1-.04-.1-.03-.09-.04-.1-.04-.1-.04-.1-.03-.1-.04-.1-.04-.1-.04-.1-.04-.09-.04-.1-.04-.1-.04-.1-.04-.1-.04-.1-.04-.09-.04-.1-.04-.1-.04-.1-.04-.09-.04-.1-.04-.1-.05-.1-.04-.1-.04-.09-.04-.1-.05-.1-.04-.09-.04-.1-.05-.1-.04-.1-.05-.09-.04-.1-.05-.1-.04-.09-.05-.1-.04-.1-.05-.09-.54-1.1-.57-1.08-.61-1.06-.62-1.03-.66-1.02-.68-.99-.71-.97-.73-.95-.76-.92-.78-.9-.81-.88-.83-.85-.85-.83-.87-.8-.9-.78-.91-.75-.94-.72-.95-.7-.97-.67-.99-.65-1.01-.61-1.03-.59-1.04-.56-1.05-.53-1.08-.5-1.08-.47-1.1-.45-1.12-.41-1.12-.38-1.14-.35-1.15-.31-1.16-.29-1.18-.25-1.18-.22-1.19-.19-1.2-.16-1.2-.12-1.22-.08-1.22-.05-1.22-.02-1.75.04-1.74.1zm49.48 24.98l-.06.06-.06.06-.06.05-.07.06-.06.05-.07.05-.07.05-.07.04-.07.04-.07.04-.07.04-.08.04-.08.03-.07.03-.08.03-.08.02-.08.03-.08.02-.09.01-.08.02.01.03.01.03.01.03.01.03.01.02.01.03.01.03.01.03.01.03.01.03.02.06.01.03.01.03v.03l.01.03.01.03.01.03.01.03.01.03.01.03.05.14.05.13.05.14.05.14.05.14.05.14.04.13.05.14.05.14.04.14.05.14.05.14.04.14.05.14.04.14.04.14.05.14.04.14.04.14.04.15.04.14.03.08.02.08.02.08.02.08.02.08.03.08.02.08.02.08.02.08.02.08.02.08.02.08.02.08.02.08.02.08.02.08.04.16.02.08.02.08.02.08.05.24.03.11.03.12.03.11.03.12.03.11.03.12.02.11.03.12.03.11.02.12.03.12.03.11.02.12.03.12.02.11.03.12.02.12.03.12.02.12.02.12.03.12.02.12.02.12.02.12.02.12.02.13.02.12.02.12.01.12.02.12.02.12.02.12.01.12.02.13.02.12.01.12.02.12.02.12.01.12.02.12.01.09.01.09.02.08.01.09.01.08.02.09.01.09.01.08.02.09.01.08.01.09.01.09.02.08.01.09.01.09.01.08.01.09.01.09.01.08.01.09.01.09.02.21.02.22.02.21.02.22.01.21.02.22.01.21.02.22.01.21.02.22.01.21.01.22.01.21.01.22v.21l.01.22v.22l.01.21v1.53l-.01.21-.01.22v.22l-.01.21-.01.22-.01.22-.01.21-.01.22-.02.22-.01.21-.02.22-.01.21-.02.22-.02.21-.02.22-.02.21-.02.22v.08l-.01.09-.01.09-.02.09-.01.08-.01.09-.01.08-.01.09-.01.09-.02.08-.01.09-.01.09-.02.08-.01.09-.01.08-.01.09-.02.09-.01.08-.01.09-.01.08-.02.09-.01.12-.02.12-.02.13-.01.12-.02.12-.01.12-.02.12-.02.13-.02.12-.01.12-.02.12-.02.12-.02.12-.02.13-.02.12-.02.12-.02.12-.02.12-.02.12-.02.12-.02.11-.03.12-.02.12-.02.12-.03.12-.02.11-.03.12-.03.12-.02.11-.03.12-.03.12-.02.11-.03.12-.03.11-.03.12-.03.12-.02.11-.03.12-.03.11-.03.12-.03.12-.03.11-.02.08-.02.08-.02.08-.02.08-.02.08-.02.08-.02.09-.02.08-.02.08-.02.08-.02.08-.02.08-.02.08-.02.08-.02.08-.02.08-.02.08-.02.08-.03.08-.02.08-.02.08-.04.14-.04.14-.05.14-.04.14-.04.14-.05.14-.04.14-.04.14-.05.14-.04.14-.05.14-.05.14-.04.14-.05.14-.05.14-.05.14-.04.14-.05.13-.05.14-.05.14-.05.14-.01.03-.01.03-.01.03-.01.02-.01.03-.01.03-.01.03-.01.03-.01.03-.02.06v.03l-.01.03-.01.03-.01.03-.01.03-.01.03-.01.03-.01.03-.01.03-.01.03.08.01.08.02.08.02.08.02.08.03.08.03.08.03.08.03.07.03.07.04.08.04.07.05.07.04.07.05.06.05.07.05.06.06.06.05.06.06.06.06.06.06 1.95 2.27.07-.02.07-.02.08-.02.07-.02.07-.02.07-.02.07-.03.07-.02.07-.02.08-.03.07-.02.07-.02.07-.03.07-.02.07-.03.07-.02.08-.03.07-.03.07-.02.07-.03.07-.03.28-3.06.01-.11.02-.11.02-.1.03-.11.03-.11.04-.1.04-.1.04-.1.05-.1.06-.09.05-.1.07-.09.06-.08.07-.09.07-.08.08-.08.08-.07.08-.08.09-.06.09-.07.09-.06.12-.07.11-.07.11-.07.11-.07.11-.08.11-.07.1-.07.11-.08.11-.08.1-.07.11-.08.1-.08.11-.08.1-.08.11-.08.1-.08.1-.09.1-.08.1-.09.1-.08.1-.09.09-.07.09-.07.09-.07.1-.06.09-.05.1-.05.11-.05.1-.04.11-.04.1-.03.11-.03.11-.02.11-.02.11-.01.12-.01h.22l.11.01.12.01.11.02.11.02 2.86.66.05-.07.05-.06.05-.07.05-.06.04-.06.05-.07.05-.06.05-.07.04-.06.05-.07.05-.06.04-.07.05-.06.05-.07.04-.06.05-.07.04-.07.05-.06.04-.07.04-.07.05-.06-1.52-2.63-.06-.09-.05-.1-.04-.1-.04-.1-.04-.11-.03-.1-.02-.11-.02-.1-.02-.11-.01-.11-.01-.11V59.8l.01-.11.01-.11.01-.11.03-.1.02-.11.03-.11.04-.1.04-.1.05-.13.05-.12.04-.13.05-.12.05-.13.04-.13.05-.12.04-.13.04-.13.04-.12.04-.13.04-.13.04-.13.03-.13.04-.13.03-.12.04-.13.03-.13.03-.13.03-.13.03-.13.03-.11.03-.11.04-.11.04-.1.05-.1.05-.1.05-.1.06-.09.06-.09.07-.09.07-.08.07-.08.08-.08.08-.08.08-.07.09-.07.09-.06.09-.06.1-.06.1-.05.1-.05 2.75-1.21.01-.04v-.16l.01-.04V51.97l-.01-.04v-.25l-.01-.04v-.04l-2.75-1.21-.1-.05-.1-.05-.1-.05-.09-.06-.09-.07-.09-.07-.08-.07-.08-.07-.08-.08-.07-.08-.07-.09-.07-.09-.06-.09-.06-.09-.05-.1-.05-.09-.05-.11-.04-.1-.04-.1-.03-.11-.03-.11-.03-.13-.03-.13-.03-.13-.03-.13-.04-.13-.03-.13-.04-.13-.03-.13-.04-.13-.04-.12-.04-.13-.04-.13-.04-.13-.04-.12-.05-.13-.04-.13-.05-.12-.05-.13-.04-.12-.05-.13-.05-.12-.04-.1-.04-.11-.03-.1-.02-.11-.03-.11-.01-.11-.01-.1-.01-.11v-.22l.01-.11.01-.1.02-.11.02-.11.02-.1.03-.11.04-.1.04-.1.04-.1.05-.1.06-.1 1.52-2.62-.05-.07-.04-.07-.04-.06-.05-.07-.04-.06-.05-.07-.04-.07-.05-.06-.05-.07-.04-.06-.05-.07-.05-.06-.04-.07-.05-.06-.05-.07-.05-.06-.04-.07-.05-.06-.05-.06-.05-.07-.05-.06-2.86.65-.11.03-.11.01-.12.02h-.11l-.11.01-.11-.01h-.12l-.11-.02-.11-.01-.11-.03-.11-.02-.1-.04-.11-.03-.1-.05-.1-.04-.1-.05-.1-.06-.1-.06-.09-.06-.09-.07-.09-.08-.1-.08-.1-.09-.1-.08-.1-.09-.1-.08-.1-.08-.11-.08-.1-.08-.1-.08-.11-.08-.1-.08-.11-.08-.11-.07-.1-.08-.11-.07-.11-.08-.11-.07-.11-.07-.11-.07-.11-.07-.11-.07-.1-.06-.09-.07-.08-.07-.09-.07-.08-.07-.08-.08-.07-.08-.07-.09-.06-.09-.06-.09-.06-.09-.06-.1-.04-.09-.05-.1-.04-.1-.04-.11-.03-.1-.03-.11-.02-.11-.02-.11-.01-.11-.28-3.06-.07-.02-.07-.03-.07-.03-.07-.02-.08-.03-.07-.02-.07-.03-.07-.02-.07-.03-.07-.02-.07-.02-.08-.03-.07-.02-.07-.02-.07-.03-.07-.02-.07-.02-.07-.02-.08-.02-.07-.03-.07-.02-1.96 2.27-.05.07z" id="d"/></defs><use xlink:href="#a"/><use xlink:href="#a" fill-opacity="0" stroke="#000" stroke-opacity="0"/><use xlink:href="#b"/><use xlink:href="#b" fill-opacity="0" stroke="#000" stroke-opacity="0"/><g><use xlink:href="#c"/><use xlink:href="#c" fill-opacity="0" stroke="#000" stroke-opacity="0"/></g><g><use xlink:href="#d"/><use xlink:href="#d" fill-opacity="0" stroke="#000" stroke-opacity="0"/></g></svg>