<svg xmlns="http://www.w3.org/2000/svg" xmlns:xlink="http://www.w3.org/1999/xlink" viewBox="79.998 15.705 150 150" width="150" height="150"><defs><path d="M216.67 157.07l-.03.02-.02.02-.03.02-.03.02-.02.02-.03.02-.03.02-.03.02-.02.02-.03.02-.03.02-.02.02-.03.02-.03.03-.03.02-.02.02-.03.02-.03.02-.03.02-.02.02-.03.02-.03.02-.03.02-.03.02-.02.02-.03.02-.03.02-.03.02-.03.02-.02.02-.03.02-.03.02-.03.02-.03.02-.02.02-.03.02-.03.02-.35 3.85-.01.06-.01.07-.01.06-.01.07-.02.06-.01.07-.02.06-.02.06-.02.06-.02.07-.02.06-.03.06-.02.06-.03.05-.03.06-.03.06-.03.05-.04.06-.03.05-.04.06-.04.05-.04.05-.04.05-.04.05-.04.05-.05.05-.04.04-.05.05-.05.04-.05.04-.05.04-.05.04-.05.04-.06.04-.05.04-.06.03-.06.03-.05.03-.06.04-.06.02-.14.07-.14.06-.14.06-.14.07-.14.06-.14.06-.14.06-.15.06-.14.06-.14.05-.14.06-.15.05-.14.06-.14.05-.15.06-.14.05-.14.05-.15.05-.14.05-.15.05-.14.05-.15.05-.14.04-.15.05-.15.04-.14.05-.15.04-.15.04-.14.05-.15.04-.15.04-.15.04-.15.03-.15.04-.14.04-.15.03-.15.04-.15.03-.15.04-.15.03-.03.01h-.05l-.01.01h-.05l-.02.01h-.05l-.02.01h-.08l-.02.01h-.33l-.06-.01h-.05l-.06-.01-.05-.01h-.05l-.06-.01-.05-.02-.05-.01-.05-.01-.05-.01-.05-.02-.06-.02-.05-.01-.05-.02-.05-.02-.05-.02-.04-.02-.05-.03-.05-.02-.05-.03-.04-.02-.05-.03-.05-.03-.04-.02-.05-.03-.04-.03-.04-.04-.04-.03-.05-.03-.04-.04-.04-.03-.04-.04-.04-.04-.04-.03-.03-.04-.04-.04-.04-.04-2.47-2.88H203.08l-.03.01H201.97l-.04-.01h-.1l-2.48 2.88-.04.05-.05.05-.05.04-.04.05-.05.05-.06.04-.05.04-.05.04-.05.04-.06.04-.05.04-.06.03-.06.03-.06.04-.05.03-.06.03-.06.02-.07.03-.06.02-.06.02-.06.02-.07.02-.06.02-.06.01-.07.02-.06.01-.07.01-.06.01-.07.01h-.13l-.07.01h-.07l-.06-.01h-.07l-.07-.01h-.06l-.07-.01-.07-.01-.06-.02-.15-.03-.15-.03-.15-.04-.15-.03-.15-.04-.15-.04-.15-.03-.15-.04-.15-.04-.14-.04-.15-.04-.15-.04-.15-.05-.14-.04-.15-.04-.15-.05-.14-.04-.15-.05-.14-.05-.15-.05-.14-.05-.15-.05-.14-.05-.15-.05-.14-.05-.14-.05-.15-.06-.14-.05-.14-.06-.15-.05-.14-.06-.14-.06-.14-.06-.14-.06-.14-.06-.14-.06-.14-.06-.14-.07-.14-.06-.14-.06-.06-.03-.06-.03-.06-.03-.06-.04-.05-.03-.06-.04-.05-.04-.06-.03-.05-.04-.05-.05-.05-.04-.05-.04-.04-.05-.05-.04-.04-.05-.05-.05-.04-.05-.04-.05-.04-.05-.04-.05-.03-.05-.04-.06-.03-.05-.03-.06-.03-.06-.03-.05-.03-.06-.03-.06-.02-.06-.03-.06-.02-.06-.02-.07-.02-.06-.02-.06-.01-.07-.01-.06-.02-.06-.01-.07-.01-.07v-.06l-.36-3.85-.02-.02-.03-.02-.03-.02-.03-.02-.03-.02-.02-.02-.03-.02-.03-.02-.03-.02-.03-.02-.02-.02-.03-.02-.03-.02-.03-.02-.02-.02-.03-.02-.03-.02-.03-.02-.03-.02-.02-.02-.03-.02-.03-.02-.03-.02-.02-.02-.03-.02-.03-.02-.02-.02-.03-.03-.03-.02-.03-.02-.02-.02-.03-.02-.03-.02-.02-.02-.03-.02-.03-.02-.03-.02-.02-.02-.03-.02-.03-.02-3.62.83-.07.01-.07.01-.06.01-.07.01-.07.01-.06.01h-.27l-.07-.01h-.06l-.07-.01-.06-.01-.07-.01-.06-.01-.07-.01-.06-.02-.07-.02-.06-.02-.06-.02-.06-.02-.07-.02-.06-.03-.06-.03-.06-.03-.05-.03-.06-.03-.06-.03-.06-.04-.05-.03-.06-.04-.05-.04-.05-.04-.05-.05-.05-.04-.05-.05-.05-.04-.05-.05-.05-.05-.1-.12-.1-.11-.1-.12-.1-.12-.11-.12-.1-.11-.09-.12-.1-.12-.1-.12-.1-.12-.1-.12-.09-.13-.1-.12-.09-.12-.09-.12-.1-.13-.09-.12-.09-.12-.09-.13-.09-.13-.09-.12-.09-.13-.09-.13-.09-.12-.09-.13-.08-.13-.09-.13-.08-.13-.09-.13-.08-.13-.08-.13-.09-.13-.08-.13-.08-.13-.08-.14-.08-.13-.08-.13-.07-.14-.08-.13-.08-.14-.03-.05-.03-.06-.03-.06-.02-.06-.03-.06-.02-.06-.02-.06-.02-.07-.02-.06-.02-.06-.01-.06-.01-.07-.02-.06-.01-.06v-.07l-.01-.06-.01-.06v-.32l.01-.07v-.06l.01-.06.01-.07.01-.06.01-.06.02-.07.01-.06.02-.06.02-.06.02-.06.03-.07.02-.06.02-.06.03-.06.03-.05.03-.06.03-.06 1.93-3.31-.01-.04-.01-.03-.02-.03-.01-.04-.01-.03-.01-.04-.01-.03-.01-.04-.02-.03-.01-.03-.01-.04-.01-.03-.01-.04-.01-.03-.01-.04-.01-.03-.02-.04-.01-.03-.01-.04-.01-.03-.01-.03-.01-.04-.01-.03-.01-.04-.01-.04-.01-.03-.01-.04-.01-.03-.01-.04-.02-.03-.01-.04-.01-.03-.01-.04-.01-.04-.01-.03-.01-.04-.01-.03-.01-.04-.01-.04-.01-.03-3.45-1.52-.06-.03-.06-.03-.06-.03-.06-.03-.06-.04-.05-.03-.06-.04-.05-.04-.05-.04-.05-.04-.05-.04-.05-.04-.05-.04-.05-.05-.04-.05-.05-.04-.04-.05-.04-.05-.04-.05-.04-.05-.04-.06-.03-.05-.04-.06-.03-.05-.04-.06-.03-.06-.02-.05-.03-.06-.03-.06-.02-.06-.03-.06-.02-.07-.02-.06-.02-.06-.01-.06-.02-.07-.01-.06-.01-.07-.01-.07-.01-.06-.02-.16-.01-.15-.02-.16-.01-.15-.02-.15-.01-.16-.01-.15-.01-.16-.01-.15-.01-.16-.01-.15-.01-.16v-.15l-.01-.16V139l-.01-.16v-1.24l.01-.15v-.16l.01-.15v-.16l.01-.15.01-.16.01-.15.01-.16.01-.15.01-.16.01-.15.02-.16.01-.15.02-.15.01-.16.02-.15.01-.07.01-.07.01-.06.01-.07.02-.06.01-.06.02-.07.02-.06.02-.06.03-.06.02-.06.03-.06.03-.06.02-.06.03-.06.04-.05.03-.06.04-.05.03-.06.04-.05.04-.05.04-.05.04-.05.04-.05.05-.05.04-.05.05-.04.05-.04.05-.05.05-.04.05-.04.05-.04.05-.04.06-.03.05-.04.06-.03.06-.03.06-.03.06-.03.06-.03 3.45-1.52.01-.04.01-.04.01-.03.01-.04.01-.03.01-.04.01-.04.01-.03.01-.04.01-.03.02-.04.01-.03.01-.04.01-.04.01-.03.01-.04.01-.03.01-.04.01-.03.01-.04.01-.03.01-.04.01-.03.02-.04.01-.03.01-.04.01-.03.01-.03.01-.04.01-.03.01-.04.02-.03.01-.04.01-.03.01-.03.01-.04.01-.03.02-.04.01-.03.01-.03-1.92-3.32-.04-.05-.03-.06-.03-.06-.02-.06-.03-.06-.02-.06-.03-.06-.02-.06-.02-.06-.01-.06-.02-.07-.01-.06-.02-.06-.01-.07-.01-.06-.01-.06v-.07l-.01-.06v-.32l.01-.06.01-.07.01-.06.01-.06.01-.07.01-.06.02-.06.01-.07.02-.06.02-.06.02-.06.03-.06.02-.06.03-.06.03-.06.02-.06.04-.06.07-.13.08-.14.08-.13.08-.13.07-.14.08-.13.08-.13.09-.13.08-.14.08-.13.08-.13.09-.13.08-.13.09-.13.08-.12.09-.13.09-.13.09-.13.09-.12.09-.13.09-.12.09-.13.09-.12.09-.13.1-.12.09-.13.09-.12.1-.12.09-.12.1-.12.1-.12.1-.12.1-.12.09-.12.1-.12.11-.12.1-.11.1-.12.1-.12.1-.11.05-.05.05-.05.05-.05.05-.04.05-.05.05-.04.05-.04.05-.04.06-.04.05-.04.06-.03.06-.04.05-.03.06-.03.06-.03.06-.02.06-.03.06-.02.07-.03.06-.02.06-.02.07-.01.06-.02.06-.01.07-.02.06-.01.07-.01h.07l.06-.01h.07l.06-.01h.07l.07.01h.13l.07.01.06.01.07.01.07.01.06.02 3.64.83.02-.02.03-.02.03-.03.02-.02.03-.02.03-.02.02-.02.03-.02.03-.02.02-.02.03-.02.03-.02.02-.02.03-.02.03-.02.03-.02.02-.02.03-.02.03-.02.03-.02.02-.02.03-.02.03-.02.03-.02.02-.02.03-.02.03-.02.03-.02.03-.02.02-.02.03-.02.03-.02.03-.02.03-.02.02-.02.03-.02.03-.02.03-.02.03-.02.02-.02.36-3.85v-.07l.01-.06.01-.07.02-.07.01-.06.01-.06.02-.07.02-.06.02-.06.02-.06.03-.06.02-.06.03-.06.03-.06.03-.06.03-.06.03-.05.03-.06.04-.05.03-.05.04-.06.04-.05.04-.05.04-.05.05-.05.04-.04.05-.05.04-.04.05-.05.05-.04.05-.04.05-.04.06-.04.05-.04.06-.03.05-.04.06-.03.06-.03.06-.03.06-.03.14-.07.14-.06.14-.06.14-.06.14-.07.14-.06.14-.06.14-.05.14-.06.14-.06.15-.06.14-.05.14-.06.15-.05.14-.05.14-.06.15-.05.14-.05.15-.05.14-.05.15-.05.14-.04.15-.05.14-.05.15-.04.15-.05.14-.04.15-.04.15-.04.15-.04.14-.04.15-.04.15-.04.15-.04.15-.04.15-.03.15-.04.15-.03.15-.04.15-.03.06-.01.07-.01.07-.01.06-.01.07-.01h.33l.07.01h.07l.06.01.07.01.06.01.07.02.06.01.07.02.06.02.06.02.06.02.07.02.06.03.06.03.06.02.06.03.05.04.06.03.06.03.05.04.06.04.05.04.05.04.06.04.05.05.05.04.04.05.05.05.05.05.04.05 2.48 2.87h.27l.04-.01H202.88l.04.01h.27l2.47-2.87.05-.05.04-.05.05-.05.05-.05.05-.05.05-.04.05-.04.06-.04.05-.04.05-.04.06-.04.06-.03.05-.03.06-.04.06-.03.06-.03.06-.02.06-.03.06-.02.06-.02.07-.02.06-.02.06-.02.07-.01.06-.02.07-.01.06-.01.07-.01.07-.01h.4l.06.01.07.01.07.01.06.01.07.01.15.03.15.04.15.03.15.04.15.03.15.04.15.04.14.03.15.04.15.04.15.04.15.05.14.04.15.04.15.05.14.04.15.05.14.04.15.05.15.05.14.05.14.05.15.05.14.05.15.05.14.06.14.05.15.06.14.05.14.06.14.05.15.06.14.06.14.06.14.06.14.06.14.07.14.06.14.06.14.07.06.02.06.04.06.03.05.03.06.03.06.04.05.04.05.04.05.04.05.04.05.04.05.04.05.05.04.04.05.05.04.05.04.05.04.05.04.05.04.05.04.06.03.05.04.06.03.05.03.06.03.06.03.05.03.06.02.06.02.06.03.07.02.06.01.06.02.06.02.07.01.06.01.07.01.06.01.07.01.06.35 3.85.03.02.03.02.03.02.02.02.03.02.03.02.03.02.03.02.02.02.03.02.03.02.03.02.03.02.02.02.03.02.03.02.03.02.02.02.03.02.03.02.03.02.02.02.03.03.03.02.03.02.02.02.03.02.03.02.03.02.02.02.03.02.03.02.02.02.03.02.03.02.02.02.03.02.03.02.03.03.02.02 3.63-.84.07-.01.06-.01.07-.01.07-.01.06-.01h.07l.07-.01h.2l.06.01h.07l.07.01.06.01.07.01.06.01.07.01.06.02.06.02.07.02.06.02.06.02.06.02.06.03.06.03.06.03.06.03.06.03.06.03.05.04.06.03.05.04.06.04.05.04.05.05.05.04.05.05.05.05.05.04.04.05.11.12.1.12.1.11.1.12.1.12.1.12.1.12.1.11.1.12.09.13.1.12.1.12.09.12.1.12.09.13.09.12.1.12.09.13.09.12.09.13.09.12.09.13.09.13.09.12.08.13.09.13.08.13.09.13.08.13.09.13.08.13.08.13.08.13.08.14.08.13.08.13.08.14.08.13.08.13.07.14.03.06.03.06.03.05.03.06.02.07.03.06.02.06.02.06.01.06.02.06.02.07.01.06.01.06.01.07.01.06.01.06v.07l.01.06v.19l-.01.07v.06l-.01.06-.01.07v.06l-.02.06-.01.07-.01.06-.02.06-.02.06-.02.07-.02.06-.02.06-.02.06-.03.06-.03.06-.02.06-.04.05-.03.06-1.92 3.32.01.03.01.03.01.04.01.03.02.04.01.03.01.03.01.04.01.03.01.04.01.03.02.04.01.03.01.03.01.04.01.03.01.04.01.03.01.04.01.03.02.04.01.03.01.04.01.03.01.04.01.03.01.04.01.03.01.04.01.03.01.04.01.04.01.03.01.04.01.03.01.04.01.04.01.03.01.04.01.03 3.46 1.53.06.02.06.03.06.03.05.04.06.03.06.04.05.03.05.04.06.04.05.04.05.04.05.04.04.05.05.04.04.05.05.05.04.05.04.05.04.05.04.05.04.05.03.06.04.05.03.06.03.05.03.06.03.06.03.06.02.06.03.06.02.06.02.06.02.06.02.06.02.07.01.06.01.07.02.06v.07l.01.06.02.16.02.15.01.16.02.15.01.16.01.15.01.16.01.15.01.16.01.15.01.16.01.15.01.15v.16l.01.15v.31l.01.16v.62l-.01.16v.3l-.01.16v.15l-.01.16-.01.15-.01.16-.01.15-.01.16-.01.15-.01.16-.01.15-.01.16-.02.15-.01.16-.02.15-.02.16-.01.06-.01.07-.01.06-.01.07-.01.06-.02.07-.02.06-.02.06-.02.06-.02.07-.03.06-.02.06-.03.05-.03.06-.03.06-.03.06-.04.05-.03.06-.04.05-.04.05-.03.05-.04.06-.05.05-.04.04-.04.05-.05.05-.04.04-.05.05-.05.04-.05.04-.05.04-.06.04-.05.04-.05.04-.06.03-.06.03-.06.04-.05.03-.06.03-.06.02-3.46 1.53-.01.03-.01.04-.01.03-.01.04-.01.04-.01.03-.01.04-.01.03-.01.04-.01.04-.01.03-.01.04-.01.03-.01.04-.01.03-.01.04-.02.03-.01.04-.01.03-.01.04-.01.03-.01.04-.01.03-.01.04-.01.03-.01.04-.02.03-.01.04-.01.03-.01.04-.01.03-.01.03-.01.04-.02.03-.01.04-.01.03-.01.04-.01.03-.01.03-.02.04 1.93 3.31.03.06.03.05.03.06.03.06.02.06.03.06.02.06.02.06.02.07.02.06.01.06.02.06.01.07.01.06.01.06.01.07.01.06v.38l-.01.07v.06l-.01.06-.01.07-.01.06-.02.06-.01.07-.02.06-.02.06-.02.06-.02.06-.02.06-.03.06-.02.06-.03.06-.03.06-.03.06-.08.13-.08.14-.07.13-.08.14-.08.13-.08.13-.08.13-.08.14-.08.13-.09.13-.08.13-.08.13-.09.13-.08.13-.09.13-.09.12-.09.13-.08.13-.09.13-.09.12-.09.13-.09.12-.1.13-.09.12-.09.12-.1.13-.09.12-.1.12-.09.12-.1.12-.09.13-.1.12-.1.11-.1.12-.1.12-.1.12-.1.12-.1.11-.11.12-.1.12-.05.05-.04.04-.05.05-.05.05-.05.04-.05.05-.06.04-.05.04-.05.03-.06.04-.06.04-.05.03-.06.03-.06.03-.06.03-.06.03-.06.03-.06.02-.06.02-.06.02-.07.02-.06.02-.07.01-.06.02-.06.01-.07.01-.07.01-.06.01h-.07l-.06.01h-.2l-.07-.01h-.07l-.06-.01-.07-.01-.07-.01-.06-.01-.07-.01-3.63-.83-.03.02-.03.02-.02.02zm-10.54-38.33l-.05.05-.05.05-.05.05-.05.05-.05.04-.06.05-.05.04-.06.04-.06.04-.06.04-.06.03-.06.04-.06.03-.06.03-.06.03-.07.02-.06.03-.07.02-.06.02-.07.02-.07.02-.06.02-.07.01-.07.01-.07.01-.07.01-.07.01h-.14l-.07.01-.07-.01h-.07l-.07-.01h-.09l-.09-.01-.09-.01h-.09l-.09-.01h-.09l-.09-.01h-.09l-.09-.01h-.18l-.09-.01H202.07l-.09.01h-.18l-.09.01h-.09l-.09.01h-.09l-.09.01h-.09l-.09.01-.09.01h-.09l-.07.01h-.07l-.07.01-.07-.01h-.14l-.07-.01-.07-.01-.07-.01-.07-.01-.07-.01-.06-.02-.07-.02-.07-.02-.06-.02-.07-.02-.06-.03-.07-.02-.06-.03-.06-.03-.06-.03-.06-.04-.06-.03-.06-.04-.06-.04-.05-.04-.06-.04-.05-.05-.06-.04-.05-.05-.05-.05-.05-.05-.05-.05-.04-.05-2.29-2.66-.06.02-.06.01-.06.02-.06.02-.06.01-.06.02-.06.02-.06.02-.06.02-.06.01-.06.02-.06.02-.06.02-.06.02-.05.02-.06.02-.06.02-.06.02-.06.02-.06.02-.06.02-.06.03-.06.02-.06.02-.06.02-.06.02-.06.02-.06.03-.06.02-.06.02-.05.02-.06.03-.06.02-.06.02-.33 3.57v.07l-.01.07-.01.06-.02.07-.01.07-.02.06-.01.07-.02.07-.03.06-.02.06-.02.07-.03.06-.03.06-.03.06-.03.06-.03.06-.04.06-.04.05-.03.06-.04.05-.04.06-.05.05-.04.05-.05.05-.04.05-.05.05-.05.05-.05.04-.05.05-.06.04-.05.04-.06.04-.05.04-.06.04-.08.05-.08.04-.08.05-.07.05-.08.05-.08.05-.07.05-.08.05-.07.05-.08.06-.08.05-.07.05-.07.05-.08.05-.07.06-.08.05-.07.06-.07.05-.08.05-.07.06-.07.06-.08.05-.07.06-.07.05-.07.06-.07.06-.07.06-.07.05-.07.06-.08.06-.06.06-.07.06-.07.06-.07.06-.06.05-.05.04-.06.04-.05.04-.06.04-.06.04-.06.04-.06.03-.06.03-.07.03-.06.03-.06.03-.07.02-.06.03-.07.02-.06.02-.07.02-.07.01-.06.02-.07.01-.07.01-.07.01-.07.01H188.7l-.06-.01-.07-.01-.07-.01-.07-.01-.07-.02-3.35-.77-.04.06-.05.05-.04.05-.04.05-.04.06-.04.05-.04.05-.04.06-.04.05-.04.05-.04.06-.03.05-.04.05-.04.06-.04.05-.04.05-.04.06-.04.05-.03.05-.04.06-.04.05-.04.06-.03.05-.04.05-.04.06-.04.05-.03.06-.04.05-.03.05-.04.06-.04.05-.03.06-.04.05-.03.06 1.77 3.06.04.06.03.06.03.06.03.06.02.07.03.06.02.06.02.07.02.06.02.07.02.06.01.07.01.06.01.07.01.07.01.06.01.07v.33l-.01.07-.01.07-.01.06-.01.07-.01.07-.02.06-.01.07-.02.06-.02.07-.02.06-.03.07-.02.06-.04.09-.03.08-.03.09-.04.09-.03.09-.03.08-.04.09-.03.09-.03.09-.03.08-.03.09-.03.09-.03.09-.03.09-.03.08-.03.09-.02.09-.03.09-.03.09-.03.09-.02.09-.03.09-.02.09-.03.09-.02.09-.03.09-.02.09-.02.09-.03.09-.02.09-.02.09-.02.09-.02.09-.02.09-.02.07-.02.06-.02.07-.02.07-.02.06-.03.07-.02.06-.03.06-.03.06-.04.06-.03.06-.03.06-.04.06-.04.05-.04.06-.04.05-.04.06-.05.05-.04.05-.05.05-.04.05-.05.04-.05.05-.06.04-.05.05-.05.04-.06.04-.06.04-.05.03-.06.04-.06.03-.07.03-.06.04-.06.02-3.21 1.42v.1l-.01.03v.2l-.01.03v.27l-.01.03V138.7l.01.03v.27l.01.03v.2l.01.03v.1l3.21 1.42.06.02.06.04.07.03.06.03.06.04.05.03.06.04.06.04.05.04.05.05.06.04.05.05.05.04.04.05.05.05.04.05.05.05.04.06.04.05.04.06.04.05.04.06.03.06.03.06.04.06.03.06.03.06.02.06.03.07.02.06.02.07.02.07.02.06.02.07.02.09.02.09.02.09.02.09.02.09.03.09.02.09.02.09.03.09.02.09.03.09.02.09.03.09.02.09.03.09.03.09.02.09.03.08.03.09.03.09.03.09.03.09.03.09.03.08.03.09.03.09.03.09.04.08.03.09.03.09.04.08.03.09.03.09.04.08.02.07.03.06.02.07.02.06.02.07.02.06.01.07.01.06.01.07.01.07.01.06.01.07v.34l-.01.06-.01.07-.01.07-.01.06-.01.07-.01.06-.02.07-.02.06-.02.07-.02.06-.02.07-.02.06-.03.06-.03.06-.03.07-.03.06-.04.06-1.78 3.06.04.05.04.06.03.05.04.06.03.05.04.06.04.05.03.06.04.05.04.06.04.05.03.06.04.05.04.05.04.06.03.05.04.06.04.05.04.05.04.06.04.05.04.05.04.06.03.05.04.05.04.05.04.06.04.05.04.05.04.05.04.06.05.05.04.05.04.05 3.32-.78.07-.02.07-.01.07-.01.07-.01.07-.01h.07l.07-.01h.14l.07.01h.07l.07.01.06.01.07.01.07.01.07.01.07.02.06.02.07.02.06.02.07.02.06.03.07.03.06.03.06.03.07.03.06.03.06.04.05.04.06.04.06.04.06.04.05.04.05.05.07.06.07.06.07.06.07.06.07.06.07.06.07.05.07.06.08.06.07.06.07.05.07.06.07.05.08.06.07.06.07.05.08.05.07.06.07.05.08.06.07.05.08.05.07.05.08.06.07.05.08.05.07.05.08.05.08.05.07.05.08.05.08.05.08.04.07.05.06.04.06.04.06.04.05.04.05.04.06.05.05.04.05.05.05.05.04.05.05.05.04.05.04.05.04.06.04.05.04.06.04.05.03.06.04.06.03.06.03.06.03.06.02.06.03.07.02.06.02.06.02.07.02.07.02.06.01.07.02.07.01.06.01.07v.07l.33 3.57.05.02.06.02.06.03.06.02.06.02.06.02.06.03.06.02.06.02.06.02.06.02.06.02.06.02.06.03.06.02.05.02.06.02.06.02.06.02.06.02.06.02.06.02.06.01.06.02.06.02.06.02.06.02.06.02.06.01.06.02.05.02.06.02.06.01.06.02 2.29-2.66.05-.05.05-.05.05-.05.05-.05.05-.05.05-.04.06-.05.05-.04.06-.04.06-.04.06-.04.06-.03.06-.04.06-.03.06-.03.06-.03.07-.02.06-.03.07-.02.06-.02.07-.02.06-.02.07-.02.07-.01.07-.01.07-.01.07-.01.07-.01h.14l.07-.01.07.01h.07l.07.01h.09l.09.01.09.01h.09l.09.01h.09l.09.01h.09l.09.01h.18l.09.01H202.96l.09-.01h.18l.09-.01h.09l.09-.01h.09l.09-.01h.09l.09-.01.09-.01h.09l.02-.01h.17l.02.01h.2l.06.01.07.01h.06l.06.01.06.02.07.01.06.02.06.01.06.02.06.02.06.02.06.02.05.03.06.02.06.03.05.03.06.03.05.03.06.03.05.03.05.04.05.04.05.03.05.04.05.04.05.05.05.04.04.04.05.05.04.04.04.05 2.29 2.66.06-.02.06-.01.06-.02.06-.02.06-.01.06-.02.06-.02.06-.02.06-.02.06-.01.06-.02.06-.02.06-.02.05-.02.06-.02.06-.02.06-.02.06-.02.06-.02.06-.02.06-.02.06-.03.06-.02.06-.02.06-.02.06-.02.06-.02.06-.03.05-.02.06-.02.06-.02.06-.03.06-.02.06-.02.33-3.57v-.07l.01-.07.01-.06.02-.07.01-.07.02-.06.02-.07.02-.07.02-.06.02-.06.03-.07.02-.06.03-.06.03-.06.03-.06.04-.06.03-.06.04-.05.03-.06.04-.05.04-.06.05-.05.04-.05.05-.05.04-.05.05-.05.05-.05.05-.04.05-.05.06-.04.05-.04.06-.04.05-.04.06-.04.08-.05.08-.04.07-.05.08-.05.08-.05.07-.05.08-.05.08-.05.07-.05.08-.06.07-.05.08-.05.07-.05.08-.05.07-.06.08-.05.07-.06.07-.05.08-.05.07-.06.07-.06.07-.05.08-.06.07-.05.07-.06.07-.06.07-.06.07-.05.07-.06.07-.06.07-.06.07-.06.07-.06.07-.06.06-.05.05-.04.06-.04.05-.04.06-.04.06-.04.06-.04.06-.03.06-.03.06-.04.07-.02.06-.03.06-.03.07-.02.07-.02.06-.02.07-.02.07-.02.06-.01.07-.01.07-.01.07-.01.07-.01h.07l.07-.01h.06l.07.01h.14l.07.01.07.01.07.01.07.01.07.02 3.35.77.04-.06.04-.05.04-.05.05-.05.04-.06.04-.05.04-.05.04-.06.04-.05.04-.05.03-.06.04-.05.04-.05.04-.06.04-.05.04-.05.04-.06.04-.05.03-.05.04-.06.04-.05.04-.06.03-.05.04-.05.04-.06.03-.05.04-.06.04-.05.03-.05.04-.06.04-.05.03-.06.04-.05.03-.06-1.78-3.06-.03-.06-.03-.06-.03-.06-.03-.06-.03-.07-.02-.06-.02-.06-.03-.07-.01-.06-.02-.07-.02-.06-.01-.07-.01-.06-.02-.07v-.07l-.01-.06-.01-.07v-.33l.01-.07.01-.07.01-.06.01-.07.01-.07.01-.06.02-.07.02-.06.02-.07.02-.06.02-.07.03-.06.03-.09.04-.09.03-.08.04-.09.03-.09.03-.08.03-.09.04-.09.03-.09.03-.08.03-.09.03-.09.03-.09.03-.09.03-.08.03-.09.02-.09.03-.09.03-.09.03-.09.02-.09.03-.09.02-.09.03-.09.02-.09.03-.09.02-.09.02-.09.03-.09.02-.09.02-.09.02-.09.02-.09.02-.09.02-.07.02-.06.02-.07.02-.07.02-.06.03-.07.02-.06.03-.06.03-.06.03-.06.04-.06.03-.06.04-.06.04-.05.04-.06.04-.05.04-.06.04-.05.05-.05.05-.05.04-.05.05-.04.05-.05.06-.04.05-.05.05-.04.06-.04.06-.04.05-.03.06-.04.06-.03.06-.03.07-.04.06-.02.03-.02.05-.02.06-.03.07-.03.08-.03.09-.04.1-.04.1-.05.11-.05.12-.05.12-.05.13-.06.13-.06.13-.05.13-.06.14-.06.13-.06.14-.06.13-.06.13-.05.13-.06.12-.05.12-.05.11-.05.1-.05.1-.04.09-.04.08-.03.07-.03.06-.03.04-.02.04-.02.02-.01h.01v-.06l.01-.04v-.1l.01-.03v-.1l.01-.03v-.14l.01-.03v-.17l.01-.03V137.61l-.01-.03V137.34l-.01-.03v-.17l-.01-.03v-.03l-3.21-1.42-.06-.02-.06-.04-.06-.03-.06-.03-.06-.04-.06-.03-.06-.04-.05-.04-.06-.04-.05-.05-.05-.04-.05-.05-.05-.04-.05-.05-.05-.05-.04-.05-.05-.05-.04-.06-.04-.05-.04-.06-.04-.05-.03-.06-.04-.06-.03-.06-.03-.06-.03-.06-.03-.06-.03-.06-.02-.07-.03-.06-.02-.07-.02-.07-.02-.06-.01-.07-.02-.09-.02-.09-.03-.09-.02-.09-.02-.09-.02-.09-.03-.09-.02-.09-.02-.09-.03-.09-.02-.09-.03-.09-.02-.09-.03-.09-.03-.09-.02-.09-.03-.09-.03-.08-.03-.09-.03-.09-.03-.09-.03-.09-.03-.09-.03-.08-.03-.09-.03-.09-.03-.09-.03-.08-.04-.09-.03-.09-.03-.08-.04-.09-.03-.09-.04-.08-.02-.07-.02-.06-.03-.07-.02-.06-.02-.07-.01-.06-.02-.07-.01-.06-.01-.07-.01-.07-.01-.06v-.07l-.01-.07v-.2l.01-.07v-.06l.01-.07.01-.07.01-.06.01-.07.02-.06.01-.07.02-.06.02-.07.02-.06.02-.07.03-.06.03-.06.02-.06.03-.07.04-.06.03-.06 1.78-3.06-.04-.05-.03-.06-.04-.05-.03-.06-.04-.05-.04-.06-.03-.05-.04-.06-.04-.05-.03-.06-.04-.05-.04-.06-.04-.05-.03-.05-.04-.06-.04-.05-.04-.06-.04-.05-.04-.05-.03-.06-.04-.05-.04-.05-.04-.06-.04-.05-.04-.05-.04-.05-.04-.06-.04-.05-.04-.05-.04-.05-.04-.06-.04-.05-.04-.05-.04-.05-3.35.76-.07.02-.07.01-.07.01-.07.01-.07.01h-.14l-.07.01-.07-.01h-.14l-.07-.01-.06-.01-.07-.01-.07-.01-.07-.02-.07-.01-.06-.02-.07-.02-.06-.02-.07-.03-.06-.02-.07-.03-.06-.03-.06-.03-.07-.03-.06-.03-.06-.04-.06-.04-.05-.04-.06-.04-.06-.04-.05-.04-.06-.05-.06-.06-.07-.06-.07-.06-.07-.06-.07-.06-.07-.06-.07-.05-.08-.06-.07-.06-.07-.06-.07-.05-.07-.06-.07-.06-.08-.05-.07-.06-.07-.05-.08-.05-.07-.06-.07-.05-.08-.06-.07-.05-.08-.05-.07-.05-.08-.06-.07-.05-.08-.05-.08-.05-.07-.05-.08-.05-.08-.05-.07-.05-.08-.05-.08-.04-.08-.05-.05-.04-.06-.04-.06-.04-.05-.04-.06-.04-.05-.05-.05-.04-.05-.05-.05-.05-.04-.05-.05-.05-.04-.05-.04-.05-.04-.06-.04-.05-.04-.06-.04-.05-.03-.06-.04-.06-.03-.06-.03-.06-.03-.06-.02-.06-.03-.07-.02-.06-.02-.06-.02-.07-.02-.07-.02-.06-.01-.07-.01-.07-.01-.06-.01-.07-.01-.07-.33-3.57-.06-.02-.05-.02-.06-.03-.06-.02-.06-.02-.06-.02-.06-.03-.06-.02-.06-.02-.06-.02-.06-.02-.06-.02-.06-.02-.06-.03-.06-.02-.06-.02-.06-.02-.05-.02-.06-.02-.06-.02-.06-.02-.06-.02-.06-.01-.06-.02-.06-.02-.06-.02-.06-.02-.06-.02-.06-.01-.06-.02-.06-.02-.06-.02-.05-.01-.06-.02-2.29 2.66-.05.05z" id="a"/><path d="M205.19 126.02l1.27.35 1.21.47 1.14.6 1.08.7.99.81.9.9.81 1 .71 1.07.59 1.14.48 1.21.35 1.27.21 1.32.08 1.36-.07 1.36-.22 1.32-.35 1.27-.47 1.21-.6 1.14-.7 1.08-.81.99-.91.9-.99.81-1.07.71-1.15.59-1.21.48-1.27.34-1.32.22-1.36.07-1.36-.07-1.32-.22-1.27-.34-1.21-.48-1.15-.59-1.07-.71-1-.81-.9-.9-.81-.99-.71-1.08-.59-1.14-.48-1.21-.34-1.27-.22-1.32-.07-1.36.07-1.36.22-1.32.34-1.27.48-1.21.59-1.15.71-1.07.81-.99.9-.9 1-.81 1.07-.71 1.15-.59 1.21-.48 1.27-.34 1.32-.22 1.36-.07 1.36.07 1.32.22zm-5.3 5.17l-1.17.56-1.04.74-.91.9-.74 1.05-.55 1.16-.35 1.27-.12 1.35.12 1.35.35 1.27.55 1.16.74 1.05.91.9 1.04.74 1.17.56 1.27.34 1.35.13 1.35-.13 1.27-.34 1.16-.56 1.05-.74.9-.9.74-1.05.56-1.16.35-1.27.12-1.35-.12-1.35-.35-1.27-.56-1.16-.74-1.05-.9-.9-1.05-.74-1.16-.56-1.27-.34-1.35-.13-1.35.13-1.27.34z" id="b"/><path d="M153.08 25.95l1.46.15 1.46.2 1.46.27 1.46.33 1.44.39 1.45.44 1.43.51 1.42.57 1.41.64h.01v.01h.05l.01.01.01.01h.02l.01.01.01.01h.02l.01.01.02.02.03.01.01.01h.01l.02.01.01.01.01.01h.02l.09.05.08.04.09.04.08.04.09.04.08.05.09.04.08.04.08.04.09.05.08.04.08.05.09.04.08.04.09.05.08.04.08.05.09.04.08.05.08.04.08.05.09.04.08.05.08.05.08.04.09.05.08.05.08.04.08.05.08.05.08.05.09.04.08.05.08.05.08.05.08.05.08.05.08.05.08.05.08.05h.01l.01.01h.01l.01.01.01.01.02.01h.01l.01.01h.02v.01h.01l.02.01.03.02.04.02.02.01.02.01.02.01h.01l.01.01h.01l.01.01h.01v.01h.01l.02.01.01.01h.01v.01l.01.01h.01v.01l.03.02.01.01v.01h.01l.05.03.04.03.05.03.04.03.04.02.05.03.04.03.05.03.04.03.04.03.05.03.04.03.04.02.05.03.04.03.05.03.04.03.04.03.05.03.04.03.04.03.05.03.04.03.04.03.04.03.05.03.04.02.04.03.05.03.04.03.04.03.05.03.04.03.04.03.04.03.05.03.04.04.04.03.04.03.05.03h.01l.01.01h.02l.01.01h.01l.01.01.01.01h.01l.01.01.01.01.01.01.01.01h.01l.01.01.01.01.01.01.02.02.03.02.02.02.03.02.01.01.02.02.01.01.01.01.01.01h.01l.01.01.02.01v.01l.01.01h.01l.01.01.02.02.03.02.03.02.03.03.04.02.03.03.05.03.04.04.05.03.05.04.05.04.05.04.06.05.06.04.06.05.07.05.07.05.07.06.07.05.07.06.08.06.07.06.08.07.08.06.09.07.08.07.09.07.08.07.09.07.09.08.1.07.09.08.09.08.1.08.09.08.1.09.1.08.1.09.1.09.1.09.07.07.06.05.05.04.01.01.05.05.04.04.05.04.01.01.02.01.01.02.02.01.01.01.01.02.02.01.01.01.02.02.03.02.03.03.03.03.03.03.01.01.07.07.07.06.07.07.07.07.07.06.07.07.07.07.07.07.07.06.07.07.07.07.07.07.07.07.07.06.06.07.07.07.07.07.07.07.07.07.06.07.07.07.07.07.06.07.07.07.07.07.06.07.07.07.07.07.06.07.07.08.06.07.07.07.06.07.07.07.06.07.07.08.06.07.07.07.06.07.06.08.02.01.01.02h.01v.01h.01l.01.02.02.02.03.03.01.01.01.01.01.01.01.01v.01l.01.01.01.01.01.01.01.02.02.02.02.02.02.03.03.03.03.04.03.03.03.04.03.05.04.04.04.05.04.05.05.05.04.06.05.06.05.06.05.06.05.07.06.06.06.07.05.07.06.08.06.08.07.07.06.08.07.09.06.08.07.09.07.09.07.09.07.09.07.1.07.09.08.1.07.1.07.1.08.1.08.11.07.11.08.1.08.11v.01l.01.01.01.01.01.01.02.02.01.01.01.01.01.01v.01h.01l.01.01v.01l.01.01.01.01v.01l.01.01.01.01.01.02.01.02.01.02.02.03.01.02.01.01.01.01.01.02.02.02.01.02.02.03.01.02.02.02.02.03.01.02.02.03.01.02.02.02.01.03.02.02.02.03.01.02.02.02.01.03.02.02.01.03.03.05.02.02.03.05.03.05.04.07.05.07.02.03.03.04.01.03.02.02.01.03.02.02.01.03.02.02.03.04.03.05.03.04.03.05.02.05.03.04.03.05.03.04.03.05.03.04.03.05.03.04.02.05.03.05.03.04.03.05.03.04.03.05.03.05.02.04.03.05.03.05.03.04.03.05.02.05.03.04.03.05.03.05.02.04.03.05.03.05.03.04.02.05.03.05.03.04.02.05.03.05.03.04.02.05.03.05.02.02.01.03.02.03.01.03.02.03.02.02.01.03.02.03.03.06.01.02.02.03.03.06.01.03.02.02.01.03.02.03.01.03.03.05.02.03.01.03.02.03.01.03.03.05.02.03.01.03.02.03.01.03.02.02.01.03.03.06.02.03.03.05.03.06.02.05.03.05.02.05.03.04.02.05.03.05.02.05.03.05.02.05.03.05.02.04.02.05.03.05.02.05.03.05.02.05.02.05.03.05.02.05.03.04.02.05.02.05.03.05.02.05.02.05.03.05.02.05.02.05.03.05.02.05.02.05.02.05.03.05.02.04.02.05.02.05.03.05.02.05.02.05.04.08.01.02.01.03.01.03.01.02.01.03.02.02.02.05.05.11.02.05.02.05.03.05.01.03.01.02.02.05.01.03.02.02.01.03.01.03.01.02.01.03.01.02.01.03.01.02.02.03.01.03.01.02.01.03.01.02.01.03.01.03.01.02.03.08.03.07.04.08.03.07.03.08.03.08.03.07.03.08.03.07.03.08.03.08.03.07.03.08.03.08.03.07.02.08.03.08.03.07.03.08.03.08.03.07.03.08.02.08.03.07.03.08.03.08.02.07.03.08.03.08.02.07.03.08.03.08.02.08.03.07.02.08.03.08.02.08.03.07.02.08.03.08v.02l.01.01v.02l.01.02v.02l.01.02.01.05.01.02.01.02v.03l.01.01v.01l.02.07.02.08.03.07.02.08.02.07.02.08.02.07.02.08.02.07.03.08.02.07.02.08.02.07.02.08.02.07.02.08.02.07.02.08.02.07.02.08.01.07.02.08.02.07.02.08.02.07.02.08.02.07.01.08.02.07.02.08.02.07.01.08.02.07.02.08.02.07.01.08.02.07.02.08.01.07.02.08v.02l.01.03.01.02v.03l.01.02v.03l.01.02v.03l.01.02v.03l.01.02v.03l.01.02.01.06.01.05v.05l.01.05.01.05.01.02v.03l.03.12.01.08.01.05.01.05v.03l.01.05.01.05.01.06.01.05.01.05.01.06.01.05.01.05.01.06.01.05.01.05.01.06.01.05.01.05.01.06.01.05v.05l.01.06.01.05.01.05.01.06.01.05.01.05v.06l.01.05.01.06.01.05.01.05.01.06v.05l.01.05.01.06.01.05v.06l.01.05.01.05.01.06v.05l.01.05.01.06v.05l.01.02v.02l.01.06v.04l.02.1.01.08v.07l.01.04v.04l.01.02v.03l.01.05v.06l.01.04v.06l.01.06.01.06v.04l.01.04v.08l.01.04v.06l.01.04v.06l.01.04v.08l.01.09.01.08.01.09v.08l.01.09.01.08.01.09v.08l.01.09.01.09v.08l.01.09v.08l.01.09.01.08v.09l.01.09v.08l.01.09v.08l.01.09V61.8l.01.09v.08l.01.09v.26l.01.08v.35l.01.08V63.7l-.01.09v.34l-.01.09v.26l-.01.08v.09l-.01.08v.18l-.01.08v.09l-.01.08v.09l-.01.09v.08l-.01.09-.01.08v.09l-.01.08v.09l-.01.09-.01.08v.09l-.01.08-.01.09-.01.08v.09l-.01.08-.01.09-.01.09v.08l-.01.04v.06l-.01.04v.08l-.01.03v.06l-.01.04v.04l-.01.06-.01.06v.04l-.01.06v.04l-.01.06v.04l-.01.03v.04l-.01.04v.05l-.01.03v.05l-.01.07-.01.09-.01.01v.04l-.01.04v.06l-.01.05-.01.05v.06l-.01.05-.01.06-.01.05v.05l-.01.06-.01.05-.01.05v.06l-.01.05-.01.06-.01.05-.01.05v.06l-.01.05-.01.05-.01.06-.01.05-.01.05-.01.06v.05l-.01.06-.01.05-.01.05-.01.06-.01.05-.01.05-.01.06-.01.05-.01.05-.01.06-.01.05-.01.05-.01.06-.01.05-.01.05-.01.06-.01.05v.02l-.01.05-.01.05-.01.08-.03.15-.01.03-.01.05-.01.05v.05l-.01.05-.01.05-.01.03v.02l-.01.03v.02l-.01.03v.02l-.01.03v.02l-.01.03v.02l-.01.03-.01.02v.03l-.02.07-.01.08-.02.08-.02.07-.01.08-.02.07-.02.08-.02.08-.01.07-.02.08-.02.07-.02.08-.01.07-.02.08-.02.07-.02.08-.02.07-.02.08-.02.07-.01.08-.02.07-.02.08-.02.07-.02.08-.02.07-.02.08-.02.07-.02.08-.02.07-.02.07-.03.08-.02.07-.02.08-.02.07-.02.08-.02.07-.02.07-.03.08-.02.07-.02.08-.01.01v.03h-.01v.03l-.01.02v.01l-.02.06v.02l-.01.02v.01l-.01.02v.02l-.03.07-.02.08-.03.08-.02.08-.03.07-.02.08-.03.08-.02.08-.03.08-.03.07-.02.08-.03.08-.03.07-.02.08-.03.08-.03.08-.03.07-.02.08-.03.08-.03.07-.03.08-.03.08-.03.07-.03.08-.02.08-.03.07-.03.08-.03.08-.03.07-.03.08-.03.07-.03.08-.03.08-.03.07-.03.08-.03.07-.03.08-.04.07-.03.08-.03.07-.01.03-.01.03-.01.02-.01.03-.01.02-.01.03-.01.02-.02.03-.01.03-.01.02-.01.03-.01.02-.01.03-.01.02-.01.03-.02.03-.02.05-.01.02-.01.03-.03.05-.02.05-.01.03-.01.02-.03.05-.03.08-.04.08-.02.05-.01.02-.01.03-.01.02-.02.03-.02.05-.02.05-.02.05-.03.05-.02.05-.02.05-.02.05-.03.05-.02.05-.02.05-.02.04-.03.05-.02.05-.02.05-.03.05-.02.05-.02.05-.03.05-.02.05-.02.05-.03.05-.02.05-.03.04-.02.05-.02.05-.03.05-.02.05-.03.05-.02.05-.02.05-.03.05-.02.04-.03.05-.02.05-.03.05-.02.05-.03.05-.02.05-.03.05-.02.04-.03.06-.02.03-.09.17-.03.05-.03.06-.03.06-.03.05-.03.06-.01.03-.02.03-.01.02-.02.03-.01.03-.02.03-.01.03-.02.03-.01.02-.02.03-.01.03-.02.03-.01.03-.02.02-.01.03-.02.03-.02.03-.01.02-.02.03-.01.03-.02.03-.03.05-.02.04-.03.05-.03.05-.02.04-.03.05-.03.05-.02.04-.03.05-.03.04-.03.05-.02.05-.03.04-.03.05-.03.05-.02.04-.03.05-.03.05-.03.04-.03.05-.02.04-.03.05-.03.05-.03.04-.03.05-.03.04-.03.05-.02.05-.03.04-.03.05-.03.04-.03.05-.03.05-.03.04-.03.05-.02.04-.03.05-.03.04-.03.05-.03.04-.02.03-.01.02-.02.03-.01.02-.02.03-.01.02-.03.05-.02.02-.03.05-.06.1-.03.05-.03.05-.02.02-.03.05-.01.02-.02.03-.01.02-.02.02-.01.03-.02.02-.02.03-.01.02-.02.02-.01.03-.02.02-.01.03-.02.02-.02.02-.01.03-.02.02-.01.03-.02.02-.01.01-.01.01-.01.02-.01.02-.01.01-.01.03-.02.02-.01.02-.01.01v.01h-.01v.01l-.01.02h-.01l-.01.02-.01.01-.02.02-.01.02-.01.01-.01.01-.01.01-.01.01-.01.01-.01.01-.01.01-.01.02-.02.03-.03.02-.02.04-.03.03-.02.04-.03.04-.04.05-.07.09-.04.06-.04.05-.04.06-.04.06-.05.06-.05.07-.05.07-.05.07-.05.07-.06.07-.05.08-.06.07-.06.08-.06.09-.07.08-.06.08-.07.09-.07.09-.07.09-.07.09-.07.09-.08.09-.08.1-.07.09-.08.1-.08.1-.08.1-.09.1-.08.1-.09.1-.01.02-.02.01-.01.02-.01.01-.02.02-.04.05-.02.01-.01.02-.02.01-.01.02-.01.01-.07.08-.06.07-.07.07-.06.08-.06.07-.07.07-.06.07-.07.07-.07.08-.06.07-.07.07-.06.07-.07.07-.06.07-.07.07-.07.07-.06.07-.07.07-.07.07-.07.07-.06.07-.07.07-.07.07-.07.07-.06.07-.07.07-.07.07-.07.07-.07.07-.07.06-.07.07-.07.07-.07.07-.07.06-.07.07-.07.07-.07.07-.07.06-.07.07-.07.07-.01.01-.02.01-.01.02-.02.01-.01.01-.02.02-.01.01-.02.01-.01.02-.02.01-.01.01-.02.02-.03.03-.02.02-.05.04-.06.06-.12.1-.06.06-.04.04-.03.02-.02.02-.03.02-.03.03-.03.02-.03.03-.04.04-.04.03-.04.04-.09.08-.05.04-.05.04-.06.05-.06.05-.06.05-.06.06-.06.05-.07.06-.07.06-.07.06-.07.06-.08.06-.08.07-.08.06-.08.07-.08.07-.09.07-.09.07-.09.07-.09.08-.09.07-.1.08-.09.07-.1.08-.1.08-.1.08-.11.08-.1.08-.11.08-.11.08h-.01l-.01.01-.01.01-.01.01-.02.01-.01.01-.01.01h-.01v.01l-.02.01-.02.02-.02.02-.03.02-.02.02-.02.02-.01.01-.02.01-.01.01-.01.01h-.01v.01l-.02.01-.01.01-.01.01h-.01l-.01.01-.01.01h-.01l-.02.01h-.02v.01h-.01l-.04.03-.05.03-.04.03-.04.03-.05.03-.04.03-.04.03-.05.03-.04.03-.04.03-.05.03-.04.03-.04.03-.05.03-.04.03-.05.03-.04.03-.04.03-.05.03-.04.03-.04.03-.05.03-.04.03-.04.03-.05.03-.04.03-.05.03-.04.02-.04.03-.05.03-.04.03-.05.03-.04.03-.04.03-.05.03-.04.02-.05.03-.04.03-.04.03-.05.03-.01.01-.01.01-.01.01-.02.01v.01h-.01l-.01.01-.01.01h-.01l-.01.01-.01.01h-.02l-.01.01-.01.01h-.01l-.01.01h-.01l-.01.01h-.01l-.02.02-.06.02-.02.02-.03.01-.01.01-.02.01-.01.01h-.02l-.08.06-.08.05-.08.05-.09.04-.08.05-.08.05-.08.05-.08.05-.09.05-.08.05-.08.05-.08.05-.09.04-.08.05-.08.05-.09.04-.08.05-.08.05-.09.05-.08.04-.09.05-.08.04-.08.05-.09.04-.08.05-.09.04-.08.05-.09.04-.08.05-.09.04-.08.05-.09.04-.08.04-.09.05-.08.04-.09.04-.08.04-.09.05-.09.04-.08.04h-.01l-.01.01-.01.01h-.02v.01l-.02.01-.02.01-.03.02h-.02l-.01.01-.01.01h-.01l-.01.01-.01.01h-.02l-.01.01h-.01v.01h-.02v.01h-.04l-.37.18-.38.17-.38.17-.38.16-.39.16-.38.16-.39.15-.39.15-.39.14-.39.14-.39.14-.39.13-.4.12-.39.12-.4.12-.4.11-.4.11-.4.1-.4.1-.41.09-.4.09-.41.09-.4.08-.41.08-.41.07-.41.06-.41.07-.41.06-.41.05-.41.05-.41.04-.41.04-.42.04-.41.03-.42.02-.41.02-.42.02-.41.01-.42.01h-.83l-.42-.01-.42-.01-.41-.01-.42-.02-.41-.03-.42-.03-.41-.03-.41-.04-.42-.05-.41-.04-.41-.06-.41-.05-.41-.07-.41-.06-.41-.07-.4-.08-.41-.08-.41-.08-.4-.09-.41-.09-.4-.1-.4-.1-.4-.11-.4-.11-.4-.12-.39-.12-.4-.12-.39-.13-.4-.13-.39-.14-.39-.14-.39-.15-.38-.15-.39-.15-.38-.16-.39-.17-.38-.16-.38-.18-.37-.17-1.39-.69-1.34-.74-1.3-.79-1.26-.83-1.21-.87-1.18-.92-1.12-.96-1.09-1-1.04-1.04-.99-1.07-.95-1.11-.9-1.14-.86-1.17-.81-1.2-.76-1.23-.71-1.25-.66-1.28-.61-1.31-.56-1.32-.51-1.35-.45-1.36-.41-1.38-.35-1.39-.3-1.41-.24-1.42-.19-1.44-.14-1.44-.08-1.44-.02-1.46.03-1.45.1-1.46.14-1.46.21-1.46.27-1.46.33-1.45.38-1.45.45-1.44.51-1.43.57-1.42.64-1.41.69-1.38.74-1.34.78-1.3.84-1.26.87-1.21.92-1.17.96-1.13 1-1.09 1.04-1.03 1.07-1 1.11-.95 1.14-.9 1.17-.85 1.2-.81 1.23-.76 1.26-.71 1.28-.66 1.3-.61 1.33-.56 1.35-.5 1.36-.46 1.38-.41 1.4-.35 1.41-.3 1.42-.24 1.43-.19 1.44-.14 1.45-.07 1.46-.03 1.45.04 1.46.09zm-3.55 4.84l-.23.01h-.24l-.23.01-.24.01-.23.01-.24.01-.23.02-.24.01-.23.02-.23.02-.24.02-.23.03-.24.02-.23.03-.23.02-.23.03-.24.04-.23.03-.23.03-.23.04-.24.04-.23.04-.23.04-.23.04-.23.05-.23.04-.23.05-.23.05-.23.05-.23.06-.23.05-.22.06-.23.05-.23.06-.23.07-.22.06-.23.06-.23.07-1.27.41-1.25.45-1.22.5-1.19.55-1.15.59-1.13.63-1.1.68-1.06.71-1.03.75-.99.78-.96.83-.92.86-.89.89-.85.92-.82.95-.77.98-.74 1.01-.69 1.04-.66 1.06-.61 1.08-.58 1.11-.53 1.13-.48 1.15-.45 1.17-.39 1.18-.36 1.2-.3 1.22-.26 1.23-.22 1.24-.16 1.25-.12 1.27-.06 1.27-.02 1.28.04 1.28.09 1.29.14 1.29.19 1.29.25 1.3.3 1.29.35 1.29.41 1.27.46 1.25.5 1.22.55 1.19.59 1.15.63 1.13.67 1.09.71 1.07.76 1.02.78 1 .83.96.85.92.9.89.92.85.95.81.98.77 1.01.74 1.04.7 1.06.65 1.09.61 1.11.58 1.13.53 1.15.48 1.17.45 1.18.39 1.2.36 1.22.3 1.23.26 1.24.21 1.26.17 1.26.11 1.27.07 1.28.01 1.29-.03 1.29-.09 1.29-.14 1.29-.19 1.3-.25 1.29-.3 1.29-.35-.04-.04-.05-.03-.05-.03-.04-.03-.05-.03-.04-.03-.05-.03-.05-.03-.04-.03-.05-.03-.09-.06-.05-.03-.05-.03-.04-.03-.05-.03-.04-.03-.05-.03-.05-.03-.04-.03-.05-.03-.04-.03-.05-.03-.05-.03-.04-.03-.05-.03-.04-.03-.05-.03-.04-.03-.05-.03-.04-.03-.05-.03-.04-.04-.04-.03-.05-.03-.04-.03-.04-.03-.05-.03-.04-.03-.04-.04-.07-.05-.06-.05-.06-.05-.05-.05-.06-.06-.05-.06-.05-.06-.05-.06-.05-.06-.05-.06-.04-.06-.04-.07-.04-.06-.04-.07-.03-.07-.03-.07-.03-.07-.03-.07-.03-.07-.02-.08-.02-.07-.02-.07-.02-.08-.02-.07-.01-.08-.01-.07-.01-.08v-.08l-.01-.07v-.08l.01-.08v-.08l.01-.07v-.08l.02-.08.01-.08.02-.07.01-.08.03-.08.02-.07 1.15-3.5-.04-.03-.03-.04-.04-.03-.03-.03-.04-.04-.03-.03-.04-.03-.04-.04-.03-.03-.04-.04-.03-.03-.04-.03-.03-.04-.03-.03-.04-.04-.03-.03-.04-.03-.03-.04-.04-.03-.03-.04-.04-.03-.03-.04-.04-.03-.03-.04-.03-.03-.04-.04-.03-.03-.04-.03-.03-.04-.03-.03-.04-.04-.03-.03-.04-.04-.03-.03-.03-.04-.04-.04-.03-.03-.03-.04-.04-.03-.03-.04-3.5 1.15-.08.02-.07.03-.08.01-.08.02-.08.01-.07.02h-.08l-.08.01h-.08l-.07.01h-.08l-.08-.01h-.07l-.08-.01-.08-.01-.07-.01-.08-.02-.07-.02-.08-.02-.07-.02-.07-.02-.08-.03-.07-.03-.07-.03-.07-.03-.06-.03-.07-.04-.07-.04-.06-.04-.07-.05-.06-.04-.06-.05-.06-.05-.06-.05-.06-.05-.05-.06-.06-.06-.05-.05-.05-.07-.05-.06-.14-.18-.14-.18-.13-.19-.14-.18-.13-.19-.13-.18-.13-.19-.13-.19-.13-.19-.13-.19-.12-.19-.13-.19-.12-.19-.13-.19-.12-.2-.12-.19-.12-.19-.11-.2-.12-.19-.12-.2-.11-.2-.11-.2-.12-.19-.11-.2-.11-.2-.11-.2-.1-.21-.11-.2-.1-.2-.11-.2-.1-.21-.1-.2-.1-.21-.1-.2-.1-.21-.09-.21-.1-.21-.09-.2-.09-.21-.09-.21-.03-.08-.03-.07-.03-.08-.02-.07-.02-.08-.02-.07-.01-.08-.02-.08-.01-.07v-.08l-.01-.08V76.79l.01-.07.01-.08.01-.07.01-.08.02-.07.01-.08.02-.07.03-.08.02-.07.03-.07.03-.07.03-.07.03-.07.04-.07.03-.07.04-.06.05-.07.04-.06.05-.06.05-.07.05-.06.05-.06.05-.05.06-.06.06-.05 2.78-2.5-.01-.05-.02-.05-.01-.04-.02-.05-.01-.05-.01-.04-.02-.05-.01-.05-.01-.04-.02-.05-.01-.05-.01-.04-.01-.05-.02-.05-.01-.04-.01-.05-.02-.05-.01-.05-.01-.04-.01-.05-.02-.05-.01-.04-.01-.05-.01-.05-.02-.04-.01-.05-.01-.05-.01-.04-.01-.05-.02-.05-.01-.04-.01-.05-.01-.05-.01-.05-.01-.04-.02-.05-.01-.05-.01-.04-.01-.05-.01-.05-3.62-.75-.08-.01-.08-.02-.07-.03-.08-.02-.07-.03-.08-.03-.07-.03-.07-.03-.07-.04-.06-.04-.07-.04-.07-.04-.06-.04-.06-.05-.06-.04-.06-.05-.06-.05-.05-.05-.06-.06-.05-.05-.05-.06-.05-.06-.05-.06-.04-.06-.05-.06-.04-.07-.04-.06-.04-.07-.03-.07-.03-.07-.04-.07-.03-.07-.02-.07-.03-.08-.02-.07-.02-.08-.02-.08-.01-.07-.02-.08-.01-.08-.03-.23-.03-.22-.02-.23-.03-.23-.02-.23-.02-.23-.03-.22-.01-.23-.02-.23-.02-.23-.01-.23-.02-.22-.01-.23-.01-.23-.01-.23v-.23l-.01-.23v-1.37l.01-.23v-.23l.01-.22.01-.23.01-.23.02-.23.01-.23.02-.23.02-.22.01-.23.03-.23.02-.23.02-.23.03-.22.02-.23.03-.23.03-.22.01-.08.02-.08.01-.08.02-.08.02-.07.02-.08.03-.07.02-.07.03-.08.04-.07.03-.07.03-.06.04-.07.04-.07.04-.06.05-.06.04-.07.05-.06.05-.05.05-.06.05-.06.06-.05.05-.05.06-.05.06-.05.06-.05.06-.05.06-.04.07-.04.07-.04.06-.04.07-.03.07-.04.07-.03.08-.03.07-.02.08-.03.07-.02.08-.02.08-.02 3.62-.75.01-.04.01-.05.01-.05.01-.05.01-.04.01-.05.01-.05.02-.04.01-.05.01-.05.01-.05.01-.04.01-.05.02-.05.01-.04.01-.05.01-.05.01-.04.02-.05.01-.05.01-.04.01-.05.02-.05.01-.05.01-.04.02-.05.01-.05.01-.04.02-.05.01-.05.01-.04.02-.05.01-.05.01-.04.02-.05.01-.05.02-.04.01-.05.01-.05.02-.04-2.78-2.5-.06-.06-.06-.05-.05-.06-.06-.06-.05-.06-.05-.06-.04-.06-.05-.07-.04-.06-.04-.07-.04-.07-.03-.06-.04-.07-.03-.07-.03-.08-.02-.07-.03-.07-.02-.07-.02-.08-.02-.07-.01-.08-.02-.07-.01-.08v-.07l-.01-.08v-.08l-.01-.07v-.08l.01-.08v-.07l.01-.08.01-.08.01-.08.02-.07.02-.08.02-.07.02-.08.03-.07.02-.08.03-.07.09-.21.1-.21.09-.21.09-.21.1-.2.1-.21.09-.21.1-.2.1-.21.11-.2.1-.2.1-.21.11-.2.11-.2.1-.2.11-.2.11-.2.11-.2.12-.19.11-.2.12-.2.11-.19.12-.2.12-.19.12-.2.12-.19.12-.19.13-.19.12-.19.13-.19.12-.19.13-.19.13-.19.13-.19.13-.18.14-.19.13-.18.14-.19.13-.18.14-.18.05-.06.05-.06.05-.06.06-.06.05-.06.06-.05.06-.05.06-.05.06-.05.06-.04.07-.04.06-.04.07-.04.07-.04.06-.03.07-.04.07-.03.08-.03.07-.02.07-.03.07-.02.08-.02.07-.01.08-.02.07-.01.08-.01.07-.01.08-.01h.31l.08.01.07.01.08.01.08.01.08.02.07.02.08.02.08.02 3.5 1.15.03-.04.03-.03.04-.04.03-.03.03-.04.04-.03.03-.04.04-.03.03-.04.03-.03.04-.04.03-.03.04-.04.03-.03.03-.04.04-.03.03-.04.04-.03.03-.04.04-.03.03-.03.03-.04.04-.03.03-.04.04-.03.03-.04.04-.03.03-.03.04-.04.03-.03.04-.04.03-.03.04-.03.03-.04.04-.03.03-.03.04-.04.03-.03.04-.03.03-.04-1.14-3.5-.03-.07-.02-.08-.02-.08-.01-.07-.02-.08-.01-.08-.01-.08v-.07l-.01-.08v-.16l.01-.07v-.08l.01-.08.01-.07.01-.08.02-.07.01-.08.02-.07.03-.07.02-.08.03-.07.02-.07.03-.07.04-.07.03-.07.04-.07.04-.06.04-.07.04-.06.05-.06.05-.07.05-.06.05-.05.05-.06.06-.06.05-.05.06-.05.06-.05.07-.05.04-.04.04-.03.04-.03.05-.03.04-.03.04-.03.05-.03.04-.03.05-.04.04-.03.05-.03.04-.03.05-.03.04-.03.05-.03.04-.03.05-.03.04-.03.05-.03.04-.03.05-.03.05-.03.04-.03.05-.03.05-.03.04-.03.05-.03.04-.03.05-.03.09-.06.05-.03.05-.03.04-.03.05-.03.05-.03.04-.03.05-.03.04-.03.05-.03-.23-.07-.22-.06-.23-.07-.23-.06-.22-.06-.23-.06-.23-.05-.23-.06-.23-.05-.23-.05-.22-.05-.23-.05-.23-.05-.23-.04-.24-.05-.23-.04-.23-.04-.23-.04-.23-.03-.23-.04-.24-.03-.23-.03-.23-.03-.23-.03-.24-.03-.23-.02-.23-.03-.24-.02-.23-.02-.24-.01-.23-.02-.24-.02-.23-.01-.24-.01-.23-.01-.24-.01h-.23l-.24-.01h-.94zm15.33 3.81l-.1.05-.09.05-.09.05-.1.05-.09.06-.09.05-.1.05-.09.05-.09.05-.1.05-.09.06-.09.05-.09.05-.1.06-.09.05-.09.05-.09.06-.09.05-.09.06-.1.05-.09.06-.09.05-.09.06-.09.06-.09.05-.09.06-.09.06-.09.05-.09.06-.09.06-.09.06-.09.06 1.09 3.28.02.09.03.09.02.08.02.09.01.09.01.08.01.09v.09l.01.09v.08l-.01.09v.09l-.01.08-.02.09-.01.08-.02.09-.02.08-.03.08-.03.09-.03.08-.03.08-.03.08-.04.07-.04.08-.05.08-.04.07-.05.07-.06.07-.05.07-.06.07-.06.06-.06.07-.07.06-.06.06-.1.08-.11.09-.1.09-.1.09-.1.09-.1.08-.09.09-.1.09-.1.09-.1.09-.1.1-.09.09-.1.09-.09.09-.1.09-.09.1-.1.09-.09.1-.1.09-.09.1-.09.09-.09.1-.1.1-.09.09-.09.1-.09.1-.09.1-.09.1-.09.1-.08.1-.09.1-.09.1-.09.1-.08.1-.06.07-.06.06-.07.06-.06.06-.07.06-.07.05-.07.05-.07.05-.07.05-.08.04-.07.04-.08.04-.08.04-.08.03-.08.03-.08.03-.08.02-.09.03-.08.01-.09.02-.08.01-.09.01-.08.01h-.09l-.08.01-.09-.01h-.09l-.09-.01-.08-.01-.09-.01-.09-.02-.08-.02-.09-.03-.08-.02-3.31-1.09-.07.11-.07.11-.07.1-.07.11-.07.11-.07.11-.07.1-.07.11-.07.11-.07.11-.07.11-.06.11-.07.11-.07.11-.06.11-.07.11-.06.11-.07.11-.06.11-.07.11-.06.11-.06.12-.07.11-.06.11-.06.11-.06.12-.06.11-.06.11-.06.12-.06.11-.06.11-.06.12-.06.11-.06.12 2.63 2.34.06.06.07.07.06.06.05.07.06.07.05.07.05.07.05.07.04.07.05.08.04.08.03.08.04.07.03.08.02.09.03.08.02.08.02.08.02.09.01.08.01.09.01.08.01.09V53.23l-.01.09v.09l-.01.08-.02.09-.01.09-.02.08-.02.09-.03.08-.03.09-.04.12-.05.13-.04.12-.04.13-.05.13-.04.12-.04.13-.04.12-.04.13-.04.13-.04.13-.04.12-.03.13-.04.13-.04.13-.03.12-.04.13-.03.13-.03.13-.04.13-.03.13-.03.12-.03.13-.03.13-.03.13-.03.13-.03.13-.03.13-.02.13-.03.13-.03.13-.02.13-.03.13-.02.13-.02.09-.02.09-.02.08-.03.09-.03.08-.03.08-.03.08-.04.08-.04.08-.04.07-.05.08-.05.07-.05.07-.05.07-.05.06-.06.07-.06.06-.06.06-.06.06-.07.05-.07.06-.06.05-.08.05-.07.05-.07.04-.08.04-.08.04-.07.04-.08.03-.09.03-.08.03-.09.03-.08.02-.09.02-3.43.72v.07l-.01.07v.07l-.01.07v.06l-.01.07v.07l-.01.06v.13l-.01.07v.13l-.01.07v.13l-.01.06v.19l-.01.07v.37l-.01.07V63.64l.01.07v.37l.01.07v.19l.01.06v.13l.01.07v.13l.01.07v.13l.01.06v.07l.01.07v.06l.01.07v.07l.01.07v.07l3.43.72.09.02.08.02.09.03.08.03.09.03.08.03.07.04.08.04.08.04.07.04.07.05.08.05.06.05.07.06.07.05.06.06.06.06.06.06.06.07.05.06.05.07.05.07.05.07.05.08.04.07.04.08.04.08.03.08.03.08.03.08.03.09.02.08.02.09.02.09.02.13.03.13.02.13.03.13.03.13.02.13.03.13.03.13.03.13.03.13.03.13.03.12.03.13.03.13.04.13.03.13.03.13.04.12.03.13.04.13.04.13.03.12.04.13.04.13.04.13.04.12.04.13.04.12.04.13.05.13.04.12.04.13.05.12.04.13.03.08.03.09.02.08.02.09.01.08.02.09.01.09v.08l.01.09V73.48l-.01.09-.01.09-.01.08-.01.09-.02.08-.02.09-.02.08-.02.08-.03.08-.03.08-.04.08-.03.08-.04.08-.05.07-.04.08-.05.07-.05.07-.05.07-.06.07-.05.07-.06.06-.07.06-.06.06-2.63 2.35.06.12.06.11.06.12.06.11.06.11.06.12.06.11.06.11.06.12.06.11.06.11.07.11.06.12.06.11.07.11.06.11.07.11.06.11.07.11.06.11.07.11.07.11.06.11.07.11.07.11.07.11.07.11.07.1.07.11.07.11.07.11.07.1.07.11.07.11 3.3-1.09.09-.02.09-.03.08-.02.09-.02.09-.01.08-.01.09-.01h.09l.08-.01.09.01h.08l.09.01.09.01.08.01.09.02.08.02.08.02.09.02.08.03.08.03.08.03.07.04.08.04.08.04.07.04.08.05.07.05.07.05.07.05.06.06.07.06.06.06.06.06.06.07.09.1.09.1.08.1.09.1.09.1.09.1.09.1.09.1.09.1.09.1.09.09.09.1.09.1.1.09.09.1.09.09.1.1.09.09.1.09.09.1.1.09.09.09.1.09.1.09.1.09.09.09.1.09.1.09.1.09.1.09.1.09.1.09.1.08.1.09.07.06.07.06.06.06.06.07.06.06.05.07.05.07.05.08.05.07.04.07.04.08.04.08.04.07.03.08.03.09.03.08.02.08.02.08.02.09.02.08.01.09.01.08.01.09v.34l-.01.09-.01.09-.02.08-.01.09-.02.09-.03.08-.02.09-1.09 3.29.09.05.09.06.09.06.09.06.09.06.09.05.09.06.09.06.09.05.09.06.09.05.09.06.1.06.09.05.09.06.09.05.09.05.09.06.1.05.09.05.09.06.09.05.1.05.09.05.09.06.1.05.09.05.09.05.1.05.09.05.09.05.1.05.09.05.1.05.05-.03.04-.02.05-.03.05-.02.05-.03.04-.02.05-.03.05-.02.04-.03.05-.03.05-.02.04-.03.05-.02.05-.03.04-.03.05-.02.05-.03.04-.03.05-.02.04-.03.05-.03.04-.02.05-.03.05-.03.04-.02.05-.03.04-.03.05-.02.04-.03.05-.03.04-.02.05-.03.05-.03.04-.03h.01l.05-.03.01-.01h.01l.02-.01.02-.02.05-.02.02-.02.02-.01.01-.01h.01l.02-.01.04-.03.03-.01.02-.02.02-.01.02-.02.03-.01.01-.01.02-.01.03-.02.94-1.05.04-.05.05-.04.04-.04.04-.04.04-.04.05-.04.05-.04.04-.03.05-.04.05-.03.05-.04.05-.03.05-.03.05-.03.05-.03.05-.02.06-.03.05-.02.05-.02.06-.03.05-.02.06-.01.05-.02.06-.02.06-.01.06-.02.05-.01.06-.01.06-.01.06-.01.06-.01h.06l.06-.01h.06l.16-.12.13-.11.13-.1.13-.11.13-.1.13-.11.13-.11.13-.11.13-.11.12-.11.13-.11.12-.11.13-.11.12-.11.13-.11.12-.12.12-.11.13-.12.12-.11.12-.12.12-.12.12-.11.12-.12.12-.12.11-.12.12-.12.12-.12.11-.12.12-.12.11-.13.12-.12.11-.12.11-.13.12-.12.11-.13-.68-.19-.66-.21-.66-.24-.65-.25-.64-.27-.62-.29-.62-.31-.6-.33-.6-.35-.58-.36-.57-.38-.55-.39-.55-.42-.53-.42-.51-.45-.51-.46-.49-.47-.47-.49-.46-.5-.44-.52-.43-.53-.42-.54-.39-.56-.38-.57-.36-.58-.35-.59-.33-.61-.31-.61-.29-.63-.27-.63-.25-.65-.24-.66-.21-.66-.2-.68-.25-1.06-.21-1.05-.16-1.06-.1-1.05-.05-1.05-.01-1.05.05-1.03.09-1.03.14-1.02.19-1.01.23-1 .27-.98.32-.96.36-.95.41-.93.44-.92.49-.89.52-.86.56-.85.6-.82.64-.79.68-.76.71-.73.74-.7.78-.67.81-.64.84-.6.88-.56.9-.52.93-.48.97-.45.99-.39 1.01-.36 1.05-.31-.11-.13-.12-.12-.11-.13-.12-.12-.11-.13-.12-.12-.12-.12-.11-.13-.12-.12-.12-.12-.12-.12-.12-.12-.12-.12-.12-.12-.12-.12-.13-.11-.12-.12-.12-.12-.13-.11-.12-.12-.13-.11-.12-.11-.13-.12-.13-.11-.13-.11-.13-.11-.12-.11-.13-.11-.13-.11-.14-.11-.13-.11-.13-.1-.13-.11-.13-.1-.17-.13h-.06l-.06-.01-.05-.01h-.06l-.06-.01-.05-.01-.06-.01-.05-.01-.06-.02-.05-.01-.06-.02-.05-.02-.05-.01-.06-.02-.05-.02-.05-.02-.05-.03-.05-.02-.05-.03-.05-.02-.05-.03-.05-.03-.05-.03-.05-.03-.05-.03-.04-.03-.05-.04-.04-.03-.05-.04-.04-.03-.04-.04-.04-.04-.04-.04-.04-.04-.95-1.06-.02-.01-.04-.02-.04-.02-.01-.01-.04-.03-.04-.02-.01-.01-.04-.02-.03-.02-.03-.02-.02-.01-.01-.01-.03-.01-.02-.02-.03-.01-.04-.03-.05-.03-.04-.02-.05-.03-.04-.03-.05-.02-.04-.03-.05-.03-.05-.03-.04-.02-.05-.03-.04-.03-.05-.03-.05-.02-.04-.03-.05-.03-.05-.02-.04-.03-.05-.03-.05-.02-.04-.03-.05-.03-.05-.02-.05-.03-.04-.03-.05-.02-.05-.03-.05-.02-.04-.03-.05-.03-.05-.02-.05-.03-.05-.02-.04-.03-.05-.02-.1.04-.09.05zm9.98 11.98l-1.25.44-1.21.52-1.16.62-1.1.69-1.05.77-.98.85-.92.92-.85.98-.77 1.05-.7 1.1-.61 1.16-.53 1.21-.44 1.25-.34 1.29-.25 1.34-.16 1.67v1.66l.15 1.62.3 1.58.44 1.54.58 1.48.7 1.41.83 1.35.94 1.26 1.06 1.17 1.16 1.08 1.25.97 1.35.86 1.44.73 1.51.61 1.59.47 1.65.32.1-.17.1-.16.1-.16.1-.16.1-.17.1-.16.09-.17.1-.16.09-.17.09-.16.1-.17.09-.17.09-.17.09-.16.09-.17.08-.17.09-.17.18-.38.08-.16.08-.17.08-.17.07-.16.08-.17.07-.17.08-.17.07-.17.07-.17.07-.17.07-.17.07-.17.07-.17.07-.17.06-.17.07-.17.06-.17.04-.1.01-.03.01-.03.01-.03.01-.03.02-.04.01-.03.01-.03.01-.03.01-.03.01-.03.02-.03.01-.04.01-.03.01-.03.06-.16.05-.17.06-.16.05-.17.05-.17.06-.16.05-.17.05-.17.04-.16.05-.17.05-.17.05-.17.04-.17.05-.16.04-.17.05-.17.04-.17.01-.04.01-.04.01-.04.01-.04.01-.04.01-.04.03-.07.01-.04.01-.04.01-.04.01-.04.01-.04.01-.04.01-.04.01-.04.01-.04.03-.16.04-.17.03-.17.04-.16.03-.17.03-.17.03-.16.03-.17.03-.17.03-.17.03-.17.02-.17.03-.16.02-.17.03-.17.02-.17.03-.17v-.03l.01-.04v-.03l.01-.04v-.03l.01-.03v-.04l.01-.06.01-.04.01-.03v-.03l.01-.04v-.03l.01-.03v-.07l.01-.04v-.05l.01-.04v-.07l.01-.03v-.06l.01-.01.02-.21.02-.2.02-.2.02-.2.01-.2.02-.21.01-.2.02-.2.01-.2.01-.2.01-.21.01-.2v-.2l.01-.2v-.21l.01-.2V63.06l-.01-.2v-.2l-.01-.21v-.2l-.01-.2-.01-.2-.01-.21-.01-.2-.01-.2-.02-.21-.01-.2-.02-.2-.02-.2-.02-.21-.02-.2-.02-.2-.03-.3-.01-.03v-.07l-.01-.03v-.04l-.01-.03-.01-.03v-.04l-.01-.03-.01-.07v-.03l-.01-.04-.01-.03v-.04l-.01-.03v-.03l-.02-.17-.03-.17-.02-.17-.03-.17-.02-.17-.03-.17-.02-.17-.03-.17-.03-.17-.03-.16-.03-.17-.04-.17-.03-.17-.03-.16-.04-.17-.03-.17-.04-.16-.01-.04-.01-.04-.01-.04-.01-.04-.01-.04-.01-.04-.01-.04-.01-.03-.01-.04-.02-.08-.01-.04-.01-.04-.01-.04-.01-.04-.01-.03-.01-.04-.04-.17-.05-.17-.04-.17-.05-.17-.05-.17-.04-.17-.05-.17-.05-.17-.05-.17-.05-.17-.05-.16-.06-.17-.05-.17-.05-.17-.06-.16-.06-.17-.05-.16-.01-.03-.02-.03-.01-.04-.01-.03-.01-.03-.01-.03-.01-.03-.01-.03-.01-.03-.03-.06-.01-.03-.03-.09-.03-.07-.06-.17-.07-.17-.07-.18-.07-.17-.07-.17-.07-.18-.07-.17-.07-.17-.08-.17-.07-.17-.08-.17-.07-.17-.08-.17-.08-.17-.08-.17-.08-.17-.08-.16-.02-.04-.02-.04-.01-.05-.02-.04-.02-.04-.02-.04-.01-.02-.01-.02-.01-.02-.01-.02-.01-.02-.09-.17-.09-.17-.08-.16-.09-.17-.09-.17-.09-.16-.09-.17-.1-.17-.09-.16-.09-.17-.1-.16-.1-.16-.09-.17-.1-.16-.1-.16-.1-.16-.1-.16-1.33.24-1.3.35z" id="c"/><path d="M153.93 15.88l1.82.19 1.81.26 1.8.33 1.77.39 1.77.47 1.74.53 1.72.6 1.7.66 1.67.73 1.64.79 1.62.85 1.58.92 1.55.98 1.51 1.04 1.47 1.1 1.44 1.16 1.39 1.22 1.35 1.28 1.3 1.34 1.26 1.39 1.2 1.46 1.15 1.5 1.1 1.57 1.04 1.61.98 1.67.92 1.73h.75l2.16-2.5.05-.05.04-.05.05-.05.05-.04.05-.05.05-.04.05-.05.05-.04.06-.04.05-.03.06-.04.06-.03.05-.04.06-.03.06-.03.06-.03.06-.02.06-.03.06-.02.06-.02.07-.02.06-.02.06-.02.07-.02.06-.01.07-.01.06-.01.07-.01.06-.01h.07l.06-.01h.14l.06.01h.14l.06.01.07.01.07.01.07.02.13.03.14.03.13.03.14.03.14.03.13.03.14.04.13.03.14.04.13.03.13.04.14.04.13.04.14.04.13.04.13.04.13.04.14.04.13.05.13.04.13.04.14.05.13.05.13.04.13.05.13.05.13.05.13.05.13.05.13.05.13.05.13.06.13.05.12.05.13.06.13.05.13.06.12.06.13.06.13.05.06.03.06.03.06.04.05.03.06.03.05.04.06.04.05.04.05.04.05.04.05.04.05.04.05.05.04.04.05.05.04.05.04.05.04.05.04.05.04.05.04.06.03.05.04.05.03.06.03.06.03.05.03.06.02.06.03.06.02.06.02.06.02.07.02.06.02.06.01.07.02.06.01.07.01.06.01.07.01.06.3 3.35.02.02.05.03.02.01.02.02.02.01.04.03.02.01.04.03.02.02.02.01.04.03.02.02.02.01.04.03.02.02.02.01.02.02.04.03.02.01.03.02.02.01.02.02.02.01.02.02.04.03.04.03.04.03.04.03.04.03 3.15-.72.06-.01.07-.02.07-.01.06-.01h.07l.07-.01h.33l.07.01.06.01.07.01.06.01.07.01.06.01.07.02.06.02.06.02.07.02.06.02.06.02.06.03.06.03.06.03.06.03.06.03.05.03.06.04.06.03.05.04.05.04.06.04.05.05.05.04.05.05.05.04.05.05.04.05.1.11.09.1.09.11.09.11.09.1.09.11.09.11.09.11.09.11.09.11.09.11.09.11.08.11.09.11.08.11.09.11.08.11.09.12.08.11.08.12.08.11.08.11.08.12.08.12.08.11.08.12.08.12.07.11.08.12.08.12.07.12.08.12.07.12.07.12.07.12.08.12.07.12.07.12.07.13.07.12.03.06.03.05.03.06.02.06.03.06.02.06.02.07.02.06.02.06.02.06.01.06.02.07.01.06.01.06.01.07v.06l.01.06v.39l-.01.06-.01.06-.01.07-.01.06-.01.06-.02.07-.01.06-.02.06-.02.06-.02.06-.02.06-.03.07-.02.05-.03.06-.03.06-.03.06-.03.06-1.67 2.88.01.03v.02l.01.03.01.02.01.03.01.03.01.02.01.03v.02l.01.03.01.03.01.02.01.03.01.02v.03l.01.03.01.02.01.03.01.03v.02l.02.05.01.03.02.05v.03l.01.03.02.05.01.03v.02l.01.03.01.03.01.05.02.05.02.08 3 1.33.07.02.06.03.05.03.06.04.06.03.05.03.06.04.05.04.06.04.05.04.05.04.05.04.04.05.05.04.05.05.04.05.04.04.04.05.05.05.03.06.04.05.04.05.03.06.04.05.03.06.03.06.03.06.03.05.02.06.03.06.02.07.02.06.02.06.02.06.01.07.02.06.01.07.01.06.01.07.01.06.02.14.01.14.02.15.01.14.01.14.01.14.01.14.01.14.01.14.01.14.01.14.01.14v.14l.01.14v.14l.01.14V63.83l-.01.14v.14l-.01.14v.14l-.01.14-.01.15-.01.14-.01.14-.01.14-.01.14-.01.14-.01.14-.01.14-.02.14-.01.14-.02.14-.01.07-.01.06-.01.07-.01.06-.02.07-.01.06-.02.06-.02.07-.02.06-.02.06-.03.06-.02.06-.03.06-.03.06-.03.05-.03.06-.04.06-.03.05-.04.06-.04.05-.03.05-.05.05-.04.05-.04.05-.04.05-.05.04-.05.05-.04.04-.05.05-.05.04-.05.04-.06.04-.05.03-.06.04-.05.04-.06.03-.06.03-.05.03-.06.03-.07.03-3 1.32v.03l-.03.08-.01.05-.02.05-.01.03v.03l-.01.02-.01.03-.02.05v.03l-.02.05-.01.03-.02.05v.03l-.01.03-.01.02-.01.03-.01.02v.03l-.01.03-.01.02-.01.03-.01.03-.01.02v.03l-.01.02-.01.03-.01.03-.01.02-.01.03-.01.02v.03l-.01.03 1.67 2.88.03.05.03.06.03.06.03.06.02.06.03.06.02.06.02.06.02.06.02.07.01.06.02.06.01.06.01.07.01.06.01.07.01.06v.38l-.01.07v.06l-.01.06-.01.07-.01.06-.02.06-.01.07-.02.06-.02.06-.02.06-.02.06-.02.06-.03.06-.03.06-.02.06-.03.06-.04.06-.06.12-.07.12-.07.13-.08.12-.07.12-.07.12-.07.12-.07.12-.08.12-.07.12-.08.11-.07.12-.08.12-.08.12-.08.11-.08.12-.07.12-.08.11-.08.12-.09.11-.08.11-.08.12-.08.11-.09.11-.08.12-.08.11-.09.11-.09.11-.08.11-.09.11-.09.11-.09.11-.09.11-.09.1-.09.11-.09.11-.09.1-.09.11-.09.11-.1.1-.04.05-.05.05-.05.05-.05.04-.05.05-.05.04-.05.04-.06.04-.05.04-.06.04-.05.04-.06.03-.06.03-.06.03-.05.03-.07.03-.06.02-.06.03-.06.02-.06.02-.07.02-.06.02-.06.01-.07.02-.06.01-.07.01-.06.01-.07.01h-.07l-.06.01h-.2l-.07-.01h-.07l-.06-.01-.07-.01-.07-.01-.06-.01-.07-.02-3.15-.72-.02.02-.04.03-.02.01-.04.03-.02.02-.04.03-.02.02-.02.01-.02.02-.02.01-.04.03-.02.02-.02.01-.02.02-.02.01-.04.03-.05.03-.04.03-.04.03-.04.03-.02.01-.02.02-.02.01-.02.02-.04.03-.04.03-.02.01-.04.03-.31 3.35-.01.07-.01.06-.01.07-.01.06-.01.07-.02.06-.02.07-.01.06-.03.06-.02.06-.02.06-.03.06-.02.06-.03.06-.03.06-.03.05-.03.06-.04.06-.03.05-.04.05-.04.06-.03.05-.05.05-.04.05-.04.04-.04.05-.05.05-.05.04-.05.05-.04.04-.06.04-.05.04-.05.04-.05.04-.06.03-.05.04-.06.03-.06.03-.06.03-.06.03-.13.06-.12.06-.13.05-.13.06-.13.06-.12.05-.13.06-.13.05-.13.05-.13.05-.13.06-.13.05-.13.05-.13.05-.13.04-.13.05-.13.05-.13.04-.13.05-.14.04-.13.05-.13.04-.13.04-.14.05-.13.04-.13.04-.14.04-.13.03-.14.04-.13.04-.13.04-.14.03-.13.04-.14.03-.13.03-.14.04-.14.03-.13.03-.14.03-.13.03h-.03l-.01.01h-.04l-.01.01h-.05l-.03.01h-.05l-.01.01h-.1l-.01.01h-.33l-.05-.01h-.06l-.05-.01-.05-.01-.06-.01-.05-.01-.05-.01-.05-.01-.05-.01-.06-.02-.05-.01-.05-.02-.05-.02-.05-.01-.05-.02-.05-.03-.05-.02-.04-.02-.05-.02-.05-.03-.05-.02-.04-.03-.05-.03-.04-.03-.05-.03-.04-.03-.04-.03-.05-.03-.04-.04-.04-.03-.04-.04-.04-.03-.04-.04-.04-.04-.03-.04-.04-.04-.04-.04-2.15-2.5h-.75l-.72 1.37-.76 1.34-.8 1.31-.83 1.28-.87 1.24-.91 1.21-.95 1.17-.97 1.14-1.01 1.1-1.05 1.07-1.07 1.03-1.11 1-1.13.96-1.16.92-1.19.88-1.21.85-1.24.8-1.27.77-1.28.72-1.31.69-1.33.64-1.35.6-1.36.56-1.39.51-1.4.48-1.42.43-1.43.38-1.44.34-1.46.29-1.47.25-1.48.2-1.49.16-1.5.1-1.51.06-1.51.01-1.52-.04-1.52-.08-1.52-.14-1.53-.19-1.53-.24-7.8 9.74-.07.08-.06.07-.07.07-.07.07-.08.07-.07.06-.08.05-.08.06-.08.05-.08.05-.08.04-.09.04-.08.04-.09.03-.09.03-.09.03-.09.03-.09.02-.09.02-.09.01-.1.01-.09.01h-.28l-.09-.01-.1-.01-.09-.01-.09-.02-.09-.02-.1-.02-.09-.03-.09-.03-.09-.04-.08-.04-.09-.04-.09-.05-.08-.05-.09-.05-.08-.06-5.05-3.67-29.04 35.71-.03.04-.04.04-.04.05-.04.04-.04.04-.04.03-.04.04-.04.04-.04.03-.05.04-.04.03-.04.04-.05.03-.05.03-.04.03-.05.03-.05.02-.05.03-.05.02-.04.03-.05.02-.06.02-.05.02-.05.02-.05.02-.05.02-.06.02-.05.01-.05.02-.06.01-.05.01-.05.01-.06.01-.05.01-.06.01h-.11l-.06.01h-.28l-.04-.01h-.04l-.05-.01h-.04l-.04-.01h-.04l-.04-.01-.04-.01-.05-.01-.04-.01-.04-.01-.04-.01-.04-.01-.04-.01-.04-.02-.04-.01-.04-.01-.04-.02-.04-.01-.04-.02-.03-.02-.04-.01-.04-.02-.04-.02-.03-.02-.04-.02-.04-.02-.03-.02-.04-.03-.04-.02-.03-.02-.04-.02-.03-.03-.04-.02-.03-.03-.03-.03-12.5-9.99-.01-.01h-.01l-.08-.07-.07-.07-.08-.07-.06-.07-.07-.08-.06-.08-.06-.08-.05-.08-.05-.08-.05-.09-.04-.09-.05-.08-.03-.09-.04-.09-.02-.1-.03-.09-.02-.09-.02-.1-.02-.09-.01-.1-.01-.09V140.59l.01-.1.01-.09.01-.1.02-.09.02-.1.03-.09.03-.09.03-.1.04-.09.04-.09.04-.09.05-.08.05-.09.06-.08.06-.09.06-.08 28.39-34.93-5.4-3.92-.04-.03-.02-.02-.02-.01-.02-.02-.01-.01-.01-.01-.08-.06-.08-.07-.07-.07-.07-.08-.06-.07-.07-.08-.05-.08-.06-.08-.05-.08-.05-.09-.04-.08-.05-.09-.03-.09-.04-.09-.03-.09-.02-.1-.03-.09-.02-.09-.01-.1-.02-.09v-.1l-.01-.09v-.2l.01-.09.01-.1.01-.09.02-.1.02-.09.02-.1.03-.09.03-.09.04-.09.04-.09.04-.09.05-.09.05-.09.06-.08.06-.09.06-.08 6.69-8.35-.06-.09-.06-.09-.05-.09-.06-.1-.05-.09-.06-.09-.06-.09-.05-.09-.06-.09-.05-.09-.05-.09-.06-.1-.05-.09-.06-.09-.05-.09-.05-.09-.06-.1-.05-.09-.05-.09-.06-.09-.05-.1-.05-.09-.05-.09-.05-.1-.06-.09-.05-.09-.05-.1-.05-.09-.05-.09-.05-.1-.05-.09-.05-.09-.05-.1-.05-.09-.05-.1-.05-.09-.05-.1-.05-.09-.05-.1-.04-.09-.86-1.76-.77-1.78-.69-1.79-.62-1.81-.54-1.82-.46-1.82-.39-1.84-.31-1.84-.24-1.84-.17-1.84-.09-1.85-.02-1.84.05-1.83.12-1.83.19-1.82.26-1.8.33-1.8.4-1.77.46-1.76.53-1.75.6-1.71.66-1.7.73-1.67.79-1.64.86-1.62.92-1.58.98-1.55 1.04-1.51 1.1-1.47 1.16-1.43 1.22-1.4 1.28-1.34 1.34-1.3 1.4-1.26 1.45-1.2 1.51-1.15 1.56-1.1 1.62-1.04 1.67-.98 1.73-.92 1.76-.85 1.78-.77 1.79-.69 1.81-.62 1.82-.54 1.83-.46 1.83-.39 1.85-.32 1.84-.23 1.84-.17 1.85-.09 1.84-.02 1.83.05 1.83.12zM94.62 147.21l27.31-33.57-8.93-6.49-26.97 33.19 8.59 6.87zm32.1-36.27l.28.2 5.04 3.66 4.75-5.94-.04-.01-.04-.02-.03-.01-.04-.01-.03-.01-.04-.01-.03-.02-.04-.01-.04-.01-.03-.01-.04-.01-.03-.02-.04-.01-.03-.01-.09-.03-.09-.02-.08-.03-.09-.03-.09-.03-.08-.02-.09-.03-.08-.03-.09-.03-.08-.03-.09-.03-.09-.03-.08-.03-.09-.03-.08-.02-.11-.04-.13-.05-.16-.05-.18-.06-.2-.07-.23-.08-.24-.09-.26-.09-.28-.1-.28-.11-.31-.12-.31-.12-.32-.13-.06-.02-.06-.03-.07-.02-.06-.03-.06-.02-.06-.03-.06-.02-.06-.03-.07-.03-.06-.02-.06-.03-.06-.03-.06-.02-.06-.03-.28-.12-.27-.12-.27-.12-.27-.13-.27-.12-.27-.13-.27-.13-.27-.13-.26-.13-.27-.13-.26-.13-.27-.14-.26-.14-.26-.14-.85-.47-.84-.49-.82-.5-.82-.52-.8-.54-.8-.55-.78-.57-.77-.59-.76-.6-.74-.62-.73-.63-.72-.65-.71-.66-.69-.68-.23-.23-.21-.21-.2-.2-.2-.21-.2-.22-.2-.21-.2-.21-.2-.22-.2-.21-.19-.22-.19-.22-.2-.22-.19-.22-.19-.23-.18-.22-.03-.02-.02-.03-.02-.02-.02-.03-.04-.05-.02-.02-.03-.03-.02-.02-.02-.03-.02-.03-.02-.02-.02-.03-.02-.02-.04-.05-.05-.05-.04-.05-.04-.05-.04-.04-.04-.05-.04-.05-.05-.05-.04-.04-.04-.05-.04-.05-.04-.05-.04-.05-.04-.05-4.1 5.12 18.13 13.18zm19.73-90l-1.71.18-1.69.24-1.67.31-1.65.37-1.62.43-1.6.5-1.56.56-1.54.61-1.51.68-1.48.73-1.44.78-1.41.84-1.37.89-1.34.94-1.3.99-1.25 1.04-1.22 1.09-1.17 1.13-1.13 1.17-1.09 1.22-1.04 1.26-.98 1.3-.94 1.33-.89 1.38-.84 1.41-.78 1.44-.73 1.48-.67 1.51-.62 1.53-.55 1.57-.5 1.6-.43 1.62-.37 1.64-.31 1.67-.24 1.69-.17 1.72-.11 1.73-.03 1.75.02 1.27.06 1.26.09 1.25.13 1.25.17 1.24.2 1.23.24 1.22.28 1.2.3 1.2.34 1.18.38 1.18.41 1.16.44 1.14.47 1.13.51 1.11.53 1.1.57 1.08.6 1.07.62 1.05.66 1.02.69 1.01.71.99.74.97.78.95.79.92.83.91.85.88.88.85.91.84.92.8.96.78.98.76 1 .72 1.03.7 1.05.68 1.07.64 1.09.61 1.12.58 1.14.55 1.16.52.01.01.02.01h.01l.02.01.01.01h.01l.02.01.02.01.04.02.03.01.02.02h.02l.02.01.02.01.01.01h.01l.06.03.06.02.07.03.06.02.06.03.06.02.07.03.06.02.06.03.07.02.06.03.07.02.06.03.06.02.07.02.06.03.06.02.07.02.06.03.07.02.06.02.07.02.06.03.06.02.07.02.06.02.07.03.06.02.07.02.06.02.07.03.06.02.13.04.07.03.06.02.06.02.07.02.06.02.07.03.03.01.04.01.04.02.03.01.04.01.04.02.03.01.04.01.04.02.03.01.04.01.03.02.04.01.11.04.04.02.03.01.04.01.03.02.04.01.04.01.03.02.04.01.04.01.03.02.04.01.03.01.04.01.04.02.03.01.04.01.04.01.03.02.04.01.04.01.03.01.04.01.04.01.04.01.03.01.04.02.04.01.03.01.04.01.04.01.04.01.04.01.03.01.04.01.04.01.04.01.03.01.04.01.04.01h.04l.04.01.03.01.04.01.04.01.04.01.15.04.08.02.04.01.03.01.04.01.04.01.04.01.04.01.03.01.04.01.04.01.04.01.04.01.03.01.04.01.07.01.06.02.06.02.07.02.06.01.13.04.13.03.07.02.06.02.07.02.06.01.07.02.06.02.07.01.06.02.07.02.06.02.07.01.06.02.07.02.06.01.07.02.07.01.06.02.07.02.06.01.07.02.06.01.07.02.06.01.07.02.07.01.06.02.07.01.06.02.07.01.07.02.06.01 1.43.26 1.43.21 1.43.17 1.43.11 1.42.07 1.42.01 1.41-.03 1.41-.07 1.4-.13 1.39-.16 1.38-.22 1.36-.26 1.36-.3 1.35-.35 1.33-.39 1.31-.43 1.3-.47 1.28-.52 1.27-.56 1.24-.6 1.23-.64 1.2-.67 1.19-.72 1.15-.76 1.14-.79 1.11-.83 1.08-.87 1.06-.9 1.02-.95 1-.97.97-1.01.93-1.05.91-1.08.87-1.11.83-1.15.8-1.17.76-1.21.73-1.25.68-1.27.65-1.3.05-.1.04-.09.05-.1.04-.1.05-.09.04-.1.05-.1.04-.09.05-.1.04-.1.04-.1.05-.09.04-.1.04-.1.04-.09.05-.1.04-.1.04-.1.04-.1.04-.09.04-.1.04-.1.04-.1.04-.1.04-.09.04-.1.04-.1.04-.1.04-.1.04-.1.04-.09.03-.1.04-.1.04-.1.04-.1.03-.1.04-.1.04-.1.03-.1.04-.11.02-.03.01-.03.01-.03.02-.05.05-.13v-.02l.01-.03.02-.04.02-.04.01-.03.01-.03v-.02l.01-.01.01-.03.01-.03.03-.11.04-.09.03-.09.03-.09.03-.09.03-.09.03-.09.03-.1.03-.09.03-.09.03-.09.02-.09.03-.09.03-.1.03-.09.03-.09.02-.09.03-.09.03-.1.03-.09.02-.09.03-.09.03-.09.02-.1.03-.09.02-.09.03-.1.02-.09.03-.09.02-.09.03-.1.02-.09.03-.09.02-.1.02-.09.03-.09.02-.1.03-.09.02-.09.02-.1.01-.02v-.02l.01-.02.01-.03v-.02l.01-.02v-.02l.01-.03.01-.04.01-.05.01-.02.01-.05.03-.09.01-.04.01-.05.01-.04.01-.02v-.03l.01-.02.01-.02v-.02l.01-.03v-.02l.01-.02.01-.02v-.03l.01-.02v-.02l.01-.03v-.02l.01-.02.02-.09.02-.09.02-.08.01-.09.02-.09.02-.09.02-.09.02-.08.01-.09.02-.09.02-.09.01-.09.02-.08.02-.09.01-.09.02-.09.01-.09.02-.09.01-.08.02-.09.01-.09.02-.09.01-.09.02-.09.01-.09.02-.08.01-.09.01-.09.02-.09.01-.09.01-.09.02-.09.01-.09.01-.09.01-.08.02-.09.01-.09.01-.09.01-.09.01-.09.01-.03v-.02l.01-.03v-.05l.01-.03v-.02l.01-.03v-.05l.01-.03v-.03l.01-.05.01-.05.02-.11v-.02l.01-.03v-.03l.01-.02v-.03l.01-.02v-.06l.01-.02v-.03l.01-.03v-.05l.01-.03v-.05l.01-.03v-.05l.01-.03.02-.22.03-.23.02-.23.02-.23.02-.23.02-.23.02-.23.01-.23.02-.23.01-.23.01-.23.02-.23.01-.23v-.23l.01-.23.01-.23v-.46l.01-.23v-.46l-.01-.23v-.46l-.01-.23-.01-.23v-.23l-.01-.23-.02-.23-.01-.23-.01-.23-.02-.23-.01-.23-.02-.23-.02-.23-.02-.23-.02-.23-.02-.23-.03-.23-.02-.23-.01-.03v-.05l-.01-.03v-.05l-.01-.03v-.05l-.01-.03v-.02l-.01-.03v-.05l-.01-.03v-.02l-.01-.03v-.03l-.01-.02v-.06l-.01-.05-.02-.08-.01-.05v-.03l-.01-.02v-.05l-.01-.03v-.03l-.01-.02v-.06l-.01-.02v-.03l-.01-.03-.01-.09-.01-.08-.01-.09-.01-.09-.02-.09-.01-.09-.01-.09-.02-.09-.01-.09-.01-.09-.02-.08-.01-.09-.01-.09-.02-.09-.01-.09-.02-.09-.01-.09-.02-.08-.01-.09-.02-.09-.01-.09-.02-.09-.01-.09-.02-.09-.01-.08-.02-.09-.02-.09-.01-.09-.02-.09-.01-.09-.02-.08-.02-.09-.02-.09-.01-.09-.02-.09-.02-.08-.02-.09-.02-.09-.01-.09-.02-.08-.01-.03v-.02l-.01-.02v-.03l-.01-.02v-.02l-.01-.02-.01-.03v-.02l-.01-.02v-.02l-.01-.03-.01-.02v-.02l-.01-.02-.01-.05-.01-.04-.01-.03-.01-.04-.02-.09-.02-.05-.01-.04-.01-.05-.01-.02v-.02l-.01-.03v-.02l-.01-.02-.01-.02v-.03l-.01-.02-.02-.09-.02-.09-.03-.1-.02-.09-.03-.09-.02-.1-.02-.09-.03-.09-.02-.1-.03-.09-.02-.09-.03-.09-.02-.1-.03-.09-.02-.09-.03-.09-.02-.1-.03-.09-.03-.09-.02-.09-.03-.1-.03-.09-.03-.09-.02-.09-.03-.1-.03-.09-.03-.09-.03-.09-.02-.09-.03-.1-.03-.09-.03-.09-.03-.09-.03-.09-.03-.09-.03-.1-.03-.09-.03-.09-.04-.09-.03-.11-.01-.03-.01-.01-.01-.03v-.01l-.01-.03-.01-.03-.02-.05-.01-.02-.02-.05v-.01l-.01-.02-.05-.13-.02-.05-.01-.05-.02-.03-.04-.11-.03-.1-.04-.1-.04-.1-.03-.1-.04-.09-.04-.1-.04-.1-.03-.1-.04-.1-.04-.1-.04-.1-.04-.09-.04-.1-.04-.1-.04-.1-.04-.1-.04-.1-.04-.09-.04-.1-.04-.1-.04-.1-.04-.1-.04-.09-.05-.1-.04-.1-.04-.1-.04-.09-.05-.1-.04-.1-.04-.09-.05-.1-.04-.1-.05-.1-.04-.09-.05-.1-.04-.1-.05-.09-.04-.1-.05-.1-.54-1.09-.58-1.08-.6-1.06-.63-1.04-.65-1.01-.68-.99-.71-.97-.73-.95-.76-.92-.79-.91-.8-.87-.83-.85-.85-.83-.87-.8-.9-.78-.91-.75-.94-.73-.95-.69-.97-.68-.99-.64-1.01-.62-1.03-.58-1.04-.56-1.06-.53-1.07-.5-1.08-.48-1.11-.44-1.11-.41-1.13-.38-1.13-.35-1.15-.32-1.17-.28-1.17-.26-1.18-.22-1.19-.18-1.2-.16-1.2-.12-1.22-.09-1.22-.05-1.22-.01-1.75.03-1.74.11zm49.47 24.97l-.05.06-.06.06-.07.06-.06.05-.06.06-.07.05-.07.04-.07.05-.07.04-.07.04-.08.04-.07.03-.08.04-.08.03-.07.03-.08.02-.08.02-.08.02-.09.02-.08.02.01.02.01.03.01.03.01.03.01.03.01.03.01.03.01.03.01.03.01.03.02.06v.03l.01.03.01.03.01.03.01.03.01.03.01.03.01.03.01.02.05.14.05.14.05.14.05.14.05.13.04.14.05.14.05.14.05.14.04.14.05.14.04.14.05.14.04.14.05.14.04.14.05.14.04.14.04.14.04.14.04.15.03.08.02.08.02.07.02.08.02.08.02.08.02.08.03.09.02.08.02.08.02.08.02.08.02.08.02.08.02.08.02.08.04.16.02.08.02.08.02.08.05.23.03.12.03.11.03.12.03.11.03.12.02.12.03.11.03.12.03.11.02.12.03.11.03.12.02.12.03.11.02.12.03.12.02.12.03.12.02.12.02.12.03.12.02.12.02.12.02.12.02.12.02.12.02.12.01.13.02.12.02.12.02.12.02.12.01.12.02.12.02.12.01.13.02.12.01.12.02.12.02.12.01.09.01.08.02.09.01.09.01.08.01.09.02.08.01.09.01.09.02.08.01.09.01.08.01.09.02.09.01.08.01.09.01.09.01.08.01.09.01.09.01.09.02.21.02.21.02.22.01.21.02.22.02.21.01.22.02.21.01.22.01.21.02.22.01.21.01.22v.22l.01.21.01.22v.21l.01.22v1.31l-.01.21v.22l-.01.22v.21l-.01.22-.01.22-.01.21-.01.22-.02.22-.01.21-.01.22-.02.22-.01.21-.02.22-.02.21-.02.22-.02.21-.02.21-.01.09-.01.09-.01.09-.01.08-.01.09-.01.09-.01.08-.01.09-.02.09-.01.08-.01.09-.01.08-.02.09-.01.09-.01.08-.02.09-.01.08-.01.09-.01.09-.02.08-.01.09-.01.12-.02.12-.02.12-.01.13-.02.12-.02.12-.01.12-.02.12-.02.13-.02.12-.01.12-.02.12-.02.12-.02.12-.02.12-.02.13-.02.12-.02.12-.02.11-.02.12-.02.12-.03.12-.02.12-.03.12-.02.11-.03.12-.02.12-.03.11-.02.12-.03.12-.03.11-.03.12-.02.12-.03.11-.03.12-.03.11-.03.12-.02.12-.03.11-.03.12-.03.11-.03.12-.02.08-.02.08-.02.08-.02.08-.02.08-.02.08-.02.08-.02.08-.02.08-.02.08-.02.08-.02.08-.02.08-.02.08-.02.08-.02.09-.02.08-.03.07-.02.08-.02.08-.02.08-.04.15-.04.14-.05.14-.04.14-.04.14-.05.14-.04.14-.05.14-.04.14-.05.14-.04.14-.05.14-.05.14-.04.14-.05.14-.05.13-.05.14-.04.14-.05.14-.05.14-.05.13-.01.03-.01.03-.01.03-.01.03-.01.03-.01.03-.01.03-.01.03-.01.03-.02.06-.01.03-.01.03v.03l-.01.03-.01.03-.01.03-.01.03-.01.03-.01.03-.01.02.08.02.08.02.08.02.08.02.08.02.08.03.08.03.07.04.08.03.07.04.08.04.07.04.07.05.06.05.07.05.07.05.06.05.06.06.06.06.06.06.06.06 1.95 2.27.07-.02.07-.02.07-.02.08-.02.07-.02.07-.03.07-.02.07-.02.07-.02.07-.03.08-.02.07-.03.07-.02.07-.03.07-.02.07-.03.07-.02.08-.03.07-.03.07-.02.07-.03.28-3.06.01-.11.02-.11.02-.11.03-.1.03-.11.04-.1.04-.1.04-.1.05-.1.06-.1.05-.09.06-.09.07-.09.07-.08.07-.08.08-.08.08-.08.08-.07.09-.07.09-.06.09-.06.11-.07.12-.07.11-.07.11-.07.11-.08.1-.07.11-.08.11-.07.11-.08.1-.08.11-.07.1-.08.11-.08.1-.08.1-.08.11-.09.1-.08.1-.08.1-.09.1-.08.1-.09.09-.07.09-.07.09-.07.1-.06.09-.06.1-.05.11-.04.1-.05.11-.03.1-.03.11-.03.11-.02.11-.02.11-.02h.11l.12-.01.11.01.11.01.12.01.11.02.11.02 2.86.65.05-.06.05-.06.05-.07.04-.06.05-.07.05-.06.05-.07.05-.06.04-.07.05-.06.05-.07.04-.06.05-.07.04-.06.05-.07.04-.06.05-.07.04-.07.05-.06.04-.07.05-.06-1.53-2.63-.05-.1-.05-.09-.04-.1-.04-.11-.04-.1-.03-.1-.02-.11-.03-.11-.01-.1-.01-.11-.01-.11v-.22l.01-.1.01-.11.01-.11.02-.11.03-.1.03-.11.04-.1.04-.11.05-.12.04-.13.05-.12.05-.13.05-.12.04-.13.04-.12.05-.13.04-.13.04-.13.04-.12.04-.13.04-.13.03-.13.04-.13.03-.13.04-.13.03-.13.03-.13.03-.13.03-.13.03-.11.03-.1.04-.11.04-.1.04-.1.05-.1.06-.1.06-.09.06-.09.07-.09.07-.08.07-.09.08-.07.08-.08.08-.07.09-.07.09-.06.09-.06.1-.06.1-.05.1-.05 2.75-1.21v-.04l.01-.04v-.16l.01-.05V62.81l-.01-.04v-.25l-.01-.04v-.08l-2.75-1.21-.1-.05-.1-.05-.1-.06-.09-.06-.09-.06-.09-.07-.08-.07-.08-.08-.08-.07-.07-.09-.07-.08-.07-.09-.06-.09-.06-.09-.06-.1-.05-.1-.04-.1-.04-.1-.04-.11-.03-.1-.03-.11-.03-.13-.03-.13-.03-.13-.03-.13-.04-.13-.03-.13-.04-.13-.03-.13-.04-.13-.04-.13-.04-.12-.04-.13-.04-.13-.05-.13-.04-.12-.04-.13-.05-.12-.05-.13-.05-.12-.04-.13-.05-.12-.04-.11-.04-.1-.03-.11-.03-.1-.02-.11-.01-.11-.01-.11-.01-.1v-.22l.01-.11.01-.11.01-.1.03-.11.02-.11.03-.1.04-.1.04-.11.04-.1.05-.1.05-.09 1.53-2.63-.05-.06-.04-.07-.05-.06-.04-.07-.05-.07-.04-.06-.05-.07-.04-.06-.05-.07-.04-.06-.05-.07-.05-.07-.04-.06-.05-.06-.05-.07-.05-.06-.05-.07-.04-.06-.05-.07-.05-.06-.05-.06-2.86.65-.11.02-.11.02-.12.01-.11.01H204.64l-.11-.01-.11-.01-.11-.02-.11-.02-.11-.03-.1-.03-.11-.04-.1-.04-.11-.04-.1-.06-.09-.05-.1-.06-.09-.07-.09-.07-.09-.07-.1-.09-.1-.08-.1-.09-.1-.08-.1-.08-.11-.09-.1-.08-.1-.08-.11-.08-.1-.08-.11-.07-.1-.08-.11-.08-.11-.07-.1-.08-.11-.07-.11-.07-.11-.08-.11-.07-.11-.07-.11-.07-.1-.06-.09-.06-.09-.07-.08-.07-.08-.08-.08-.08-.07-.08-.07-.08-.06-.09-.07-.09-.05-.09-.06-.1-.05-.1-.04-.1-.04-.1-.04-.1-.03-.11-.03-.1-.02-.11-.02-.11-.01-.11-.28-3.06-.07-.03-.07-.02-.07-.03-.08-.02-.07-.03-.07-.02-.07-.03-.07-.02-.07-.03-.07-.02-.08-.03-.07-.02-.07-.02-.07-.03-.07-.02-.07-.02-.07-.02-.08-.03-.07-.02-.07-.02-.07-.02-1.96 2.27-.06.06z" id="d"/></defs><use xlink:href="#a" fill="#fff"/><use xlink:href="#a" fill-opacity="0" stroke="#000" stroke-opacity="0"/><use xlink:href="#b" fill="#fff"/><use xlink:href="#b" fill-opacity="0" stroke="#000" stroke-opacity="0"/><g><use xlink:href="#c" fill="#fff"/><use xlink:href="#c" fill-opacity="0" stroke="#000" stroke-opacity="0"/></g><g><use xlink:href="#d" fill="#fff"/><use xlink:href="#d" fill-opacity="0" stroke="#000" stroke-opacity="0"/></g></svg>