<?xml version="1.0" encoding="UTF-8" standalone="no"?>
<svg
   xmlns:dc="http://purl.org/dc/elements/1.1/"
   xmlns:cc="http://creativecommons.org/ns#"
   xmlns:rdf="http://www.w3.org/1999/02/22-rdf-syntax-ns#"
   xmlns:svg="http://www.w3.org/2000/svg"
   xmlns="http://www.w3.org/2000/svg"
   xmlns:sodipodi="http://sodipodi.sourceforge.net/DTD/sodipodi-0.dtd"
   xmlns:inkscape="http://www.inkscape.org/namespaces/inkscape"
   version="1.1"
   x="0px"
   y="0px"
   viewBox="0 0 100 125"
   enable-background="new 0 0 100 100"
   xml:space="preserve"
   id="svg3386"
   inkscape:version="0.91 r13725"
   sodipodi:docname="refresh.svg"><metadata
     id="metadata3396"><rdf:RDF><cc:Work
         rdf:about=""><dc:format>image/svg+xml</dc:format><dc:type
           rdf:resource="http://purl.org/dc/dcmitype/StillImage" /></cc:Work></rdf:RDF></metadata><defs
     id="defs3394" /><sodipodi:namedview
     pagecolor="#ffffff"
     bordercolor="#666666"
     borderopacity="1"
     objecttolerance="10"
     gridtolerance="10"
     guidetolerance="10"
     inkscape:pageopacity="0"
     inkscape:pageshadow="2"
     inkscape:window-width="1408"
     inkscape:window-height="855"
     id="namedview3392"
     showgrid="false"
     inkscape:zoom="5.224"
     inkscape:cx="15.352221"
     inkscape:cy="62.5"
     inkscape:window-x="32"
     inkscape:window-y="0"
     inkscape:window-maximized="1"
     inkscape:current-layer="g3388" /><g
     id="g3388"><path
       fill="#000000"
       d="M88.439,56.442c0,21.234-17.205,38.439-38.439,38.494c-21.234-0.054-38.439-17.26-38.439-38.494    c0-20.69,16.334-37.514,36.806-38.33l-6.044-6.044c-1.579-1.633-1.579-4.192,0-5.771c1.579-1.633,4.192-1.633,5.771-0.054    L61.053,19.2c0.762,0.762,1.198,1.851,1.198,2.886c0,1.089-0.436,2.123-1.198,2.886L48.094,37.93    c-1.579,1.579-4.192,1.579-5.771,0c-1.579-1.579-1.579-4.192,0-5.771l5.88-5.88c-7.677,0.381-14.483,3.648-19.601,8.766    c-5.499,5.499-8.875,13.067-8.875,21.397c0,8.385,3.376,15.953,8.875,21.452c5.499,5.445,13.013,8.82,21.397,8.875    c8.385-0.054,15.953-3.43,21.397-8.875c5.499-5.499,8.875-13.067,8.875-21.452c0-2.232,1.851-4.083,4.083-4.083    C86.642,52.358,88.439,54.209,88.439,56.442z"
       id="path3390"
       style="fill:#ffffff;fill-opacity:1" /></g></svg>